<svg xmlns="http://www.w3.org/2000/svg" xmlns:xlink="http://www.w3.org/1999/xlink" width="1920" zoomAndPan="magnify" viewBox="0 0 1440 809.999993" height="1080" preserveAspectRatio="xMidYMid meet" version="1.0"><defs><clipPath id="96cf5d1a1d"><path d="M 373 54 L 584 54 L 584 254 L 373 254 Z M 373 54 " clip-rule="nonzero"/></clipPath><clipPath id="0f0c6c4262"><path d="M 403.777344 31.1875 L 600.207031 96.488281 L 535.851562 290.070312 L 339.421875 224.769531 Z M 403.777344 31.1875 " clip-rule="nonzero"/></clipPath><clipPath id="07e588c961"><path d="M 403.777344 31.1875 L 600.207031 96.488281 L 535.851562 290.070312 L 339.421875 224.769531 Z M 403.777344 31.1875 " clip-rule="nonzero"/></clipPath><clipPath id="757eeec7d0"><path d="M 373 53 L 584 53 L 584 254 L 373 254 Z M 373 53 " clip-rule="nonzero"/></clipPath><clipPath id="495893ec99"><path d="M 403.777344 31.1875 L 600.207031 96.488281 L 535.851562 290.070312 L 339.421875 224.769531 Z M 403.777344 31.1875 " clip-rule="nonzero"/></clipPath><clipPath id="9d33b6da51"><path d="M 403.777344 31.1875 L 600.207031 96.488281 L 535.851562 290.070312 L 339.421875 224.769531 Z M 403.777344 31.1875 " clip-rule="nonzero"/></clipPath><clipPath id="bf87cca1d7"><path d="M 424 97 L 531 97 L 531 228 L 424 228 Z M 424 97 " clip-rule="nonzero"/></clipPath><clipPath id="4b6a31466d"><path d="M 403.777344 31.1875 L 600.207031 96.488281 L 535.851562 290.070312 L 339.421875 224.769531 Z M 403.777344 31.1875 " clip-rule="nonzero"/></clipPath><clipPath id="dceae0ded1"><path d="M 403.777344 31.1875 L 600.207031 96.488281 L 535.851562 290.070312 L 339.421875 224.769531 Z M 403.777344 31.1875 " clip-rule="nonzero"/></clipPath><clipPath id="c61419daef"><path d="M 460 142 L 494 142 L 494 172 L 460 172 Z M 460 142 " clip-rule="nonzero"/></clipPath><clipPath id="38b182b5dc"><path d="M 403.777344 31.1875 L 600.207031 96.488281 L 535.851562 290.070312 L 339.421875 224.769531 Z M 403.777344 31.1875 " clip-rule="nonzero"/></clipPath><clipPath id="cb153ab4d6"><path d="M 403.777344 31.1875 L 600.207031 96.488281 L 535.851562 290.070312 L 339.421875 224.769531 Z M 403.777344 31.1875 " clip-rule="nonzero"/></clipPath><clipPath id="7d8211fae4"><path d="M 460 142 L 494 142 L 494 173 L 460 173 Z M 460 142 " clip-rule="nonzero"/></clipPath><clipPath id="e50b94763b"><path d="M 403.777344 31.1875 L 600.207031 96.488281 L 535.851562 290.070312 L 339.421875 224.769531 Z M 403.777344 31.1875 " clip-rule="nonzero"/></clipPath><clipPath id="8f0588579d"><path d="M 403.777344 31.1875 L 600.207031 96.488281 L 535.851562 290.070312 L 339.421875 224.769531 Z M 403.777344 31.1875 " clip-rule="nonzero"/></clipPath><clipPath id="7e409b442c"><path d="M 873 539 L 1024 539 L 1024 701 L 873 701 Z M 873 539 " clip-rule="nonzero"/></clipPath><clipPath id="0318d287e8"><path d="M 992.628906 509.589844 L 1052.472656 660.9375 L 903.214844 719.953125 L 843.375 568.601562 Z M 992.628906 509.589844 " clip-rule="nonzero"/></clipPath><clipPath id="e8b03774e5"><path d="M 992.628906 509.589844 L 1052.472656 660.9375 L 903.214844 719.953125 L 843.375 568.601562 Z M 992.628906 509.589844 " clip-rule="nonzero"/></clipPath><clipPath id="5ebb4b3513"><path d="M 873 539 L 1025 539 L 1025 701 L 873 701 Z M 873 539 " clip-rule="nonzero"/></clipPath><clipPath id="8e6e74bb69"><path d="M 992.628906 509.589844 L 1052.472656 660.9375 L 903.214844 719.953125 L 843.375 568.601562 Z M 992.628906 509.589844 " clip-rule="nonzero"/></clipPath><clipPath id="0075d3ece1"><path d="M 992.628906 509.589844 L 1052.472656 660.9375 L 903.214844 719.953125 L 843.375 568.601562 Z M 992.628906 509.589844 " clip-rule="nonzero"/></clipPath><clipPath id="9a7c3e5f1e"><path d="M 897 575 L 994 575 L 994 661 L 897 661 Z M 897 575 " clip-rule="nonzero"/></clipPath><clipPath id="f1d449f2aa"><path d="M 992.628906 509.589844 L 1052.472656 660.9375 L 903.214844 719.953125 L 843.375 568.601562 Z M 992.628906 509.589844 " clip-rule="nonzero"/></clipPath><clipPath id="108419c923"><path d="M 992.628906 509.589844 L 1052.472656 660.9375 L 903.214844 719.953125 L 843.375 568.601562 Z M 992.628906 509.589844 " clip-rule="nonzero"/></clipPath><clipPath id="837036ed10"><path d="M 944 604 L 966 604 L 966 632 L 944 632 Z M 944 604 " clip-rule="nonzero"/></clipPath><clipPath id="e9d499f1a0"><path d="M 992.628906 509.589844 L 1052.472656 660.9375 L 903.214844 719.953125 L 843.375 568.601562 Z M 992.628906 509.589844 " clip-rule="nonzero"/></clipPath><clipPath id="6bce849bf3"><path d="M 992.628906 509.589844 L 1052.472656 660.9375 L 903.214844 719.953125 L 843.375 568.601562 Z M 992.628906 509.589844 " clip-rule="nonzero"/></clipPath><clipPath id="0c9cc260b8"><path d="M 944 603 L 966 603 L 966 632 L 944 632 Z M 944 603 " clip-rule="nonzero"/></clipPath><clipPath id="626c674371"><path d="M 992.628906 509.589844 L 1052.472656 660.9375 L 903.214844 719.953125 L 843.375 568.601562 Z M 992.628906 509.589844 " clip-rule="nonzero"/></clipPath><clipPath id="fe4dcfb458"><path d="M 992.628906 509.589844 L 1052.472656 660.9375 L 903.214844 719.953125 L 843.375 568.601562 Z M 992.628906 509.589844 " clip-rule="nonzero"/></clipPath></defs><rect x="-144" width="1728" fill="#ffffff" y="-80.999999" height="971.999992" fill-opacity="1"/><rect x="-144" width="1728" fill="#ffffff" y="-80.999999" height="971.999992" fill-opacity="1"/><rect x="-144" width="1728" fill="#7da3ac" y="-80.999999" height="971.999992" fill-opacity="1"/><rect x="-144" width="1728" fill="#ffe0c2" y="-80.999999" height="971.999992" fill-opacity="1"/><path fill="#fba445" d="M 1011.210938 -347.792969 C 931.699219 -85.652344 984.59375 224.675781 723.039062 420.582031 C 931.851562 221.050781 858.886719 -81.074219 883.199219 -347.792969 Z M 1011.210938 -347.792969 " fill-opacity="1" fill-rule="nonzero"/><path fill="#fba445" d="M 562.816406 1188.957031 L 434.808594 1188.957031 C 514.320312 926.816406 461.421875 616.488281 722.976562 420.582031 C 514.164062 620.113281 587.128906 922.238281 562.820312 1188.957031 Z M 562.816406 1188.957031 " fill-opacity="1" fill-rule="nonzero"/><path fill="#7da3ac" d="M 1409.566406 -347.792969 C 1104.367188 -155.730469 1115.585938 301.851562 723.039062 420.613281 C 1026.148438 287.5625 1027.53125 -98.714844 1192.394531 -347.792969 Z M 1409.566406 -347.792969 " fill-opacity="1" fill-rule="nonzero"/><path fill="#7da3ac" d="M 722.976562 420.550781 C 419.871094 553.601562 418.488281 939.878906 253.625 1188.957031 L 36.449219 1188.957031 C 341.648438 996.894531 330.429688 539.3125 722.976562 420.550781 Z M 722.976562 420.550781 " fill-opacity="1" fill-rule="nonzero"/><path fill="#f29ca5" d="M 1491.382812 -182.347656 L 1491.382812 -14.59375 C 1231.488281 123.925781 1074.125 440.039062 723.039062 420.613281 C 1081.777344 397.40625 1208.253906 -28.148438 1491.382812 -182.347656 Z M 1491.382812 -182.347656 " fill-opacity="1" fill-rule="nonzero"/><path fill="#f29ca5" d="M 722.976562 420.550781 C 364.238281 443.757812 237.765625 869.3125 -45.367188 1023.511719 L -45.367188 855.757812 C 214.53125 717.234375 371.890625 401.125 722.976562 420.550781 Z M 722.976562 420.550781 " fill-opacity="1" fill-rule="nonzero"/><path fill="#fba445" d="M 1491.382812 164.898438 L 1491.382812 296.6875 C 1240.585938 368.085938 1007.921875 542.507812 723.039062 420.613281 C 1008.9375 504.179688 1239.417969 273.699219 1491.382812 164.898438 Z M 1491.382812 164.898438 " fill-opacity="1" fill-rule="nonzero"/><path fill="#fba445" d="M 722.976562 420.550781 C 437.082031 336.984375 206.601562 567.464844 -45.367188 676.265625 L -45.367188 544.476562 C 205.433594 473.078125 438.097656 298.65625 722.976562 420.550781 Z M 722.976562 420.550781 " fill-opacity="1" fill-rule="nonzero"/><path fill="#7da3ac" d="M 1491.382812 446.367188 L 1491.382812 567.28125 C 1230.136719 547.394531 950.203125 633.699219 723.039062 420.613281 C 951.125 588.148438 1229.214844 472.15625 1491.382812 446.367188 Z M 1491.382812 446.367188 " fill-opacity="1" fill-rule="nonzero"/><path fill="#7da3ac" d="M 722.976562 420.550781 C 494.894531 253.015625 216.804688 369.007812 -45.367188 394.796875 L -45.367188 273.882812 C 215.882812 293.769531 495.816406 207.464844 722.976562 420.550781 Z M 722.976562 420.550781 " fill-opacity="1" fill-rule="nonzero"/><path fill="#f29ca5" d="M 1491.382812 723.382812 L 1491.382812 873.03125 C 1241.046875 712.164062 883.230469 737.460938 722.976562 420.613281 C 891.527344 673.285156 1225.832031 638.800781 1491.382812 723.382812 Z M 1491.382812 723.382812 " fill-opacity="1" fill-rule="nonzero"/><path fill="#f29ca5" d="M 723.039062 420.550781 C 554.488281 167.878906 220.183594 202.363281 -45.367188 117.78125 L -45.367188 -31.867188 C 204.972656 129 562.789062 103.703125 723.039062 420.550781 Z M 723.039062 420.550781 " fill-opacity="1" fill-rule="nonzero"/><path fill="#fba445" d="M 1491.382812 1133.386719 L 1491.382812 1188.957031 L 1341.457031 1188.957031 C 1186.585938 889.78125 769.695312 810.515625 722.976562 420.613281 C 814.570312 796.285156 1317.855469 826.46875 1491.382812 1133.386719 Z M 1491.382812 1133.386719 " fill-opacity="1" fill-rule="nonzero"/><path fill="#fba445" d="M 723.039062 420.550781 C 631.449219 44.878906 128.164062 14.695312 -45.367188 -292.222656 L -45.367188 -347.792969 L 104.558594 -347.792969 C 259.433594 -48.617188 676.324219 30.648438 723.039062 420.550781 Z M 723.039062 420.550781 " fill-opacity="1" fill-rule="nonzero"/><path fill="#7da3ac" d="M 1142.082031 1188.957031 L 993.753906 1188.957031 C 885.042969 939.542969 649.089844 736.476562 722.976562 420.613281 C 687.695312 740.410156 1002.050781 932.964844 1142.082031 1188.957031 Z M 1142.082031 1188.957031 " fill-opacity="1" fill-rule="nonzero"/><path fill="#7da3ac" d="M 723.039062 420.550781 C 758.324219 100.753906 443.964844 -91.800781 303.9375 -347.792969 L 452.265625 -347.792969 C 560.972656 -98.378906 796.925781 104.6875 723.039062 420.550781 Z M 723.039062 420.550781 " fill-opacity="1" fill-rule="nonzero"/><path fill="#f29ca5" d="M 833.007812 1188.957031 L 710.53125 1188.957031 C 681.546875 932.84375 555.566406 676.726562 722.976562 420.613281 C 596.410156 676.726562 763.210938 932.84375 833.007812 1188.957031 Z M 833.007812 1188.957031 " fill-opacity="1" fill-rule="nonzero"/><path fill="#f29ca5" d="M 723.039062 420.550781 C 849.605469 164.4375 682.808594 -91.679688 613.007812 -347.792969 L 735.488281 -347.792969 C 764.46875 -91.679688 890.453125 164.4375 723.039062 420.550781 Z M 723.039062 420.550781 " fill-opacity="1" fill-rule="nonzero"/><g clip-path="url(#96cf5d1a1d)"><g clip-path="url(#0f0c6c4262)"><g clip-path="url(#07e588c961)"><path fill="#ffe0c2" d="M 515.394531 164.011719 C 524.230469 163.867188 533.070312 163.722656 541.910156 163.574219 C 550.339844 163.4375 558.972656 163.261719 566.839844 160.230469 C 574.703125 157.203125 581.777344 150.6875 583.027344 142.355469 C 584.136719 134.988281 580.433594 127.457031 574.800781 122.574219 C 569.164062 117.691406 561.847656 115.148438 554.511719 113.804688 C 539.6875 111.089844 524.0625 112.945312 510.292969 119.058594 C 504.464844 121.648438 498.980469 124.996094 493.992188 128.964844 C 502.4375 110.738281 501.222656 88.304688 490.742188 71.136719 C 487.238281 65.398438 482.652344 60.136719 476.710938 56.980469 C 470.769531 53.824219 463.335938 53.035156 457.304688 56.003906 C 450.960938 59.128906 447.113281 65.746094 444.621094 72.363281 C 438.207031 89.382812 438.707031 108.8125 445.574219 125.628906 C 435.808594 119.363281 424.914062 114.902344 413.554688 112.605469 C 404.664062 110.808594 395.050781 110.394531 386.796875 114.398438 C 378.542969 118.402344 372.257812 127.863281 374.230469 136.882812 C 376.109375 145.488281 383.316406 156.390625 391.214844 159.917969 C 407.992188 167.414062 426.546875 170.808594 444.945312 169.851562 C 434.488281 178.535156 424.855469 188.476562 419.742188 200.335938 C 413.972656 213.71875 408.121094 229.890625 423.621094 244.875 C 436 256.84375 454.914062 256.023438 465.585938 242.519531 C 465.660156 242.429688 465.730469 242.335938 465.804688 242.242188 C 472.613281 233.449219 475.191406 222.136719 476.648438 211.113281 C 477.726562 202.945312 478.285156 194.707031 478.328125 186.46875 C 489.898438 206.605469 504.503906 224.699219 523.324219 236.363281 C 526.832031 238.535156 530.53125 240.5 534.582031 241.21875 C 538.628906 241.9375 543.105469 241.292969 546.648438 238.625 C 553.039062 233.8125 557.828125 219.371094 556.542969 211.359375 C 552.894531 188.625 534 173.515625 515.394531 164.011719 Z M 467.753906 154.3125 C 468.128906 152.164062 467.933594 149.902344 467.308594 147.78125 C 467.671875 147.746094 468.035156 147.695312 468.398438 147.621094 C 470.8125 148.484375 474.410156 147.96875 477.933594 146.492188 C 477.53125 147.097656 477.140625 147.707031 476.757812 148.324219 C 476.542969 147.636719 476.179688 149.007812 476.257812 150.902344 C 474.792969 151.464844 473.0625 152.527344 471.804688 154.046875 C 470.734375 153.957031 469.59375 153.980469 468.542969 154.152344 C 468.277344 154.199219 468.015625 154.253906 467.753906 154.3125 Z M 467.753906 154.3125 " fill-opacity="1" fill-rule="nonzero"/></g></g></g><g clip-path="url(#757eeec7d0)"><g clip-path="url(#495893ec99)"><g clip-path="url(#9d33b6da51)"><path fill="#000000" d="M 445.761719 125.441406 C 445.523438 125.289062 445.289062 125.132812 445.050781 124.980469 C 438.449219 108.277344 438.050781 89.09375 444.390625 72.277344 C 447.5625 63.859375 451.75 58.464844 457.195312 55.785156 C 462.890625 52.980469 470.414062 53.355469 476.828125 56.761719 C 482.15625 59.59375 486.910156 64.386719 490.953125 71.011719 C 501.285156 87.933594 502.628906 110.058594 494.617188 128.167969 C 494.339844 128.386719 494.0625 128.605469 493.785156 128.824219 C 502.160156 110.707031 500.945312 88.320312 490.53125 71.265625 C 486.535156 64.71875 481.847656 59.988281 476.59375 57.199219 C 475.386719 56.558594 474.140625 56.023438 472.871094 55.605469 C 467.554688 53.835938 461.898438 54.019531 457.414062 56.226562 C 452.085938 58.851562 447.976562 64.15625 444.851562 72.449219 C 438.472656 89.371094 438.964844 108.703125 445.761719 125.441406 Z M 510.394531 119.285156 C 524.082031 113.207031 539.734375 111.347656 554.46875 114.046875 C 563.097656 115.628906 569.695312 118.480469 574.640625 122.761719 C 580.6875 128 583.808594 135.496094 582.785156 142.320312 C 581.429688 151.324219 573.613281 157.359375 566.75 160 C 558.828125 163.050781 550.226562 163.191406 541.90625 163.328125 L 515.472656 163.765625 C 515.78125 163.921875 516.089844 164.082031 516.402344 164.242188 L 541.914062 163.820312 C 549.886719 163.691406 558.925781 163.542969 566.925781 160.460938 C 573.921875 157.769531 581.886719 151.609375 583.273438 142.394531 C 584.324219 135.402344 581.136719 127.738281 574.960938 122.386719 C 569.953125 118.046875 563.277344 115.160156 554.554688 113.5625 C 539.726562 110.84375 523.96875 112.71875 510.191406 118.832031 C 504.65625 121.289062 499.417969 124.445312 494.617188 128.167969 C 494.472656 128.492188 494.332031 128.820312 494.179688 129.140625 C 499.152344 125.1875 504.609375 121.851562 510.394531 119.285156 Z M 516.402344 164.242188 L 515.367188 164.257812 C 533.667969 173.597656 552.636719 188.585938 556.296875 211.402344 C 557.527344 219.054688 552.992188 233.539062 546.496094 238.429688 C 543.316406 240.824219 538.988281 241.75 534.625 240.976562 C 530.441406 240.234375 526.628906 238.121094 523.453125 236.152344 C 506.449219 225.613281 491.707031 209.285156 478.578125 186.417969 C 478.574219 186.742188 478.574219 187.070312 478.570312 187.398438 C 491.636719 209.957031 506.300781 226.101562 523.191406 236.570312 C 525.613281 238.070312 528.398438 239.65625 531.449219 240.667969 C 532.453125 241 533.480469 241.273438 534.535156 241.460938 C 539.039062 242.261719 543.507812 241.296875 546.796875 238.824219 C 553.414062 233.839844 558.035156 219.105469 556.785156 211.320312 C 553.148438 188.65625 534.554688 173.664062 516.402344 164.242188 Z M 476.402344 211.082031 C 475.136719 220.664062 472.769531 232.847656 465.609375 242.089844 L 465.390625 242.367188 C 460.390625 248.695312 453.371094 252.464844 445.617188 252.980469 C 437.617188 253.511719 429.867188 250.570312 423.792969 244.699219 C 408.875 230.277344 413.722656 214.925781 419.96875 200.4375 C 424.980469 188.804688 434.390625 178.980469 445.082031 170.082031 C 444.808594 170.097656 444.539062 170.113281 444.265625 170.125 C 433.730469 178.949219 424.488281 188.703125 419.515625 200.242188 C 413.199219 214.886719 408.304688 230.414062 423.449219 245.054688 C 426.839844 248.332031 430.746094 250.710938 434.925781 252.101562 C 438.359375 253.242188 441.980469 253.71875 445.652344 253.472656 C 453.542969 252.949219 460.691406 249.113281 465.777344 242.675781 L 466 242.394531 C 473.230469 233.054688 475.617188 220.789062 476.890625 211.148438 C 477.933594 203.261719 478.488281 195.332031 478.570312 187.398438 C 478.40625 187.117188 478.246094 186.832031 478.082031 186.546875 C 478.035156 194.742188 477.476562 202.9375 476.402344 211.082031 Z M 391.316406 159.695312 C 383.203125 156.070312 376.253906 145.003906 374.46875 136.832031 C 372.394531 127.328125 379.328125 118.296875 386.902344 114.621094 C 393.90625 111.222656 402.609375 110.644531 413.503906 112.847656 C 417.207031 113.597656 420.847656 114.566406 424.410156 115.753906 C 431.789062 118.207031 438.824219 121.578125 445.363281 125.773438 C 445.257812 125.511719 445.152344 125.246094 445.046875 124.980469 C 435.449219 118.921875 424.808594 114.632812 413.601562 112.363281 C 402.597656 110.136719 393.792969 110.730469 386.6875 114.175781 C 378.941406 117.933594 371.859375 127.1875 373.988281 136.9375 C 375.796875 145.226562 382.859375 156.457031 391.113281 160.144531 C 394.519531 161.664062 398.007812 163.019531 401.566406 164.203125 C 415.21875 168.738281 429.84375 170.765625 444.265625 170.125 C 444.472656 169.949219 444.683594 169.773438 444.894531 169.597656 C 426.585938 170.515625 407.910156 167.105469 391.316406 159.695312 Z M 391.316406 159.695312 " fill-opacity="1" fill-rule="nonzero"/></g></g></g><g clip-path="url(#bf87cca1d7)"><g clip-path="url(#4b6a31466d)"><g clip-path="url(#dceae0ded1)"><path fill="#000000" d="M 475.863281 169.070312 C 468.84375 176.152344 466.507812 186.375 464.25 196.261719 L 463.910156 197.742188 C 461.621094 207.691406 458.476562 217.65625 451.210938 223.835938 C 452.085938 225.363281 450.78125 227.761719 448.59375 227.074219 C 445.855469 226.105469 447.214844 221.992188 449.992188 222.867188 C 450.378906 223.003906 450.679688 223.207031 450.910156 223.445312 C 458.054688 217.351562 461.164062 207.484375 463.429688 197.632812 L 463.765625 196.152344 C 466.042969 186.199219 468.394531 175.90625 475.511719 168.722656 C 475.605469 168.625 475.765625 168.625 475.859375 168.722656 C 475.957031 168.816406 475.957031 168.972656 475.863281 169.070312 Z M 502.761719 141.078125 C 509.800781 140.480469 516.761719 138.402344 522.988281 135.054688 C 523.214844 135.285156 523.511719 135.480469 523.886719 135.613281 C 526.667969 136.488281 528.023438 132.375 525.285156 131.40625 C 523.089844 130.71875 521.785156 133.132812 522.679688 134.660156 C 516.53125 137.953125 509.664062 139.996094 502.722656 140.585938 C 502.144531 140.636719 501.566406 140.675781 500.984375 140.714844 C 498.84375 140.863281 496.632812 141.015625 494.542969 141.660156 C 491.484375 142.601562 489.199219 144.601562 488.429688 147.007812 C 488.386719 147.136719 488.457031 147.273438 488.585938 147.316406 L 488.589844 147.316406 C 488.71875 147.359375 488.859375 147.289062 488.898438 147.160156 C 489.617188 144.90625 491.78125 143.027344 494.6875 142.128906 C 496.722656 141.5 498.90625 141.351562 501.019531 141.207031 C 501.601562 141.167969 502.183594 141.128906 502.761719 141.078125 Z M 465.503906 162.765625 C 465.375 162.800781 465.296875 162.933594 465.328125 163.066406 C 465.808594 164.902344 465.277344 167.082031 463.875 169.050781 C 462.808594 170.546875 461.382812 171.789062 460.003906 172.992188 C 459.757812 173.210938 459.507812 173.425781 459.261719 173.644531 C 451.109375 180.863281 444.800781 189.992188 440.929688 200.15625 C 438.199219 199.375 436.886719 203.417969 439.605469 204.378906 C 442.242188 205.210938 443.597656 201.550781 441.386719 200.347656 C 445.230469 190.253906 451.492188 181.183594 459.589844 174.011719 C 459.835938 173.796875 460.082031 173.582031 460.328125 173.363281 C 461.726562 172.144531 463.175781 170.878906 464.277344 169.339844 C 465.765625 167.25 466.324219 164.917969 465.808594 162.941406 C 465.769531 162.808594 465.636719 162.730469 465.503906 162.765625 Z M 460.011719 154.085938 C 460.140625 154.136719 460.28125 154.078125 460.332031 153.949219 C 460.382812 153.824219 460.324219 153.679688 460.195312 153.628906 C 454.9375 151.503906 449.082031 151.820312 443.425781 152.121094 C 438.410156 152.390625 433.242188 152.664062 428.53125 151.21875 C 428.847656 150.1875 428.492188 148.953125 427.144531 148.476562 C 424.367188 147.601562 423.007812 151.714844 425.746094 152.683594 C 426.949219 153.058594 427.886719 152.503906 428.339844 151.671875 C 433.148438 153.160156 438.375 152.886719 443.453125 152.613281 C 449.058594 152.316406 454.851562 152.011719 460.011719 154.085938 Z M 525.941406 149.71875 C 525.789062 150.667969 526.203125 151.699219 527.40625 152.125 C 530.183594 153 531.542969 148.890625 528.800781 147.921875 C 527.453125 147.496094 526.441406 148.246094 526.066406 149.242188 C 520.992188 147.972656 515.539062 149.460938 510.339844 151.140625 C 504.570312 153.003906 498.605469 154.929688 492.964844 153.167969 C 492.835938 153.128906 492.695312 153.199219 492.65625 153.332031 C 492.617188 153.460938 492.6875 153.59375 492.816406 153.636719 L 492.820312 153.640625 C 498.609375 155.449219 504.921875 153.410156 510.492188 151.609375 C 515.621094 149.953125 520.988281 148.480469 525.941406 149.71875 Z M 480.757812 116.726562 C 481.0625 116.820312 481.347656 116.855469 481.617188 116.84375 C 482.585938 121.820312 481.945312 127.015625 481.320312 132.0625 C 480.847656 135.863281 480.363281 139.796875 480.550781 143.648438 C 480.554688 143.753906 480.625 143.839844 480.71875 143.871094 C 480.746094 143.878906 480.777344 143.882812 480.808594 143.882812 C 480.945312 143.875 481.050781 143.761719 481.042969 143.625 C 480.855469 139.8125 481.339844 135.902344 481.8125 132.121094 C 482.441406 127.042969 483.085938 121.808594 482.101562 116.757812 C 483.890625 116.222656 484.402344 113.316406 482.15625 112.519531 C 479.375 111.648438 478.019531 115.757812 480.757812 116.726562 Z M 434.847656 136.453125 C 435.734375 136.734375 436.476562 136.503906 436.984375 136.03125 C 438.257812 136.8125 439.839844 137.351562 441.734375 137.636719 C 442.890625 137.808594 444.074219 137.886719 445.21875 137.960938 C 446.378906 138.035156 447.578125 138.113281 448.742188 138.292969 C 454.28125 139.140625 459.4375 142.4375 462.53125 147.109375 C 462.5625 147.15625 462.609375 147.191406 462.660156 147.207031 C 462.730469 147.230469 462.808594 147.222656 462.875 147.179688 C 462.988281 147.101562 463.019531 146.949219 462.945312 146.835938 C 459.773438 142.050781 454.488281 138.675781 448.816406 137.804688 C 447.632812 137.625 446.421875 137.542969 445.25 137.46875 C 444.117188 137.394531 442.945312 137.316406 441.808594 137.148438 C 440.015625 136.878906 438.511719 136.375 437.3125 135.652344 C 438.058594 134.566406 437.902344 132.835938 436.246094 132.25 C 433.464844 131.375 432.109375 135.484375 434.847656 136.453125 Z M 457.75 102.117188 C 458.050781 102.210938 458.332031 102.246094 458.59375 102.234375 C 461.117188 110.035156 462.789062 118.117188 463.546875 126.28125 C 463.59375 126.78125 463.636719 127.285156 463.679688 127.785156 C 463.894531 130.28125 464.117188 132.863281 464.761719 135.335938 C 465.382812 137.707031 466.699219 140.988281 469.449219 143.144531 C 469.472656 143.160156 469.496094 143.175781 469.523438 143.183594 C 469.617188 143.214844 469.730469 143.1875 469.792969 143.101562 C 469.878906 142.996094 469.859375 142.839844 469.753906 142.753906 C 467.109375 140.683594 465.839844 137.507812 465.242188 135.210938 C 464.605469 132.78125 464.386719 130.21875 464.171875 127.742188 C 464.128906 127.242188 464.085938 126.738281 464.039062 126.234375 C 463.28125 118.058594 461.609375 109.96875 459.089844 102.152344 C 460.882812 101.621094 461.398438 98.707031 459.148438 97.910156 C 456.367188 97.039062 455.011719 101.148438 457.75 102.117188 Z M 506.574219 201.023438 C 506.433594 200.980469 506.296875 200.949219 506.167969 200.929688 C 505.875 196.308594 503.550781 191.386719 499.109375 185.957031 C 498.140625 184.773438 497.113281 183.589844 496.121094 182.449219 C 493.09375 178.964844 489.960938 175.363281 488.019531 171.140625 C 487.960938 171.019531 487.816406 170.964844 487.691406 171.019531 C 487.566406 171.078125 487.511719 171.222656 487.570312 171.347656 C 489.542969 175.632812 492.699219 179.261719 495.75 182.773438 C 496.738281 183.914062 497.761719 185.089844 498.726562 186.269531 C 503.082031 191.597656 505.367188 196.410156 505.667969 200.910156 C 503.535156 201.0625 502.753906 204.371094 505.175781 205.226562 C 507.953125 206.101562 509.3125 201.992188 506.574219 201.023438 Z M 523.609375 183.082031 C 522.816406 182.832031 522.140625 182.988281 521.640625 183.363281 C 519.882812 180.527344 518.003906 177.699219 515.699219 175.238281 C 512.507812 171.828125 508.875 169.621094 505.183594 168.851562 C 504.183594 168.644531 503.15625 168.535156 502.164062 168.429688 C 501.105469 168.316406 500.011719 168.199219 498.964844 167.964844 C 497.59375 167.652344 495.136719 166.820312 494.074219 164.707031 C 494.011719 164.585938 493.863281 164.535156 493.742188 164.597656 C 493.621094 164.660156 493.570312 164.808594 493.632812 164.929688 C 494.789062 167.222656 497.398438 168.117188 498.855469 168.445312 C 499.929688 168.6875 501.039062 168.804688 502.113281 168.917969 C 503.09375 169.023438 504.109375 169.128906 505.082031 169.332031 C 508.667969 170.082031 512.214844 172.238281 515.339844 175.574219 C 517.636719 178.03125 519.511719 180.867188 521.277344 183.710938 C 520.386719 184.777344 520.46875 186.667969 522.210938 187.285156 C 524.992188 188.160156 526.351562 184.050781 523.609375 183.082031 Z M 523.609375 183.082031 " fill-opacity="1" fill-rule="nonzero"/></g></g></g><g clip-path="url(#c61419daef)"><g clip-path="url(#38b182b5dc)"><g clip-path="url(#cb153ab4d6)"><path fill="#f29ca5" d="M 488.015625 147.101562 C 485.28125 144.738281 479.09375 142.589844 474.257812 142.636719 C 469.425781 142.683594 464.609375 144.816406 462.179688 148.714844 C 459.75 152.609375 460.179688 158.265625 463.695312 161.648438 C 465.832031 163.703125 468.746094 164.742188 471.351562 166.183594 C 475.324219 168.371094 479.035156 171.691406 483.511719 171.875 C 487.371094 172.035156 490.902344 169.59375 492.488281 166.296875 C 494.074219 163 493.902344 159.015625 492.636719 155.441406 C 491.375 151.871094 489.820312 148.660156 488.015625 147.101562 Z M 488.015625 147.101562 " fill-opacity="1" fill-rule="nonzero"/></g></g></g><g clip-path="url(#7d8211fae4)"><g clip-path="url(#e50b94763b)"><g clip-path="url(#8f0588579d)"><path fill="#000000" d="M 480.492188 171.542969 C 478.320312 170.820312 476.296875 169.53125 474.320312 168.269531 C 473.3125 167.628906 472.273438 166.964844 471.234375 166.394531 C 470.503906 165.988281 469.734375 165.609375 468.988281 165.242188 C 467.070312 164.300781 465.085938 163.324219 463.527344 161.824219 C 460.03125 158.460938 459.363281 152.769531 461.972656 148.585938 C 464.324219 144.816406 469.03125 142.441406 474.253906 142.390625 C 478.910156 142.347656 485.285156 144.417969 488.175781 146.917969 C 489.804688 148.328125 491.386719 151.167969 492.867188 155.363281 C 494.253906 159.285156 494.199219 163.308594 492.710938 166.402344 C 490.988281 169.976562 487.289062 172.273438 483.5 172.117188 C 482.464844 172.074219 481.464844 171.867188 480.492188 171.542969 Z M 481.910156 144.21875 C 479.378906 143.375 476.597656 142.855469 474.261719 142.878906 C 469.199219 142.929688 464.652344 145.214844 462.386719 148.839844 C 459.9375 152.769531 460.585938 158.320312 463.867188 161.472656 C 465.371094 162.921875 467.316406 163.878906 469.203125 164.808594 C 469.953125 165.179688 470.730469 165.558594 471.46875 165.96875 C 472.519531 166.546875 473.566406 167.214844 474.578125 167.859375 C 477.386719 169.648438 480.289062 171.5 483.519531 171.632812 C 487.117188 171.78125 490.632812 169.59375 492.269531 166.191406 C 493.703125 163.210938 493.753906 159.324219 492.410156 155.523438 C 490.953125 151.410156 489.421875 148.640625 487.855469 147.285156 C 486.488281 146.101562 484.308594 145.015625 481.910156 144.21875 Z M 481.910156 144.21875 " fill-opacity="1" fill-rule="nonzero"/></g></g></g><g clip-path="url(#7e409b442c)"><g clip-path="url(#0318d287e8)"><g clip-path="url(#e8b03774e5)"><path fill="#ffe0c2" d="M 968.90625 643.945312 C 973.457031 649.195312 978.011719 654.449219 982.5625 659.703125 C 986.90625 664.710938 991.371094 669.824219 997.171875 673.035156 C 1002.972656 676.242188 1010.472656 677.214844 1016.132812 673.761719 C 1021.132812 670.707031 1023.808594 664.671875 1023.90625 658.808594 C 1024.003906 652.945312 1021.839844 647.253906 1018.945312 642.152344 C 1013.097656 631.851562 1004.082031 623.371094 993.441406 618.164062 C 988.9375 615.957031 984.144531 614.34375 979.230469 613.34375 C 994.492188 609.226562 1007.40625 597.164062 1012.464844 582.175781 C 1014.15625 577.164062 1015.015625 571.742188 1013.917969 566.566406 C 1012.820312 561.394531 1009.539062 556.515625 1004.703125 554.382812 C 999.613281 552.136719 993.679688 553.164062 988.429688 555.003906 C 974.925781 559.734375 963.460938 569.851562 956.785156 582.484375 C 955.632812 573.4375 952.816406 564.617188 948.464844 556.613281 C 945.0625 550.347656 940.453125 544.34375 933.871094 541.394531 C 927.285156 538.445312 918.40625 539.4375 913.960938 545.179688 C 909.71875 550.660156 906.785156 560.511719 908.648438 567.054688 C 912.601562 580.945312 919.925781 593.84375 929.796875 604.445312 C 919.28125 602.53125 908.417969 601.75 898.679688 604.660156 C 887.695312 607.945312 874.984375 612.585938 873.777344 629.496094 C 872.816406 643 882.863281 653.984375 896.398438 653.59375 C 896.488281 653.589844 896.582031 653.585938 896.675781 653.585938 C 905.417969 653.246094 913.542969 649.085938 920.925781 644.394531 C 926.398438 640.917969 931.648438 637.089844 936.640625 632.953125 C 930.339844 650.097656 926.804688 668.039062 929.277344 685.273438 C 929.738281 688.484375 930.421875 691.707031 932.035156 694.507812 C 933.648438 697.3125 936.296875 699.683594 939.695312 700.46875 C 945.824219 701.890625 956.953125 697.480469 961.136719 692.660156 C 973.003906 678.976562 972.574219 659.957031 968.90625 643.945312 Z M 950.691406 610.339844 C 952.175781 609.480469 953.441406 608.21875 954.40625 606.773438 C 954.609375 606.972656 954.824219 607.167969 955.054688 607.347656 C 955.75 609.238281 957.878906 611.148438 960.546875 612.523438 C 959.980469 612.585938 959.414062 612.660156 958.851562 612.742188 C 959.15625 612.265625 958.148438 612.734375 957.042969 613.742188 C 955.964844 613.144531 954.449219 612.636719 952.898438 612.644531 C 952.410156 611.953125 951.820312 611.28125 951.183594 610.734375 C 951.023438 610.597656 950.859375 610.464844 950.691406 610.339844 Z M 950.691406 610.339844 " fill-opacity="1" fill-rule="nonzero"/></g></g></g><g clip-path="url(#5ebb4b3513)"><g clip-path="url(#8e6e74bb69)"><g clip-path="url(#0075d3ece1)"><path fill="#000000" d="M 956.996094 582.503906 C 956.96875 582.28125 956.941406 582.0625 956.910156 581.839844 C 963.652344 569.425781 975.019531 559.496094 988.367188 554.820312 C 995.042969 552.480469 1000.414062 552.277344 1004.78125 554.203125 C 1009.347656 556.21875 1012.921875 560.941406 1014.105469 566.527344 C 1015.09375 571.167969 1014.601562 576.453125 1012.652344 582.238281 C 1007.664062 597.011719 994.996094 609 980.027344 613.320312 C 979.757812 613.261719 979.484375 613.207031 979.210938 613.148438 C 994.371094 609.042969 1007.257812 597.003906 1012.28125 582.113281 C 1014.210938 576.398438 1014.699219 571.179688 1013.726562 566.609375 C 1013.503906 565.554688 1013.195312 564.535156 1012.808594 563.558594 C 1011.1875 559.460938 1008.222656 556.144531 1004.625 554.558594 C 1000.351562 552.675781 995.074219 552.878906 988.492188 555.183594 C 975.066406 559.890625 963.65625 569.949219 956.996094 582.503906 Z M 993.355469 618.335938 C 1003.933594 623.515625 1012.960938 632.007812 1018.777344 642.25 C 1022.183594 648.25 1023.796875 653.664062 1023.710938 658.804688 C 1023.605469 665.097656 1020.664062 670.765625 1016.03125 673.59375 C 1009.914062 677.328125 1002.328125 675.664062 997.265625 672.863281 C 991.425781 669.632812 986.996094 664.519531 982.710938 659.574219 L 969.09375 643.867188 C 969.15625 644.132812 969.214844 644.402344 969.277344 644.667969 L 982.417969 659.828125 C 986.523438 664.566406 991.179688 669.9375 997.078125 673.203125 C 1002.234375 676.058594 1009.976562 677.746094 1016.230469 673.925781 C 1020.976562 671.027344 1023.992188 665.234375 1024.101562 658.8125 C 1024.1875 653.601562 1022.558594 648.121094 1019.113281 642.058594 C 1013.261719 631.75 1004.175781 623.199219 993.527344 617.988281 C 989.25 615.894531 984.699219 614.332031 980.027344 613.320312 C 979.757812 613.394531 979.492188 613.476562 979.222656 613.546875 C 984.117188 614.546875 988.886719 616.148438 993.355469 618.335938 Z M 969.277344 644.667969 L 968.742188 644.054688 C 972.355469 659.800781 972.898438 678.800781 960.988281 692.53125 C 956.992188 697.136719 945.96875 701.722656 939.738281 700.28125 C 936.6875 699.574219 933.941406 697.433594 932.203125 694.410156 C 930.535156 691.515625 929.886719 688.152344 929.46875 685.246094 C 927.234375 669.675781 929.636719 652.542969 936.796875 633.078125 C 936.597656 633.242188 936.398438 633.40625 936.199219 633.570312 C 929.195312 652.839844 926.867188 669.832031 929.085938 685.300781 C 929.402344 687.515625 929.855469 689.996094 930.785156 692.34375 C 931.089844 693.117188 931.445312 693.875 931.867188 694.605469 C 933.65625 697.722656 936.496094 699.925781 939.648438 700.660156 C 945.996094 702.128906 957.21875 697.46875 961.28125 692.785156 C 973.113281 679.144531 972.761719 660.367188 969.277344 644.667969 Z M 920.820312 644.230469 C 914.40625 648.308594 905.859375 653.03125 896.667969 653.390625 L 896.390625 653.398438 C 890.050781 653.582031 884.230469 651.253906 880.003906 646.84375 C 875.640625 642.292969 873.5 636.136719 873.972656 629.511719 C 875.132812 613.234375 886.84375 608.402344 898.734375 604.847656 C 908.285156 601.992188 918.960938 602.695312 929.726562 604.644531 C 929.582031 604.488281 929.433594 604.332031 929.289062 604.171875 C 918.644531 602.285156 908.09375 601.640625 898.625 604.472656 C 886.601562 608.070312 874.761719 612.960938 873.582031 629.484375 C 873.320312 633.183594 873.859375 636.738281 875.132812 639.960938 C 876.175781 642.605469 877.71875 645.023438 879.722656 647.113281 C 884.023438 651.605469 889.949219 653.972656 896.402344 653.789062 L 896.683594 653.777344 C 905.96875 653.417969 914.570312 648.660156 921.03125 644.554688 C 926.3125 641.199219 931.375 637.527344 936.199219 633.570312 C 936.289062 633.332031 936.378906 633.089844 936.46875 632.847656 C 931.5 636.957031 926.277344 640.761719 920.820312 644.230469 Z M 908.832031 567 C 906.921875 560.28125 910.085938 550.503906 914.113281 545.296875 C 918.796875 539.25 927.746094 538.863281 933.789062 541.570312 C 939.375 544.074219 944.121094 549.023438 948.292969 556.703125 C 949.714844 559.3125 950.96875 561.996094 952.050781 564.742188 C 954.300781 570.429688 955.820312 576.371094 956.59375 582.433594 C 956.699219 582.234375 956.804688 582.039062 956.910156 581.839844 C 955.71875 572.996094 952.929688 564.417969 948.636719 556.519531 C 944.417969 548.761719 939.617188 543.757812 933.949219 541.21875 C 927.769531 538.449219 918.609375 538.855469 913.804688 545.0625 C 909.71875 550.339844 906.515625 560.269531 908.460938 567.105469 C 909.261719 569.925781 910.210938 572.710938 911.292969 575.453125 C 915.453125 585.972656 921.617188 595.808594 929.289062 604.171875 C 929.5 604.210938 929.714844 604.25 929.925781 604.289062 C 920.121094 593.71875 912.746094 580.746094 908.832031 567 Z M 908.832031 567 " fill-opacity="1" fill-rule="nonzero"/></g></g></g><g clip-path="url(#9a7c3e5f1e)"><g clip-path="url(#f1d449f2aa)"><g clip-path="url(#108419c923)"><path fill="#000000" d="M 945.886719 622.679688 C 938.070312 622.03125 930.722656 625.785156 923.621094 629.417969 L 922.558594 629.960938 C 915.402344 633.609375 907.800781 636.75 900.402344 635.492188 C 899.925781 636.792969 897.820312 637.214844 897.128906 635.550781 C 896.332031 633.410156 899.496094 632.152344 900.375 634.269531 C 900.484375 634.570312 900.515625 634.855469 900.488281 635.113281 C 907.773438 636.339844 915.292969 633.230469 922.378906 629.617188 L 923.445312 629.074219 C 930.59375 625.414062 937.992188 621.632812 945.917969 622.292969 C 946.027344 622.300781 946.105469 622.398438 946.097656 622.503906 C 946.085938 622.609375 945.992188 622.6875 945.886719 622.679688 Z M 976.355469 624.75 C 980.273438 628.6875 985.042969 631.832031 990.207031 633.894531 C 990.183594 634.148438 990.214844 634.421875 990.324219 634.71875 C 991.199219 636.832031 994.367188 635.574219 993.566406 633.433594 C 992.875 631.761719 990.757812 632.199219 990.289062 633.507812 C 985.199219 631.46875 980.496094 628.363281 976.632812 624.476562 C 976.3125 624.152344 975.996094 623.824219 975.679688 623.496094 C 974.507812 622.277344 973.300781 621.023438 971.855469 620.089844 C 969.738281 618.722656 967.378906 618.355469 965.539062 619.109375 C 965.441406 619.148438 965.394531 619.261719 965.433594 619.359375 C 965.476562 619.460938 965.589844 619.507812 965.6875 619.46875 C 967.410156 618.761719 969.636719 619.117188 971.644531 620.414062 C 973.050781 621.324219 974.242188 622.566406 975.398438 623.765625 C 975.714844 624.09375 976.035156 624.425781 976.355469 624.75 Z M 944.457031 613.253906 C 944.371094 613.195312 944.25 613.214844 944.1875 613.300781 C 943.324219 614.515625 941.738281 615.300781 939.839844 615.449219 C 938.402344 615.558594 936.929688 615.328125 935.507812 615.105469 C 935.253906 615.066406 935 615.027344 934.742188 614.988281 C 926.269531 613.722656 917.578125 614.535156 909.492188 617.335938 C 908.585938 615.296875 905.484375 616.546875 906.277344 618.667969 C 907.109375 620.679688 910 619.648438 909.609375 617.707031 C 917.636719 614.921875 926.269531 614.113281 934.6875 615.371094 C 934.941406 615.410156 935.195312 615.449219 935.449219 615.488281 C 936.894531 615.714844 938.386719 615.949219 939.871094 615.835938 C 941.882812 615.675781 943.570312 614.835938 944.503906 613.527344 C 944.566406 613.4375 944.542969 613.316406 944.457031 613.253906 Z M 946.917969 605.558594 C 946.949219 605.664062 947.058594 605.71875 947.160156 605.683594 C 947.261719 605.652344 947.320312 605.542969 947.285156 605.441406 C 945.910156 601.199219 942.761719 597.832031 939.722656 594.574219 C 937.027344 591.6875 934.253906 588.710938 932.746094 585.140625 C 933.523438 584.8125 934.089844 583.976562 933.699219 582.921875 C 932.820312 580.804688 929.65625 582.0625 930.457031 584.203125 C 930.835938 585.121094 931.644531 585.402344 932.375 585.257812 C 933.90625 588.902344 936.710938 591.914062 939.4375 594.839844 C 942.453125 598.066406 945.5625 601.402344 946.917969 605.558594 Z M 982.851562 643.082031 C 982.203125 643.46875 981.789062 644.238281 982.140625 645.179688 C 983.019531 647.292969 986.183594 646.035156 985.382812 643.894531 C 984.957031 642.867188 983.992188 642.636719 983.203125 642.917969 C 981.410156 639.214844 977.757812 636.683594 974.117188 634.398438 C 970.078125 631.863281 965.902344 629.242188 964.117188 624.953125 C 964.074219 624.855469 963.960938 624.808594 963.863281 624.847656 C 963.765625 624.890625 963.71875 625 963.757812 625.097656 L 963.757812 625.101562 C 965.59375 629.507812 970.011719 632.28125 973.910156 634.726562 C 977.5 636.980469 981.101562 639.472656 982.851562 643.082031 Z M 979.929688 599.1875 C 980.023438 599.421875 980.148438 599.609375 980.292969 599.761719 C 977.78125 602.863281 974.324219 605.101562 970.964844 607.273438 C 968.433594 608.910156 965.816406 610.601562 963.585938 612.664062 C 963.527344 612.71875 963.507812 612.804688 963.539062 612.875 C 963.546875 612.898438 963.558594 612.917969 963.574219 612.9375 C 963.648438 613.015625 963.769531 613.019531 963.851562 612.949219 C 966.054688 610.910156 968.65625 609.226562 971.175781 607.601562 C 974.554688 605.414062 978.039062 603.15625 980.585938 600.015625 C 981.816406 600.820312 983.828125 599.660156 983.171875 597.90625 C 982.292969 595.789062 979.128906 597.046875 979.929688 599.1875 Z M 944.839844 581.492188 C 945.121094 582.164062 945.632812 582.496094 946.171875 582.566406 C 946.347656 583.722656 946.820312 584.953125 947.605469 586.238281 C 948.085938 587.019531 948.636719 587.773438 949.167969 588.5 C 949.710938 589.238281 950.269531 590 950.75 590.789062 C 953.035156 594.558594 953.652344 599.328125 952.398438 603.554688 C 952.386719 603.597656 952.386719 603.640625 952.402344 603.679688 C 952.425781 603.734375 952.46875 603.777344 952.527344 603.796875 C 952.632812 603.824219 952.738281 603.765625 952.769531 603.664062 C 954.054688 599.335938 953.421875 594.449219 951.078125 590.589844 C 950.589844 589.785156 950.027344 589.015625 949.484375 588.269531 C 948.953125 587.550781 948.410156 586.804688 947.9375 586.035156 C 947.195312 584.816406 946.738281 583.660156 946.566406 582.570312 C 947.597656 582.472656 948.566406 581.5 948.082031 580.207031 C 947.203125 578.089844 944.039062 579.347656 944.839844 581.488281 Z M 977.117188 577.945312 C 977.210938 578.171875 977.335938 578.359375 977.472656 578.511719 C 974.042969 583.972656 970.011719 589.0625 965.472656 593.644531 C 965.195312 593.925781 964.914062 594.203125 964.632812 594.484375 C 963.234375 595.875 961.789062 597.3125 960.625 598.949219 C 959.507812 600.523438 958.195312 602.972656 958.285156 605.71875 C 958.285156 605.742188 958.289062 605.761719 958.296875 605.785156 C 958.324219 605.859375 958.398438 605.910156 958.484375 605.90625 C 958.589844 605.902344 958.675781 605.8125 958.671875 605.707031 C 958.585938 603.066406 959.859375 600.699219 960.941406 599.175781 C 962.085938 597.566406 963.519531 596.140625 964.90625 594.757812 C 965.1875 594.480469 965.46875 594.199219 965.746094 593.917969 C 970.296875 589.328125 974.332031 584.234375 977.773438 578.769531 C 979 579.582031 981.015625 578.421875 980.359375 576.664062 C 979.484375 574.546875 976.316406 575.804688 977.117188 577.945312 Z M 942.128906 657.328125 C 942.085938 657.21875 942.035156 657.125 941.980469 657.035156 C 944.617188 654.523438 946.414062 650.640625 947.445312 645.21875 C 947.667969 644.035156 947.863281 642.820312 948.050781 641.644531 C 948.621094 638.0625 949.214844 634.355469 950.777344 631.050781 C 950.824219 630.957031 950.78125 630.839844 950.6875 630.792969 C 950.589844 630.746094 950.472656 630.789062 950.425781 630.886719 C 948.839844 634.238281 948.242188 637.972656 947.667969 641.585938 C 947.480469 642.757812 947.285156 643.96875 947.0625 645.144531 C 946.050781 650.464844 944.304688 654.269531 941.742188 656.726562 C 940.570312 655.515625 938.179688 656.71875 938.886719 658.609375 C 939.765625 660.726562 942.929688 659.46875 942.128906 657.328125 Z M 961.558594 658.53125 C 961.304688 657.925781 960.867188 657.597656 960.390625 657.484375 C 961.210938 654.992188 961.96875 652.433594 962.289062 649.800781 C 962.734375 646.15625 962.230469 642.851562 960.828125 640.238281 C 960.449219 639.53125 959.996094 638.855469 959.558594 638.203125 C 959.09375 637.511719 958.609375 636.792969 958.222656 636.042969 C 957.71875 635.058594 956.980469 633.160156 957.71875 631.449219 C 957.761719 631.351562 957.714844 631.238281 957.617188 631.195312 C 957.519531 631.152344 957.402344 631.199219 957.359375 631.296875 C 956.5625 633.152344 957.339844 635.175781 957.878906 636.21875 C 958.277344 636.988281 958.765625 637.71875 959.238281 638.421875 C 959.671875 639.066406 960.117188 639.730469 960.488281 640.421875 C 961.847656 642.960938 962.339844 646.1875 961.90625 649.753906 C 961.585938 652.378906 960.820312 654.941406 959.996094 657.441406 C 958.90625 657.445312 957.804688 658.449219 958.3125 659.8125 C 959.191406 661.929688 962.355469 660.667969 961.558594 658.53125 Z M 961.558594 658.53125 " fill-opacity="1" fill-rule="nonzero"/></g></g></g><g clip-path="url(#837036ed10)"><g clip-path="url(#e9d499f1a0)"><g clip-path="url(#6bce849bf3)"><path fill="#f29ca5" d="M 965.273438 618.90625 C 965.320312 616.0625 963.488281 611.25 961.019531 608.359375 C 958.550781 605.472656 954.832031 603.648438 951.253906 604.152344 C 947.675781 604.65625 944.480469 607.773438 944.21875 611.601562 C 944.054688 613.925781 944.902344 616.207031 945.351562 618.503906 C 946.035156 622.003906 945.910156 625.917969 948.058594 628.707031 C 949.914062 631.113281 953.167969 632.007812 955.957031 631.296875 C 958.75 630.589844 961.0625 628.46875 962.578125 625.90625 C 964.09375 623.339844 965.246094 620.78125 965.273438 618.90625 Z M 965.273438 618.90625 " fill-opacity="1" fill-rule="nonzero"/></g></g></g><g clip-path="url(#0c9cc260b8)"><g clip-path="url(#626c674371)"><g clip-path="url(#fe4dcfb458)"><path fill="#000000" d="M 946.734375 626.71875 C 946.074219 625.046875 945.828125 623.175781 945.589844 621.347656 C 945.46875 620.417969 945.34375 619.453125 945.164062 618.539062 C 945.039062 617.894531 944.878906 617.238281 944.722656 616.605469 C 944.324219 614.972656 943.910156 613.285156 944.027344 611.589844 C 944.289062 607.78125 947.386719 604.503906 951.226562 603.964844 C 954.6875 603.476562 958.496094 605.113281 961.164062 608.234375 C 963.542969 611.015625 965.511719 615.90625 965.464844 618.910156 C 965.441406 620.605469 964.523438 622.992188 962.746094 626.003906 C 961.078125 628.820312 958.625 630.816406 956.007812 631.484375 C 952.980469 632.253906 949.726562 631.183594 947.90625 628.824219 C 947.410156 628.175781 947.03125 627.46875 946.734375 626.71875 Z M 963.929688 613.769531 C 963.160156 611.820312 962.070312 609.882812 960.875 608.484375 C 958.289062 605.460938 954.613281 603.871094 951.28125 604.34375 C 947.671875 604.851562 944.65625 608.042969 944.40625 611.613281 C 944.292969 613.253906 944.699219 614.910156 945.09375 616.515625 C 945.25 617.152344 945.410156 617.8125 945.539062 618.46875 C 945.71875 619.394531 945.847656 620.359375 945.96875 621.296875 C 946.308594 623.890625 946.65625 626.574219 948.210938 628.589844 C 949.9375 630.832031 953.03125 631.84375 955.910156 631.113281 C 958.429688 630.472656 960.800781 628.539062 962.414062 625.808594 C 964.160156 622.855469 965.058594 620.53125 965.082031 618.902344 C 965.105469 617.480469 964.660156 615.617188 963.929688 613.769531 Z M 963.929688 613.769531 " fill-opacity="1" fill-rule="nonzero"/></g></g></g></svg>