<svg xmlns="http://www.w3.org/2000/svg" xmlns:xlink="http://www.w3.org/1999/xlink" width="1920" zoomAndPan="magnify" viewBox="0 0 1440 809.999993" height="1080" preserveAspectRatio="xMidYMid meet" version="1.0"><defs><clipPath id="0d0a0d969a"><path d="M 813 605.273438 L 856 605.273438 L 856 635 L 813 635 Z M 813 605.273438 " clip-rule="nonzero"/></clipPath><clipPath id="3703161cf9"><path d="M 855 605.273438 L 902 605.273438 L 902 635 L 855 635 Z M 855 605.273438 " clip-rule="nonzero"/></clipPath><clipPath id="dd102a8b14"><path d="M 736.3125 680 L 763 680 L 763 728 L 736.3125 728 Z M 736.3125 680 " clip-rule="nonzero"/></clipPath><clipPath id="810b426d8b"><path d="M 948 680.824219 L 978.484375 680.824219 L 978.484375 727.9375 L 948 727.9375 Z M 948 680.824219 " clip-rule="nonzero"/></clipPath><clipPath id="f18727b888"><path d="M 389 503 L 615 503 L 615 729 L 389 729 Z M 389 503 " clip-rule="nonzero"/></clipPath><clipPath id="2a5d550c40"><path d="M 364.433594 505.417969 L 611.957031 478.335938 L 639.039062 725.859375 L 391.515625 752.941406 Z M 364.433594 505.417969 " clip-rule="nonzero"/></clipPath><clipPath id="ae76bcf909"><path d="M 364.433594 505.417969 L 611.957031 478.335938 L 639.039062 725.859375 L 391.515625 752.941406 Z M 364.433594 505.417969 " clip-rule="nonzero"/></clipPath><clipPath id="9546f0df43"><path d="M 409 523 L 594 523 L 594 708 L 409 708 Z M 409 523 " clip-rule="nonzero"/></clipPath><clipPath id="158608cb1b"><path d="M 364.433594 505.417969 L 611.957031 478.335938 L 639.039062 725.859375 L 391.515625 752.941406 Z M 364.433594 505.417969 " clip-rule="nonzero"/></clipPath><clipPath id="48c3262745"><path d="M 364.433594 505.417969 L 611.957031 478.335938 L 639.039062 725.859375 L 391.515625 752.941406 Z M 364.433594 505.417969 " clip-rule="nonzero"/></clipPath><clipPath id="ea61fed105"><path d="M 458 572 L 546 572 L 546 660 L 458 660 Z M 458 572 " clip-rule="nonzero"/></clipPath><clipPath id="3d4bc82196"><path d="M 364.433594 505.417969 L 611.957031 478.335938 L 639.039062 725.859375 L 391.515625 752.941406 Z M 364.433594 505.417969 " clip-rule="nonzero"/></clipPath><clipPath id="ec13a0fd5e"><path d="M 364.433594 505.417969 L 611.957031 478.335938 L 639.039062 725.859375 L 391.515625 752.941406 Z M 364.433594 505.417969 " clip-rule="nonzero"/></clipPath><clipPath id="fdab061dc2"><path d="M 481 606 L 492 606 L 492 617 L 481 617 Z M 481 606 " clip-rule="nonzero"/></clipPath><clipPath id="3824003396"><path d="M 364.433594 505.417969 L 611.957031 478.335938 L 639.039062 725.859375 L 391.515625 752.941406 Z M 364.433594 505.417969 " clip-rule="nonzero"/></clipPath><clipPath id="8cc7401e87"><path d="M 364.433594 505.417969 L 611.957031 478.335938 L 639.039062 725.859375 L 391.515625 752.941406 Z M 364.433594 505.417969 " clip-rule="nonzero"/></clipPath><clipPath id="be0fdd0293"><path d="M 511 603 L 521 603 L 521 614 L 511 614 Z M 511 603 " clip-rule="nonzero"/></clipPath><clipPath id="51f7e2feda"><path d="M 364.433594 505.417969 L 611.957031 478.335938 L 639.039062 725.859375 L 391.515625 752.941406 Z M 364.433594 505.417969 " clip-rule="nonzero"/></clipPath><clipPath id="922723d1eb"><path d="M 364.433594 505.417969 L 611.957031 478.335938 L 639.039062 725.859375 L 391.515625 752.941406 Z M 364.433594 505.417969 " clip-rule="nonzero"/></clipPath><clipPath id="85ba74547c"><path d="M 490 623 L 517 623 L 517 635 L 490 635 Z M 490 623 " clip-rule="nonzero"/></clipPath><clipPath id="42d291afc3"><path d="M 364.433594 505.417969 L 611.957031 478.335938 L 639.039062 725.859375 L 391.515625 752.941406 Z M 364.433594 505.417969 " clip-rule="nonzero"/></clipPath><clipPath id="6236dee9ff"><path d="M 364.433594 505.417969 L 611.957031 478.335938 L 639.039062 725.859375 L 391.515625 752.941406 Z M 364.433594 505.417969 " clip-rule="nonzero"/></clipPath><clipPath id="eacdd820dd"><path d="M 834.546875 0 L 1063.292969 0 L 1063.292969 206.898438 L 834.546875 206.898438 Z M 834.546875 0 " clip-rule="nonzero"/></clipPath><clipPath id="ae80ed5287"><path d="M 585.691406 62.132812 L 622.632812 62.132812 L 622.632812 101.199219 L 585.691406 101.199219 Z M 585.691406 62.132812 " clip-rule="nonzero"/></clipPath><clipPath id="5934f08619"><path d="M 599 28.222656 L 638.796875 28.222656 L 638.796875 64.382812 L 599 64.382812 Z M 599 28.222656 " clip-rule="nonzero"/></clipPath><clipPath id="51411e9186"><path d="M 438.050781 130.445312 L 543.738281 130.445312 L 543.738281 228.496094 L 438.050781 228.496094 Z M 438.050781 130.445312 " clip-rule="nonzero"/></clipPath><clipPath id="a215cf5250"><path d="M 631 726 L 730 726 L 730 810 L 631 810 Z M 631 726 " clip-rule="nonzero"/></clipPath><clipPath id="8c9656bc7e"><path d="M 602.78125 663.585938 L 692.984375 638.035156 L 744.699219 820.601562 L 654.496094 846.152344 Z M 602.78125 663.585938 " clip-rule="nonzero"/></clipPath><clipPath id="32b7d00948"><path d="M 602.78125 663.585938 L 692.984375 638.035156 L 744.699219 820.601562 L 654.496094 846.152344 Z M 602.78125 663.585938 " clip-rule="nonzero"/></clipPath><clipPath id="d90aa834e2"><path d="M 624.738281 741.097656 L 714.832031 715.574219 L 744.585938 820.617188 L 654.492188 846.140625 Z M 624.738281 741.097656 " clip-rule="nonzero"/></clipPath><clipPath id="14262d591e"><path d="M 624.738281 741.097656 L 714.832031 715.574219 L 744.558594 820.511719 L 654.464844 846.03125 Z M 624.738281 741.097656 " clip-rule="nonzero"/></clipPath><clipPath id="ee5e9a1fc5"><path d="M 698 727 L 721 727 L 721 761 L 698 761 Z M 698 727 " clip-rule="nonzero"/></clipPath><clipPath id="d40f8f50e3"><path d="M 602.78125 663.585938 L 692.984375 638.035156 L 744.699219 820.601562 L 654.496094 846.152344 Z M 602.78125 663.585938 " clip-rule="nonzero"/></clipPath><clipPath id="19e345af0e"><path d="M 602.78125 663.585938 L 692.984375 638.035156 L 744.699219 820.601562 L 654.496094 846.152344 Z M 602.78125 663.585938 " clip-rule="nonzero"/></clipPath><clipPath id="307e3bb665"><path d="M 691.859375 733.660156 L 718.136719 726.21875 L 726.257812 754.890625 L 699.980469 762.335938 Z M 691.859375 733.660156 " clip-rule="nonzero"/></clipPath><clipPath id="4d82ac1d2a"><path d="M 691.859375 733.660156 L 717.964844 726.265625 L 726.085938 754.941406 L 699.980469 762.335938 Z M 691.859375 733.660156 " clip-rule="nonzero"/></clipPath><clipPath id="2858865b61"><path d="M 681 715 L 707 715 L 707 758 L 681 758 Z M 681 715 " clip-rule="nonzero"/></clipPath><clipPath id="a2d235ffe6"><path d="M 602.78125 663.585938 L 692.984375 638.035156 L 744.699219 820.601562 L 654.496094 846.152344 Z M 602.78125 663.585938 " clip-rule="nonzero"/></clipPath><clipPath id="9a8f0ad69a"><path d="M 602.78125 663.585938 L 692.984375 638.035156 L 744.699219 820.601562 L 654.496094 846.152344 Z M 602.78125 663.585938 " clip-rule="nonzero"/></clipPath><clipPath id="0f2e5a3e1b"><path d="M 618 647 L 692 647 L 692 741 L 618 741 Z M 618 647 " clip-rule="nonzero"/></clipPath><clipPath id="13de90b0d9"><path d="M 602.78125 663.585938 L 692.984375 638.035156 L 744.699219 820.601562 L 654.496094 846.152344 Z M 602.78125 663.585938 " clip-rule="nonzero"/></clipPath><clipPath id="93f0739538"><path d="M 602.78125 663.585938 L 692.984375 638.035156 L 744.699219 820.601562 L 654.496094 846.152344 Z M 602.78125 663.585938 " clip-rule="nonzero"/></clipPath><clipPath id="a6c4b3144c"><path d="M 906 438 L 1063 438 L 1063 594.261719 L 906 594.261719 Z M 906 438 " clip-rule="nonzero"/></clipPath><clipPath id="6ca1558198"><path d="M 462.011719 37.503906 L 501.761719 37.503906 L 501.761719 77.253906 L 462.011719 77.253906 Z M 462.011719 37.503906 " clip-rule="nonzero"/></clipPath><clipPath id="f8a4200b1c"><path d="M 971.613281 324.828125 L 997.863281 324.828125 L 997.863281 351.078125 L 971.613281 351.078125 Z M 971.613281 324.828125 " clip-rule="nonzero"/></clipPath><clipPath id="6da0547cef"><path d="M 919.4375 256.347656 L 971.9375 256.347656 L 971.9375 308.847656 L 919.4375 308.847656 Z M 919.4375 256.347656 " clip-rule="nonzero"/></clipPath><clipPath id="1e7489e5a4"><path d="M 467.496094 350.914062 L 513.996094 350.914062 L 513.996094 404.914062 L 467.496094 404.914062 Z M 467.496094 350.914062 " clip-rule="nonzero"/></clipPath></defs><rect x="-144" width="1728" fill="#ffffff" y="-80.999999" height="971.999992" fill-opacity="1"/><rect x="-144" width="1728" fill="#ffffff" y="-80.999999" height="971.999992" fill-opacity="1"/><rect x="-144" width="1728" fill="#f7c8d4" y="-80.999999" height="971.999992" fill-opacity="1"/><path fill="#f0415a" d="M 762.679688 664.480469 C 755.144531 668.253906 748.75 673.976562 744.15625 680.988281 L 762.679688 680.988281 L 762.679688 664.480469 " fill-opacity="1" fill-rule="nonzero"/><path fill="#f0415a" d="M 762.679688 749.597656 L 762.679688 727.859375 L 741.175781 727.859375 C 745.757812 737.265625 753.34375 744.921875 762.679688 749.597656 " fill-opacity="1" fill-rule="nonzero"/><path fill="#f0415a" d="M 809.699219 727.859375 L 809.699219 772.691406 L 855.964844 772.691406 L 855.964844 727.859375 L 809.699219 727.859375 " fill-opacity="1" fill-rule="nonzero"/><path fill="#f0415a" d="M 855.964844 680.992188 L 855.964844 634.800781 L 813.617188 634.800781 C 809.300781 644.984375 808.480469 656.707031 812.160156 668.058594 C 812.277344 668.414062 812.410156 668.761719 812.535156 669.113281 C 811.558594 668.375 810.554688 667.671875 809.519531 667.003906 L 809.519531 680.992188 L 855.964844 680.992188 " fill-opacity="1" fill-rule="nonzero"/><path fill="#f686bb" d="M 809.695312 772.691406 L 809.695312 727.859375 L 762.683594 727.859375 L 762.683594 749.597656 C 769.066406 752.792969 776.261719 754.601562 783.882812 754.601562 C 784.257812 754.601562 784.628906 754.582031 785.003906 754.574219 C 778.523438 759.089844 773.128906 765.25 769.503906 772.691406 L 809.695312 772.691406 " fill-opacity="1" fill-rule="nonzero"/><path fill="#f686bb" d="M 763.582031 680.992188 L 809.519531 680.992188 L 809.519531 667.003906 C 802.125 662.246094 793.324219 659.476562 783.882812 659.476562 C 776.261719 659.476562 769.066406 661.285156 762.683594 664.480469 L 762.683594 680.992188 L 763.582031 680.992188 " fill-opacity="1" fill-rule="nonzero"/><path fill="#f686bb" d="M 856.5 727.859375 L 855.964844 727.859375 L 855.964844 772.691406 L 901.261719 772.691406 L 901.261719 727.859375 L 856.5 727.859375 " fill-opacity="1" fill-rule="nonzero"/><path fill="#f686bb" d="M 855.964844 634.800781 L 855.964844 680.992188 L 901.261719 680.992188 L 901.261719 635.339844 C 901.191406 635.160156 901.117188 634.980469 901.042969 634.800781 L 855.964844 634.800781 " fill-opacity="1" fill-rule="nonzero"/><path fill="#f686bb" d="M 948.203125 751.0625 C 951.925781 749.613281 955.527344 747.667969 958.914062 745.207031 C 965.34375 740.527344 970.246094 734.53125 973.542969 727.859375 L 948.203125 727.859375 L 948.203125 751.0625 " fill-opacity="1" fill-rule="nonzero"/><path fill="#f686bb" d="M 969.417969 678.769531 C 963.855469 671.097656 956.421875 665.59375 948.203125 662.40625 L 948.203125 680.992188 L 970.929688 680.992188 C 970.449219 680.242188 969.949219 679.5 969.417969 678.769531 " fill-opacity="1" fill-rule="nonzero"/><g clip-path="url(#0d0a0d969a)"><path fill="#f686bb" d="M 855.964844 605.816406 C 851.546875 605.945312 847.070312 606.6875 842.652344 608.125 C 829.039062 612.554688 818.800781 622.5625 813.617188 634.800781 L 855.964844 634.800781 L 855.964844 605.816406 " fill-opacity="1" fill-rule="nonzero"/></g><g clip-path="url(#3703161cf9)"><path fill="#f0415a" d="M 856.5 634.800781 L 901.042969 634.800781 C 893.324219 616.507812 875.179688 605.257812 855.964844 605.816406 L 855.964844 634.800781 L 856.5 634.800781 " fill-opacity="1" fill-rule="nonzero"/></g><g clip-path="url(#dd102a8b14)"><path fill="#f686bb" d="M 762.679688 680.988281 L 744.15625 680.988281 C 739.253906 688.472656 736.390625 697.417969 736.390625 707.039062 C 736.390625 714.507812 738.113281 721.570312 741.175781 727.859375 L 762.679688 727.859375 L 762.679688 680.988281 " fill-opacity="1" fill-rule="nonzero"/></g><path fill="#f686bb" d="M 809.480469 727.859375 L 855.964844 727.859375 L 855.964844 680.992188 L 809.480469 680.992188 L 809.480469 727.859375 " fill-opacity="1" fill-rule="nonzero"/><path fill="#f0415a" d="M 809.480469 727.859375 L 809.480469 680.992188 L 762.683594 680.992188 L 762.683594 727.859375 L 809.480469 727.859375 " fill-opacity="1" fill-rule="nonzero"/><path fill="#f0415a" d="M 901.261719 727.859375 L 901.261719 680.992188 L 855.964844 680.992188 L 855.964844 727.859375 L 901.261719 727.859375 " fill-opacity="1" fill-rule="nonzero"/><g clip-path="url(#810b426d8b)"><path fill="#f0415a" d="M 948.203125 727.859375 L 973.542969 727.859375 C 980.75 713.269531 980.234375 695.441406 970.929688 680.992188 L 948.058594 680.992188 L 948.058594 727.859375 L 948.203125 727.859375 " fill-opacity="1" fill-rule="nonzero"/></g><path fill="#f686bb" d="M 809.699219 772.691406 L 809.699219 819.558594 L 851.945312 819.558594 C 853.496094 817.175781 854.84375 814.625 855.964844 811.921875 L 855.964844 772.691406 L 809.699219 772.691406 " fill-opacity="1" fill-rule="nonzero"/><path fill="#f0415a" d="M 809.695312 772.691406 L 769.503906 772.691406 C 768.539062 774.671875 767.695312 776.734375 766.996094 778.886719 C 762.382812 793.113281 764.828125 807.933594 772.386719 819.558594 L 809.699219 819.558594 L 809.699219 772.691406 L 809.695312 772.691406 " fill-opacity="1" fill-rule="nonzero"/><path fill="#f0415a" d="M 856.5 772.691406 L 855.964844 772.691406 L 855.964844 811.921875 C 856.144531 811.492188 856.332031 811.066406 856.5 810.625 C 856.792969 809.855469 857.070312 809.074219 857.328125 808.28125 C 857.445312 807.925781 857.539062 807.566406 857.644531 807.207031 C 858.957031 811.546875 860.898438 815.710938 863.425781 819.558594 L 901.261719 819.558594 L 901.261719 772.691406 L 856.5 772.691406 " fill-opacity="1" fill-rule="nonzero"/><path fill="#f0415a" d="M 948.058594 808.699219 C 951.457031 798.699219 951.359375 787.941406 948.058594 778.148438 L 948.058594 808.699219 " fill-opacity="1" fill-rule="nonzero"/><path fill="#f0415a" d="M 902.765625 680.992188 L 948.058594 680.992188 L 948.058594 662.347656 C 933.546875 656.769531 916.597656 658.417969 903.085938 668.25 C 902.78125 668.472656 902.492188 668.703125 902.195312 668.933594 C 905.476562 659.476562 905.820312 648.914062 902.492188 638.660156 C 902.125 637.527344 901.707031 636.425781 901.261719 635.339844 L 901.261719 680.992188 L 902.765625 680.992188 " fill-opacity="1" fill-rule="nonzero"/><path fill="#f0415a" d="M 901.261719 727.859375 L 901.261719 772.691406 L 945.847656 772.691406 C 942.550781 765.847656 937.566406 759.691406 931 754.914062 C 930.695312 754.691406 930.382812 754.488281 930.074219 754.277344 C 936.136719 754.398438 942.246094 753.359375 948.058594 751.117188 L 948.058594 727.859375 L 901.261719 727.859375 " fill-opacity="1" fill-rule="nonzero"/><path fill="#f686bb" d="M 901.261719 680.992188 L 901.261719 727.859375 L 948.058594 727.859375 L 948.058594 680.992188 L 901.261719 680.992188 " fill-opacity="1" fill-rule="nonzero"/><path fill="#f686bb" d="M 945.847656 772.691406 L 901.261719 772.691406 L 901.261719 819.558594 L 942.734375 819.558594 C 945.011719 816.109375 946.785156 812.460938 948.058594 808.699219 L 948.058594 778.148438 C 947.433594 776.292969 946.703125 774.46875 945.847656 772.691406 " fill-opacity="1" fill-rule="nonzero"/><path fill="#f4f4f4" d="M 892.664062 727.398438 C 892.664062 747.710938 876.222656 764.179688 855.9375 764.179688 C 835.65625 764.179688 819.214844 747.710938 819.214844 727.398438 C 819.214844 707.085938 835.65625 690.621094 855.9375 690.621094 C 876.222656 690.621094 892.664062 707.085938 892.664062 727.398438 " fill-opacity="1" fill-rule="nonzero"/><g clip-path="url(#f18727b888)"><g clip-path="url(#2a5d550c40)"><g clip-path="url(#ae76bcf909)"><path fill="#eeed88" d="M 525.480469 534.316406 C 510.769531 489.410156 465.660156 494.34375 461.011719 541.371094 C 418.867188 520.019531 390.457031 555.410156 420.367188 591.949219 C 375.507812 606.652344 380.441406 651.761719 427.46875 656.410156 C 406.113281 698.507812 441.507812 726.964844 478.039062 697.007812 C 492.746094 741.867188 537.851562 736.933594 542.507812 689.953125 C 584.601562 711.261719 613.058594 675.867188 583.105469 639.382812 C 627.964844 624.675781 623.023438 579.519531 576.050781 574.914062 C 597.355469 532.773438 561.964844 504.363281 525.480469 534.316406 Z M 525.480469 534.316406 " fill-opacity="1" fill-rule="evenodd"/></g></g></g><g clip-path="url(#9546f0df43)"><g clip-path="url(#158608cb1b)"><g clip-path="url(#48c3262745)"><path fill="#fcbc79" d="M 516.839844 563.828125 C 510.257812 507.222656 469.964844 511.628906 475.78125 568.320312 C 431.085938 532.917969 405.691406 564.554688 449.921875 600.535156 C 393.316406 607.117188 397.722656 647.410156 454.414062 641.59375 C 419.011719 686.289062 450.644531 711.683594 486.628906 667.453125 C 493.214844 724.109375 533.507812 719.699219 527.6875 662.960938 C 572.382812 698.363281 597.777344 666.730469 553.546875 630.746094 C 610.203125 624.160156 605.792969 583.867188 549.054688 589.691406 C 584.457031 544.992188 552.820312 519.597656 516.839844 563.828125 Z M 516.839844 563.828125 " fill-opacity="1" fill-rule="evenodd"/></g></g></g><g clip-path="url(#ea61fed105)"><g clip-path="url(#3d4bc82196)"><g clip-path="url(#ec13a0fd5e)"><path fill="#f78d1e" d="M 506.488281 658.863281 C 530.28125 656.261719 547.566406 634.730469 544.960938 610.933594 C 542.351562 587.09375 520.824219 569.808594 497.027344 572.414062 C 473.234375 575.015625 455.902344 596.550781 458.511719 620.394531 C 461.113281 644.1875 482.695312 661.46875 506.488281 658.863281 Z M 506.488281 658.863281 " fill-opacity="1" fill-rule="evenodd"/></g></g></g><g clip-path="url(#fdab061dc2)"><g clip-path="url(#3824003396)"><g clip-path="url(#8cc7401e87)"><path fill="#f0415a" d="M 486.726562 616.292969 C 489.347656 616.007812 491.300781 613.574219 491.011719 610.902344 C 490.71875 608.234375 488.285156 606.28125 485.660156 606.566406 C 482.992188 606.859375 481.039062 609.292969 481.328125 611.960938 C 481.621094 614.632812 484.054688 616.585938 486.726562 616.292969 Z M 486.726562 616.292969 " fill-opacity="1" fill-rule="evenodd"/></g></g></g><g clip-path="url(#be0fdd0293)"><g clip-path="url(#51f7e2feda)"><g clip-path="url(#922723d1eb)"><path fill="#f0415a" d="M 516.574219 613.027344 C 519.246094 612.734375 521.152344 610.308594 520.859375 607.636719 C 520.566406 604.96875 518.183594 603.007812 515.511719 603.300781 C 512.839844 603.59375 510.886719 606.027344 511.179688 608.695312 C 511.472656 611.367188 513.90625 613.320312 516.574219 613.027344 Z M 516.574219 613.027344 " fill-opacity="1" fill-rule="evenodd"/></g></g></g><g clip-path="url(#85ba74547c)"><g clip-path="url(#42d291afc3)"><g clip-path="url(#6236dee9ff)"><path fill="#f0415a" d="M 490.433594 626.792969 C 490.257812 626.523438 490.359375 626.125 490.636719 626 C 490.953125 625.820312 491.300781 625.925781 491.476562 626.199219 C 492.742188 628.519531 494.679688 630.335938 496.929688 631.488281 C 499.179688 632.640625 501.742188 633.132812 504.363281 632.847656 C 506.988281 632.558594 509.382812 631.527344 511.328125 629.914062 C 513.277344 628.300781 514.773438 626.109375 515.507812 623.566406 C 515.621094 623.265625 515.9375 623.085938 516.242188 623.199219 C 516.585938 623.257812 516.769531 623.625 516.65625 623.925781 C 515.847656 626.667969 514.230469 629.0625 512.105469 630.839844 C 509.980469 632.570312 507.355469 633.726562 504.496094 634.039062 C 501.632812 634.351562 498.820312 633.789062 496.371094 632.5625 C 493.914062 631.285156 491.816406 629.296875 490.433594 626.792969 Z M 490.433594 626.792969 " fill-opacity="1" fill-rule="nonzero"/></g></g></g><g clip-path="url(#eacdd820dd)"><path fill="#f38694" d="M 968.546875 90.847656 C 965.589844 96.035156 964.191406 101.765625 964.171875 107.648438 C 961.351562 106.113281 958.316406 104.96875 955.089844 104.300781 C 949.242188 103.085938 943.363281 103.527344 937.765625 105.328125 C 938.351562 102.167969 938.503906 98.929688 938.140625 95.648438 C 937.488281 89.714844 935.25 84.257812 931.808594 79.484375 C 934.992188 79.066406 938.121094 78.210938 941.125 76.851562 C 946.585938 74.386719 951.074219 70.535156 954.550781 65.765625 C 955.9375 68.683594 957.6875 71.429688 959.917969 73.882812 C 963.949219 78.316406 968.996094 81.398438 974.605469 83.230469 C 972.257812 85.449219 970.191406 87.964844 968.546875 90.847656 Z M 1034.085938 80.925781 C 1029.210938 78.140625 1024.167969 76.097656 1019.128906 74.714844 C 1021.5 73.074219 1023.824219 71.289062 1026.042969 69.269531 C 1047.289062 49.929688 1052.136719 20.636719 1036.863281 3.84375 C 1021.589844 -12.953125 991.988281 -10.886719 970.738281 8.453125 C 966.589844 12.234375 963.085938 16.398438 960.214844 20.769531 C 959.390625 18.003906 958.410156 15.238281 957.175781 12.507812 C 945.359375 -13.6875 919.011719 -27.351562 898.324219 -18.007812 C 877.644531 -8.667969 870.457031 20.140625 882.277344 46.335938 C 884.574219 51.433594 887.429688 56.046875 890.683594 60.121094 C 887.816406 60.054688 884.898438 60.167969 881.9375 60.492188 C 853.386719 63.644531 832.253906 84.496094 834.746094 107.0625 C 837.234375 129.628906 862.394531 145.371094 890.949219 142.21875 C 896.503906 141.605469 901.773438 140.316406 906.648438 138.476562 C 905.703125 141.183594 904.90625 144 904.300781 146.917969 C 898.472656 175.058594 911.765625 201.605469 933.984375 206.214844 C 956.207031 210.820312 978.945312 191.738281 984.773438 163.59375 C 985.90625 158.121094 986.308594 152.707031 986.070312 147.5 C 988.347656 149.238281 990.777344 150.863281 993.363281 152.339844 C 1018.316406 166.582031 1047.65625 162.140625 1058.902344 142.417969 C 1070.148438 122.699219 1059.039062 95.167969 1034.085938 80.925781 " fill-opacity="1" fill-rule="nonzero"/></g><path fill="#f8c695" d="M 948.085938 25.3125 C 956.136719 44.234375 951.042969 64.523438 936.714844 70.625 C 922.386719 76.726562 904.246094 66.332031 896.195312 47.40625 C 888.144531 28.484375 893.234375 8.199219 907.5625 2.097656 C 921.894531 -4.007812 940.035156 6.390625 948.085938 25.3125 " fill-opacity="1" fill-rule="nonzero"/><path fill="#f8c695" d="M 891.515625 73.289062 C 911.992188 71.476562 929.703125 82.585938 931.074219 98.105469 C 932.449219 113.625 916.960938 127.675781 896.484375 129.488281 C 876.007812 131.300781 858.296875 120.191406 856.925781 104.667969 C 855.554688 89.148438 871.039062 75.097656 891.515625 73.289062 " fill-opacity="1" fill-rule="nonzero"/><path fill="#f8c695" d="M 919.636719 141.941406 C 924.242188 121.894531 940.277344 108.476562 955.457031 111.96875 C 970.632812 115.457031 979.203125 134.535156 974.597656 154.578125 C 969.996094 174.621094 953.957031 188.042969 938.78125 184.550781 C 923.605469 181.0625 915.035156 161.984375 919.636719 141.941406 " fill-opacity="1" fill-rule="nonzero"/><path fill="#f8c695" d="M 993.589844 136.394531 C 975.957031 125.820312 968.15625 106.414062 976.164062 93.050781 C 984.171875 79.6875 1004.957031 77.429688 1022.585938 88.003906 C 1040.21875 98.578125 1048.015625 117.984375 1040.011719 131.347656 C 1032.003906 144.710938 1011.21875 146.96875 993.589844 136.394531 " fill-opacity="1" fill-rule="nonzero"/><path fill="#f8c695" d="M 1011.167969 64.316406 C 995.667969 77.824219 974.8125 79.25 964.582031 67.5 C 954.355469 55.75 958.628906 35.277344 974.128906 21.769531 C 989.632812 8.261719 1010.488281 6.835938 1020.714844 18.585938 C 1030.945312 30.332031 1026.671875 50.808594 1011.167969 64.316406 " fill-opacity="1" fill-rule="nonzero"/><path fill="#f0415a" d="M 936.933594 89.117188 C 939.542969 100.539062 927.78125 112.972656 910.65625 116.890625 C 893.539062 120.808594 877.539062 114.730469 874.929688 103.308594 C 872.316406 91.886719 884.078125 79.453125 901.203125 75.535156 C 918.324219 71.613281 934.320312 77.695312 936.933594 89.117188 " fill-opacity="1" fill-rule="nonzero"/><path fill="#f0415a" d="M 952.246094 101.609375 C 963.90625 102.652344 972.09375 117.6875 970.527344 135.191406 C 968.960938 152.695312 958.238281 166.039062 946.574219 164.996094 C 934.910156 163.949219 926.726562 148.914062 928.292969 131.410156 C 929.859375 113.90625 940.582031 100.5625 952.246094 101.609375 " fill-opacity="1" fill-rule="nonzero"/><path fill="#f0415a" d="M 968.851562 90.898438 C 973.449219 80.125 990.269531 76.980469 1006.425781 83.878906 C 1022.578125 90.777344 1031.949219 105.105469 1027.351562 115.878906 C 1022.753906 126.65625 1005.933594 129.796875 989.777344 122.902344 C 973.625 116 964.253906 101.675781 968.851562 90.898438 " fill-opacity="1" fill-rule="nonzero"/><path fill="#f0415a" d="M 963.804688 71.785156 C 954.980469 64.085938 957.191406 47.105469 968.742188 33.867188 C 980.289062 20.625 996.804688 16.136719 1005.625 23.84375 C 1014.449219 31.546875 1012.238281 48.523438 1000.6875 61.761719 C 989.136719 75.003906 972.625 79.492188 963.804688 71.785156 " fill-opacity="1" fill-rule="nonzero"/><path fill="#f0415a" d="M 944.074219 70.6875 C 934.027344 76.699219 918.570312 69.351562 909.554688 54.265625 C 900.539062 39.1875 901.375 22.085938 911.421875 16.074219 C 921.472656 10.058594 936.929688 17.410156 945.945312 32.488281 C 954.960938 47.570312 954.125 64.671875 944.074219 70.6875 " fill-opacity="1" fill-rule="nonzero"/><path fill="#f7db86" d="M 980.351562 87.851562 C 980.351562 103.464844 967.699219 116.121094 952.09375 116.121094 C 936.488281 116.121094 923.839844 103.464844 923.839844 87.851562 C 923.839844 72.238281 936.488281 59.582031 952.09375 59.582031 C 967.699219 59.582031 980.351562 72.238281 980.351562 87.851562 " fill-opacity="1" fill-rule="nonzero"/><path fill="#f38694" d="M 553.332031 65.675781 C 561.296875 58.121094 573.304688 57.808594 580.160156 64.980469 C 587.015625 72.148438 586.117188 84.085938 578.152344 91.636719 C 570.191406 99.191406 558.179688 99.503906 551.324219 92.332031 C 544.472656 85.164062 545.371094 73.226562 553.332031 65.675781 " fill-opacity="1" fill-rule="nonzero"/><g clip-path="url(#ae80ed5287)"><path fill="#f38694" d="M 587.910156 89.453125 C 583.160156 79.574219 586.574219 68.097656 595.539062 63.820312 C 604.503906 59.542969 615.621094 64.082031 620.371094 73.960938 C 625.121094 83.835938 621.707031 95.3125 612.742188 99.589844 C 603.78125 103.867188 592.664062 99.328125 587.910156 89.453125 " fill-opacity="1" fill-rule="nonzero"/></g><g clip-path="url(#5934f08619)"><path fill="#f38694" d="M 621.296875 64.039062 C 610.398438 65.488281 600.5 58.707031 599.183594 48.894531 C 597.871094 39.082031 605.640625 29.953125 616.539062 28.503906 C 627.4375 27.054688 637.339844 33.835938 638.652344 43.648438 C 639.96875 53.460938 632.199219 62.589844 621.296875 64.039062 " fill-opacity="1" fill-rule="nonzero"/></g><path fill="#f38694" d="M 607.355469 24.558594 C 605.371094 35.332031 595.835938 42.617188 586.058594 40.828125 C 576.285156 39.042969 569.96875 28.859375 571.953125 18.085938 C 573.9375 7.3125 583.472656 0.0273438 593.246094 1.816406 C 603.023438 3.601562 609.339844 13.785156 607.355469 24.558594 " fill-opacity="1" fill-rule="nonzero"/><path fill="#f38694" d="M 565.347656 25.566406 C 575.019531 30.777344 579.03125 42.058594 574.300781 50.769531 C 569.574219 59.476562 557.902344 62.316406 548.230469 57.105469 C 538.558594 51.898438 534.546875 40.613281 539.277344 31.90625 C 544.003906 23.195312 555.675781 20.359375 565.347656 25.566406 " fill-opacity="1" fill-rule="nonzero"/><path fill="#ffffff" d="M 579.304688 74.605469 C 567.800781 70.34375 561.945312 57.601562 566.222656 46.144531 C 570.5 34.6875 583.292969 28.851562 594.792969 33.113281 C 606.296875 37.375 612.152344 50.117188 607.875 61.574219 C 603.597656 73.03125 590.804688 78.867188 579.304688 74.605469 " fill-opacity="1" fill-rule="nonzero"/><path stroke-linecap="butt" transform="matrix(0.0161328, 0, 0, -0.0160701, 537.292011, 101.200817)" fill="none" stroke-linejoin="miter" d="M 2604.181678 1654.959199 C 1891.104947 1920.154845 1528.150102 2713.067951 1793.283895 3426.009134 C 2058.417688 4138.950317 2851.397753 4502.105492 3564.232353 4236.909845 C 4277.309084 3971.714199 4640.263929 3178.801093 4375.130136 2465.85991 C 4109.996343 1752.918728 3317.016277 1389.763553 2604.181678 1654.959199 Z M 2604.181678 1654.959199 " stroke="#f14543" stroke-width="10" stroke-opacity="1" stroke-miterlimit="10"/><g clip-path="url(#51411e9186)"><path fill="#f57cb3" d="M 485.796875 164.429688 C 484.777344 163.066406 479.402344 144.308594 494.789062 135.457031 C 515.496094 123.546875 540.246094 134.109375 543.308594 156.59375 C 546.371094 179.082031 532.605469 201.949219 516.59375 212.808594 C 505.113281 220.589844 488.859375 228.136719 486.476562 228.480469 C 484.09375 228.820312 484.4375 225.070312 477.96875 222.347656 C 471.503906 219.621094 440.957031 197.578125 438.394531 172.414062 C 436.046875 149.359375 446.101562 138.480469 456.125 133.984375 C 469.847656 127.824219 482.550781 131.054688 488.351562 134.457031 C 488.351562 134.457031 479.273438 143.605469 480.492188 153.519531 C 481.554688 162.175781 485.796875 164.429688 485.796875 164.429688 " fill-opacity="1" fill-rule="nonzero"/></g><path fill="#eeed88" d="M 490.234375 132.160156 C 490.234375 132.160156 487.992188 100.257812 520.472656 100.257812 C 520.472656 100.257812 525.234375 115.152344 515.082031 124.414062 C 504.925781 133.679688 490.234375 132.160156 490.234375 132.160156 " fill-opacity="1" fill-rule="nonzero"/><path fill="#eeed88" d="M 497.730469 105.601562 C 497.003906 104.945312 496.230469 104.3125 495.398438 103.71875 C 484.203125 95.75 470.675781 103.570312 470.675781 103.570312 C 473.308594 115.722656 481.449219 123.207031 487.992188 126.222656 C 488.152344 123.324219 489.058594 117.308594 491.425781 113.179688 C 494.179688 108.386719 495.183594 106.941406 497.730469 105.601562 " fill-opacity="1" fill-rule="nonzero"/><path fill="#f0415a" d="M 467.363281 173.304688 C 467.363281 176.847656 465.976562 179.722656 464.265625 179.722656 C 462.554688 179.722656 461.167969 176.847656 461.167969 173.304688 C 461.167969 169.761719 462.554688 166.886719 464.265625 166.886719 C 465.976562 166.886719 467.363281 169.761719 467.363281 173.304688 " fill-opacity="1" fill-rule="nonzero"/><path fill="#f0415a" d="M 507.007812 174.554688 C 507.007812 178.097656 505.621094 180.972656 503.910156 180.972656 C 502.199219 180.972656 500.8125 178.097656 500.8125 174.554688 C 500.8125 171.007812 502.199219 168.136719 503.910156 168.136719 C 505.621094 168.136719 507.007812 171.007812 507.007812 174.554688 " fill-opacity="1" fill-rule="nonzero"/><path fill="#f0415a" d="M 503.605469 191.609375 C 502.273438 190.625 501.398438 190.59375 501.527344 191.417969 C 501.574219 191.726562 501.910156 192.207031 502.355469 192.648438 C 498.382812 200.085938 493.179688 201.511719 489.863281 202.792969 C 486.835938 203.960938 479.597656 204.402344 472.984375 200.414062 C 468.105469 197.476562 466.75 195.132812 466.375 194.105469 C 466.859375 193.582031 467.21875 192.980469 467.230469 192.625 C 467.261719 191.796875 466.390625 191.878906 465.183594 192.945312 C 463.972656 194.011719 464.308594 194.945312 464.308594 194.945312 C 464.660156 195.203125 465.140625 195.074219 465.613281 194.761719 C 468.945312 200.75 480.640625 206.429688 489.957031 203.574219 C 498.597656 200.925781 502.304688 195.335938 503.246094 193.359375 C 503.804688 193.703125 504.367188 193.855469 504.71875 193.546875 C 504.71875 193.546875 504.9375 192.597656 503.605469 191.609375 " fill-opacity="1" fill-rule="nonzero"/><g clip-path="url(#a215cf5250)"><g clip-path="url(#8c9656bc7e)"><g clip-path="url(#32b7d00948)"><g clip-path="url(#d90aa834e2)"><g clip-path="url(#14262d591e)"><path fill="#f38694" d="M 720.429688 742.632812 C 717.050781 743.773438 716.707031 760.925781 708.359375 762.910156 C 700.015625 764.894531 697.152344 758.128906 697.152344 758.128906 C 695.589844 760.65625 690.078125 763.113281 685.527344 761.042969 C 678 757.621094 679.964844 743.679688 679.964844 743.679688 C 679.964844 743.679688 669.191406 749.195312 664.511719 752.113281 C 662.503906 753.367188 658.953125 756.480469 660.425781 758.25 C 661.902344 760.019531 666.664062 757.941406 672.644531 758.4375 C 678.621094 758.929688 687.316406 766.433594 690.742188 774.21875 C 694.171875 782 693.917969 788.878906 691.984375 790.640625 C 690.050781 792.402344 689.042969 783.695312 686.714844 776.332031 C 684.386719 768.96875 678.351562 764.84375 671.539062 763.125 C 664.726562 761.40625 656.746094 764.152344 655.703125 757.886719 C 654.65625 751.617188 677.289062 742.527344 681.828125 740.511719 C 686.363281 738.496094 685.265625 726.652344 677.1875 726.734375 C 670.792969 726.796875 627.449219 745.855469 631.253906 763.628906 C 635.058594 781.402344 645.4375 791.984375 658.050781 797.429688 C 670.664062 802.871094 675.277344 834.953125 680.585938 836.121094 C 685.890625 837.292969 692.371094 835.898438 705.316406 830.898438 C 718.261719 825.894531 728.136719 820.203125 729.089844 817.34375 C 730.042969 814.484375 729.089844 817.34375 723.546875 804.257812 C 718.007812 791.167969 728.382812 788.960938 727.59375 774.527344 C 726.804688 760.09375 723.8125 741.496094 720.429688 742.632812 " fill-opacity="1" fill-rule="nonzero"/></g></g></g></g></g><g clip-path="url(#ee5e9a1fc5)"><g clip-path="url(#d40f8f50e3)"><g clip-path="url(#19e345af0e)"><g clip-path="url(#307e3bb665)"><g clip-path="url(#4d82ac1d2a)"><path fill="#f38694" d="M 710.453125 728.6875 C 706.390625 730.878906 699.992188 747.773438 698.464844 753.402344 C 696.9375 759.035156 705.042969 761.9375 709.28125 759.441406 C 713.515625 756.941406 720.253906 735.273438 720.253906 735.273438 C 719.871094 728.878906 714.515625 726.5 710.453125 728.6875 " fill-opacity="1" fill-rule="nonzero"/></g></g></g></g></g><g clip-path="url(#2858865b61)"><g clip-path="url(#a2d235ffe6)"><g clip-path="url(#9a8f0ad69a)"><path fill="#f38694" d="M 695.273438 717.347656 C 691.234375 722.488281 681.421875 744.671875 681.859375 748.96875 C 682.296875 753.265625 683.382812 758.253906 690.261719 757.507812 C 695.894531 756.894531 706.957031 724.332031 706.445312 721.617188 C 705.9375 718.902344 701.960938 711.554688 695.273438 717.347656 " fill-opacity="1" fill-rule="nonzero"/></g></g></g><g clip-path="url(#0f2e5a3e1b)"><g clip-path="url(#13de90b0d9)"><g clip-path="url(#93f0739538)"><path fill="#f38694" d="M 642.453125 740.253906 C 654 731.449219 660.136719 729.128906 665.992188 726.636719 C 679.957031 720.679688 686.179688 726.582031 686.179688 726.582031 L 691.046875 716.835938 C 691.046875 716.835938 690.484375 659.015625 684.125 650.804688 C 677.699219 642.507812 670.382812 650.132812 669.78125 655.570312 C 669.179688 661.011719 667.9375 719.667969 667.9375 719.667969 L 657.890625 722.515625 C 657.890625 722.515625 646.859375 694.730469 640.441406 678.285156 C 634.023438 661.835938 626.980469 657.511719 619.667969 665.203125 C 612.355469 672.890625 641.007812 741.359375 642.453125 740.253906 " fill-opacity="1" fill-rule="nonzero"/></g></g></g><g clip-path="url(#a6c4b3144c)"><path fill="#f38694" d="M 1053.460938 523.113281 L 1031.601562 517.261719 L 1053.460938 511.410156 C 1059.855469 509.699219 1063.644531 503.128906 1061.9375 496.742188 C 1060.214844 490.335938 1053.660156 486.59375 1047.257812 488.277344 L 1025.386719 494.132812 L 1042.460938 477.070312 C 1047.144531 472.394531 1047.144531 464.816406 1042.460938 460.136719 C 1037.78125 455.460938 1030.195312 455.460938 1025.515625 460.136719 L 1008.4375 477.203125 L 1014.6875 453.894531 C 1016.398438 447.507812 1012.605469 440.933594 1006.214844 439.226562 C 999.824219 437.53125 993.246094 441.296875 991.539062 447.695312 L 985.289062 471 L 979.039062 447.695312 C 977.332031 441.296875 970.789062 437.507812 964.363281 439.226562 C 957.972656 440.933594 954.179688 447.507812 955.890625 453.894531 L 962.136719 477.1875 L 945.074219 460.136719 C 940.394531 455.460938 932.808594 455.460938 928.128906 460.136719 C 923.445312 464.816406 923.445312 472.394531 928.128906 477.070312 L 945.199219 494.132812 L 921.878906 487.890625 C 915.511719 486.183594 908.910156 489.972656 907.203125 496.355469 C 905.492188 502.742188 909.285156 509.316406 915.675781 511.023438 L 939 517.265625 L 915.675781 523.511719 C 909.285156 525.21875 905.492188 531.792969 907.203125 538.175781 C 908.640625 543.535156 913.476562 547.054688 918.765625 547.054688 C 919.796875 547.054688 920.835938 546.925781 921.878906 546.644531 L 945.191406 540.402344 L 929.183594 556.398438 C 924.5 561.074219 924.5 568.652344 929.183594 573.332031 C 931.523438 575.671875 934.589844 576.839844 937.65625 576.839844 C 940.722656 576.839844 943.789062 575.671875 946.128906 573.332031 L 962.136719 557.335938 L 956.277344 579.191406 C 954.566406 585.574219 958.359375 592.148438 964.75 593.855469 C 965.789062 594.136719 966.832031 594.265625 967.863281 594.265625 C 973.152344 594.265625 977.996094 590.746094 979.425781 585.390625 L 985.289062 563.523438 L 991.152344 585.390625 C 992.59375 590.746094 997.425781 594.265625 1002.714844 594.265625 C 1003.746094 594.265625 1004.789062 594.136719 1005.828125 593.855469 C 1012.21875 592.148438 1016.011719 585.574219 1014.300781 579.191406 L 1008.441406 557.332031 L 1024.449219 573.332031 C 1026.789062 575.671875 1029.855469 576.839844 1032.921875 576.839844 C 1035.988281 576.839844 1039.054688 575.671875 1041.394531 573.332031 C 1046.078125 568.652344 1046.078125 561.074219 1041.394531 556.398438 L 1025.378906 540.390625 L 1047.257812 546.246094 C 1048.300781 546.527344 1049.34375 546.65625 1050.375 546.65625 C 1055.664062 546.65625 1060.507812 543.125 1061.9375 537.78125 C 1063.644531 531.394531 1059.855469 524.820312 1053.460938 523.113281 " fill-opacity="1" fill-rule="nonzero"/></g><path fill="#fbc208" d="M 1000.585938 533.863281 C 991.011719 542.703125 976.078125 542.113281 967.230469 532.542969 C 958.386719 522.976562 958.976562 508.054688 968.554688 499.214844 C 978.128906 490.375 993.0625 490.96875 1001.90625 500.535156 C 1010.753906 510.105469 1010.160156 525.027344 1000.585938 533.863281 " fill-opacity="1" fill-rule="nonzero"/><g clip-path="url(#6ca1558198)"><path fill="#f57cb3" d="M 481.507812 37.503906 C 485.078125 50.695312 488.570312 53.34375 501.761719 57.003906 C 488.570312 60.574219 485.921875 64.0625 482.261719 77.253906 C 478.691406 64.0625 475.199219 61.417969 462.011719 57.753906 C 475.203125 54.183594 477.847656 50.695312 481.507812 37.503906 Z M 481.507812 37.503906 " fill-opacity="1" fill-rule="evenodd"/></g><g clip-path="url(#f8a4200b1c)"><path fill="#f57cb3" d="M 984.488281 324.828125 C 986.847656 333.539062 989.152344 335.285156 997.863281 337.703125 C 989.152344 340.0625 987.402344 342.367188 984.984375 351.078125 C 982.628906 342.367188 980.324219 340.617188 971.613281 338.199219 C 980.324219 335.84375 982.070312 333.539062 984.488281 324.828125 Z M 984.488281 324.828125 " fill-opacity="1" fill-rule="evenodd"/></g><g clip-path="url(#6da0547cef)"><path fill="#f57cb3" d="M 945.191406 256.347656 C 949.90625 273.769531 954.515625 277.265625 971.9375 282.101562 C 954.515625 286.816406 951.019531 291.425781 946.183594 308.847656 C 941.46875 291.425781 936.859375 287.929688 919.4375 283.09375 C 936.863281 278.378906 940.355469 273.769531 945.191406 256.347656 Z M 945.191406 256.347656 " fill-opacity="1" fill-rule="evenodd"/></g><g clip-path="url(#1e7489e5a4)"><path fill="#f57cb3" d="M 490.746094 350.917969 C 496.476562 373.207031 491.976562 370.644531 513.996094 364.414062 C 497.664062 380.554688 497.621094 375.355469 513.996094 391.410156 C 491.929688 385.261719 496.386719 382.621094 490.746094 404.910156 C 485.011719 382.617188 489.511719 385.179688 467.496094 391.410156 C 483.824219 375.273438 483.867188 380.472656 467.496094 364.414062 C 489.558594 370.566406 485.101562 373.203125 490.746094 350.917969 Z M 490.746094 350.917969 " fill-opacity="1" fill-rule="evenodd"/></g></svg>