<svg xmlns="http://www.w3.org/2000/svg" xmlns:xlink="http://www.w3.org/1999/xlink" zoomAndPan="magnify" preserveAspectRatio="xMidYMid meet" version="1.0" viewBox="593 400.14 272.75 78.2"><defs><clipPath id="61b06a5add"><path d="M 604.128906 429 L 854.628906 429 L 854.628906 478.335938 L 604.128906 478.335938 Z M 604.128906 429 " clip-rule="nonzero"/></clipPath><clipPath id="7ee79bafef"><path d="M 604.128906 412.335938 L 854.628906 412.335938 L 854.628906 478.335938 L 604.128906 478.335938 Z M 604.128906 412.335938 " clip-rule="nonzero"/></clipPath></defs><g clip-path="url(#61b06a5add)"><path fill="#211414" d="M 844.34375 429.5625 L 815.683594 458.066406 L 787.027344 429.5625 L 786.917969 429.671875 L 786.796875 429.5625 L 758.144531 458.066406 L 729.480469 429.5625 L 729.378906 429.664062 L 729.277344 429.5625 L 700.613281 458.066406 L 671.960938 429.5625 L 671.839844 429.671875 L 671.730469 429.5625 L 643.074219 458.066406 L 614.410156 429.5625 L 604.214844 439.703125 L 632.878906 468.203125 L 643.074219 478.335938 L 653.261719 468.203125 L 671.839844 449.734375 L 690.417969 468.203125 L 700.613281 478.335938 L 710.8125 468.203125 L 729.378906 449.742188 L 747.945312 468.203125 L 758.144531 478.335938 L 768.339844 468.203125 L 786.917969 449.734375 L 805.492188 468.203125 L 815.683594 478.335938 L 825.878906 468.203125 L 854.542969 439.703125 Z M 844.34375 429.5625 " fill-opacity="1" fill-rule="nonzero"/></g><path fill="#eda9a7" d="M 841.785156 414.140625 L 813.761719 442.003906 L 785.742188 414.140625 L 785.632812 414.25 L 785.523438 414.140625 L 757.5 442.003906 L 729.480469 414.140625 L 729.378906 414.242188 L 729.277344 414.140625 L 701.257812 442.003906 L 673.234375 414.140625 L 673.125 414.25 L 673.015625 414.140625 L 644.992188 442.003906 L 616.972656 414.140625 L 607.003906 424.050781 L 635.027344 451.914062 L 644.992188 461.824219 L 654.960938 451.914062 L 673.125 433.855469 L 691.289062 451.914062 L 701.257812 461.824219 L 711.222656 451.914062 L 729.378906 433.863281 L 747.53125 451.914062 L 757.5 461.824219 L 767.46875 451.914062 L 785.632812 433.855469 L 803.796875 451.914062 L 813.761719 461.824219 L 823.730469 451.914062 L 851.753906 424.050781 Z M 841.785156 414.140625 " fill-opacity="1" fill-rule="nonzero"/><g clip-path="url(#7ee79bafef)"><path stroke-linecap="butt" transform="matrix(0.0917825, 0, 0, 0.0912611, 591.704808, 309.346058)" fill="none" stroke-linejoin="miter" d="M 2724.706229 1148.294479 L 2419.381819 1453.608513 L 2114.099968 1148.294479 L 2112.908292 1149.492964 L 2111.716616 1148.294479 L 1806.392206 1453.608513 L 1501.110356 1148.294479 L 1500.003799 1149.407358 L 1498.897243 1148.294479 L 1193.615393 1453.608513 L 888.290982 1148.294479 L 887.099306 1149.492964 L 885.90763 1148.294479 L 580.58322 1453.608513 L 275.30137 1148.294479 L 166.688616 1256.885773 L 472.013026 1562.199808 L 580.58322 1670.791102 L 689.195974 1562.199808 L 887.099306 1364.321386 L 1085.002639 1562.199808 L 1193.615393 1670.791102 L 1302.185587 1562.199808 L 1500.003799 1364.406992 L 1697.779452 1562.199808 L 1806.392206 1670.791102 L 1915.00496 1562.199808 L 2112.908292 1364.321386 L 2310.811625 1562.199808 L 2419.381819 1670.791102 L 2527.994573 1562.199808 L 2833.318983 1256.885773 Z M 2724.706229 1148.294479 " stroke="#211414" stroke-width="28" stroke-opacity="1" stroke-miterlimit="10"/></g></svg>