<svg xmlns="http://www.w3.org/2000/svg" xmlns:xlink="http://www.w3.org/1999/xlink" width="1280" zoomAndPan="magnify" viewBox="0 0 960 540.000001" height="720" preserveAspectRatio="xMidYMid meet" version="1.0"><defs><clipPath id="e356aec37d"><path d="M 0.886719 62.730469 L 40.769531 62.730469 L 40.769531 136.84375 L 0.886719 136.84375 Z M 0.886719 62.730469 " clip-rule="nonzero"/></clipPath><clipPath id="634563cd21"><path d="M 0.886719 202.675781 L 25.050781 202.675781 L 25.050781 261.070312 L 0.886719 261.070312 Z M 0.886719 202.675781 " clip-rule="nonzero"/></clipPath><clipPath id="70d177d639"><path d="M 0.886719 342.625 L 25.050781 342.625 L 25.050781 401.015625 L 0.886719 401.015625 Z M 0.886719 342.625 " clip-rule="nonzero"/></clipPath><clipPath id="1c5923f4da"><path d="M 0.886719 423.441406 L 40.21875 423.441406 L 40.21875 489.320312 L 0.886719 489.320312 Z M 0.886719 423.441406 " clip-rule="nonzero"/></clipPath><clipPath id="297fcc1fa5"><path d="M 83.554688 0 L 149.433594 0 L 149.433594 62.535156 L 83.554688 62.535156 Z M 83.554688 0 " clip-rule="nonzero"/></clipPath><clipPath id="f2d637fff4"><path d="M 83.554688 123.238281 L 149.433594 123.238281 L 149.433594 189.117188 L 83.554688 189.117188 Z M 83.554688 123.238281 " clip-rule="nonzero"/></clipPath><clipPath id="0d8d505796"><path d="M 66.796875 231.871094 L 166.363281 231.871094 L 166.363281 331.4375 L 66.796875 331.4375 Z M 66.796875 231.871094 " clip-rule="nonzero"/></clipPath><clipPath id="a47818486d"><path d="M 82.496094 359.992188 L 150.621094 359.992188 L 150.621094 428.117188 L 82.496094 428.117188 Z M 82.496094 359.992188 " clip-rule="nonzero"/></clipPath><clipPath id="f3d916ca27"><path d="M 82.496094 470.808594 L 150.621094 470.808594 L 150.621094 538.933594 L 82.496094 538.933594 Z M 82.496094 470.808594 " clip-rule="nonzero"/></clipPath><clipPath id="c0d255c90f"><path d="M 207.089844 49.8125 L 292.433594 49.8125 L 292.433594 144.140625 L 207.089844 144.140625 Z M 207.089844 49.8125 " clip-rule="nonzero"/></clipPath><clipPath id="6a21b20025"><path d="M 209.660156 179.003906 L 275.539062 179.003906 L 275.539062 244.882812 L 209.660156 244.882812 Z M 209.660156 179.003906 " clip-rule="nonzero"/></clipPath><clipPath id="9f7412094b"><path d="M 208.367188 293.917969 L 274.246094 293.917969 L 274.246094 359.796875 L 208.367188 359.796875 Z M 208.367188 293.917969 " clip-rule="nonzero"/></clipPath><clipPath id="3038cde789"><path d="M 192.667969 397.675781 L 292.234375 397.675781 L 292.234375 497.238281 L 192.667969 497.238281 Z M 192.667969 397.675781 " clip-rule="nonzero"/></clipPath><clipPath id="6d9ca24955"><path d="M 737.742188 24.710938 L 819.898438 24.710938 L 819.898438 106.863281 L 737.742188 106.863281 Z M 737.742188 24.710938 " clip-rule="nonzero"/></clipPath><clipPath id="f72d8568ef"><path d="M 737.742188 180.867188 L 802.601562 180.867188 L 802.601562 245.726562 L 737.742188 245.726562 Z M 737.742188 180.867188 " clip-rule="nonzero"/></clipPath><clipPath id="2652486fec"><path d="M 737.742188 337.027344 L 802.601562 337.027344 L 802.601562 401.886719 L 737.742188 401.886719 Z M 737.742188 337.027344 " clip-rule="nonzero"/></clipPath><clipPath id="13e0f07f3e"><path d="M 746.316406 427.210938 L 819.824219 427.210938 L 819.824219 500.71875 L 746.316406 500.71875 Z M 746.316406 427.210938 " clip-rule="nonzero"/></clipPath><clipPath id="0c09cd8284"><path d="M 868.183594 0 L 941.6875 0 L 941.6875 24.484375 L 868.183594 24.484375 Z M 868.183594 0 " clip-rule="nonzero"/></clipPath><clipPath id="5d37f76499"><path d="M 868.183594 92.230469 L 941.6875 92.230469 L 941.6875 165.734375 L 868.183594 165.734375 Z M 868.183594 92.230469 " clip-rule="nonzero"/></clipPath><clipPath id="9761cadd33"><path d="M 849.480469 213.449219 L 959.113281 213.449219 L 959.113281 324.429688 L 849.480469 324.429688 Z M 849.480469 213.449219 " clip-rule="nonzero"/></clipPath><clipPath id="1e6091ac04"><path d="M 867 356.410156 L 943.390625 356.410156 L 943.390625 432.800781 L 867 432.800781 Z M 867 356.410156 " clip-rule="nonzero"/></clipPath><clipPath id="616d44978d"><path d="M 867 480.066406 L 943.390625 480.066406 L 943.390625 539 L 867 539 Z M 867 480.066406 " clip-rule="nonzero"/></clipPath><clipPath id="ac651b3784"><path d="M 352.382812 66.074219 L 426.496094 66.074219 L 426.496094 140.1875 L 352.382812 140.1875 Z M 352.382812 66.074219 " clip-rule="nonzero"/></clipPath><clipPath id="5f7342b32a"><path d="M 352.382812 206.019531 L 410.773438 206.019531 L 410.773438 264.414062 L 352.382812 264.414062 Z M 352.382812 206.019531 " clip-rule="nonzero"/></clipPath><clipPath id="e28f75fa54"><path d="M 352.382812 345.96875 L 410.773438 345.96875 L 410.773438 404.359375 L 352.382812 404.359375 Z M 352.382812 345.96875 " clip-rule="nonzero"/></clipPath><clipPath id="64888bb59e"><path d="M 360.066406 426.785156 L 425.941406 426.785156 L 425.941406 492.664062 L 360.066406 492.664062 Z M 360.066406 426.785156 " clip-rule="nonzero"/></clipPath><clipPath id="b86b1ac867"><path d="M 469.277344 0 L 535.15625 0 L 535.15625 65.878906 L 469.277344 65.878906 Z M 469.277344 0 " clip-rule="nonzero"/></clipPath><clipPath id="7e6fa3a5e5"><path d="M 469.277344 126.585938 L 535.15625 126.585938 L 535.15625 192.460938 L 469.277344 192.460938 Z M 469.277344 126.585938 " clip-rule="nonzero"/></clipPath><clipPath id="bfa4e92083"><path d="M 452.519531 235.21875 L 552.085938 235.21875 L 552.085938 334.78125 L 452.519531 334.78125 Z M 452.519531 235.21875 " clip-rule="nonzero"/></clipPath><clipPath id="a0f7fc5325"><path d="M 468.21875 363.339844 L 536.34375 363.339844 L 536.34375 431.460938 L 468.21875 431.460938 Z M 468.21875 363.339844 " clip-rule="nonzero"/></clipPath><clipPath id="2a7369f244"><path d="M 468.21875 474.15625 L 536.34375 474.15625 L 536.34375 539 L 468.21875 539 Z M 468.21875 474.15625 " clip-rule="nonzero"/></clipPath><clipPath id="4b9b64e04c"><path d="M 592.816406 53.15625 L 678.15625 53.15625 L 678.15625 147.484375 L 592.816406 147.484375 Z M 592.816406 53.15625 " clip-rule="nonzero"/></clipPath><clipPath id="ad5e993a8e"><path d="M 595.382812 182.347656 L 661.261719 182.347656 L 661.261719 248.226562 L 595.382812 248.226562 Z M 595.382812 182.347656 " clip-rule="nonzero"/></clipPath><clipPath id="f5aaf2b305"><path d="M 594.089844 297.261719 L 659.96875 297.261719 L 659.96875 363.140625 L 594.089844 363.140625 Z M 594.089844 297.261719 " clip-rule="nonzero"/></clipPath><clipPath id="e767ac9eba"><path d="M 578.390625 401.019531 L 677.957031 401.019531 L 677.957031 500.585938 L 578.390625 500.585938 Z M 578.390625 401.019531 " clip-rule="nonzero"/></clipPath></defs><g clip-path="url(#e356aec37d)"><path fill="#fcfdfd" d="M 11.34375 104.046875 C 16.464844 100.699219 25.285156 100.261719 40.769531 99.785156 C 25.285156 99.3125 16.464844 98.875 11.34375 95.527344 C 12.871094 92.082031 16.15625 88.09375 21.210938 82.289062 C 15.40625 87.34375 11.417969 90.632812 7.976562 92.15625 C 4.625 87.039062 4.1875 78.214844 3.714844 62.730469 C 3.238281 78.214844 2.804688 87.039062 -0.546875 92.15625 C -3.988281 90.632812 -7.980469 87.34375 -13.78125 82.289062 C -8.730469 88.09375 -5.441406 92.082031 -3.914062 95.527344 C -9.035156 98.875 -17.859375 99.3125 -33.34375 99.785156 C -17.859375 100.261719 -9.035156 100.699219 -3.914062 104.046875 C -5.441406 107.492188 -8.730469 111.480469 -13.78125 117.285156 C -7.980469 112.230469 -3.988281 108.941406 -0.546875 107.417969 C 2.804688 112.535156 3.238281 121.359375 3.714844 136.84375 C 4.1875 121.359375 4.625 112.535156 7.976562 107.417969 C 11.417969 108.941406 15.40625 112.230469 21.210938 117.285156 C 16.15625 111.480469 12.871094 107.492188 11.34375 104.046875 Z M 11.34375 104.046875 " fill-opacity="1" fill-rule="nonzero"/></g><g clip-path="url(#634563cd21)"><path fill="#fcfdfd" d="M 1.863281 235.230469 C 5.898438 232.589844 12.851562 232.246094 25.050781 231.871094 C 12.851562 231.5 5.898438 231.15625 1.863281 228.515625 C 3.066406 225.804688 5.65625 222.660156 9.640625 218.085938 C 5.066406 222.070312 1.921875 224.660156 -0.789062 225.863281 C -3.429688 221.828125 -3.773438 214.875 -4.144531 202.675781 C -4.519531 214.875 -4.863281 221.828125 -7.503906 225.863281 C -10.214844 224.660156 -13.359375 222.070312 -17.933594 218.085938 C -13.949219 222.660156 -11.359375 225.804688 -10.15625 228.515625 C -14.191406 231.15625 -21.144531 231.5 -33.34375 231.871094 C -21.144531 232.246094 -14.191406 232.589844 -10.15625 235.230469 C -11.359375 237.941406 -13.949219 241.085938 -17.933594 245.660156 C -13.359375 241.675781 -10.214844 239.085938 -7.503906 237.882812 C -4.863281 241.917969 -4.519531 248.871094 -4.144531 261.070312 C -3.773438 248.871094 -3.429688 241.917969 -0.789062 237.882812 C 1.921875 239.085938 5.066406 241.675781 9.640625 245.660156 C 5.65625 241.085938 3.066406 237.941406 1.863281 235.230469 Z M 1.863281 235.230469 " fill-opacity="1" fill-rule="nonzero"/></g><g clip-path="url(#70d177d639)"><path fill="#fcfdfd" d="M 1.863281 375.175781 C 5.898438 372.535156 12.851562 372.195312 25.050781 371.820312 C 12.851562 371.445312 5.898438 371.101562 1.863281 368.460938 C 3.066406 365.75 5.65625 362.605469 9.640625 358.035156 C 5.066406 362.015625 1.921875 364.605469 -0.789062 365.808594 C -3.429688 361.773438 -3.773438 354.824219 -4.144531 342.625 C -4.519531 354.824219 -4.863281 361.773438 -7.503906 365.808594 C -10.214844 364.605469 -13.359375 362.015625 -17.933594 358.035156 C -13.949219 362.605469 -11.359375 365.75 -10.15625 368.460938 C -14.191406 371.101562 -21.144531 371.445312 -33.34375 371.820312 C -21.144531 372.195312 -14.191406 372.535156 -10.15625 375.175781 C -11.359375 377.890625 -13.949219 381.03125 -17.933594 385.605469 C -13.359375 381.621094 -10.214844 379.03125 -7.503906 377.832031 C -4.863281 381.863281 -4.519531 388.816406 -4.144531 401.015625 C -3.773438 388.816406 -3.429688 381.863281 -0.789062 377.832031 C 1.921875 379.03125 5.066406 381.621094 9.640625 385.605469 C 5.65625 381.03125 3.066406 377.890625 1.863281 375.175781 Z M 1.863281 375.175781 " fill-opacity="1" fill-rule="nonzero"/></g><g clip-path="url(#1c5923f4da)"><path fill="#fcfdfd" d="M 14.0625 460.167969 C 18.613281 457.191406 26.457031 456.804688 40.21875 456.382812 C 26.457031 455.957031 18.613281 455.570312 14.0625 452.59375 C 15.417969 449.53125 18.339844 445.988281 22.832031 440.828125 C 17.675781 445.320312 14.128906 448.242188 11.066406 449.597656 C 8.089844 445.046875 7.703125 437.207031 7.28125 423.441406 C 6.859375 437.207031 6.46875 445.046875 3.492188 449.597656 C 0.433594 448.242188 -3.113281 445.320312 -8.273438 440.828125 C -3.78125 445.988281 -0.859375 449.53125 0.5 452.59375 C -4.050781 455.570312 -11.894531 455.957031 -25.660156 456.382812 C -11.894531 456.804688 -4.050781 457.191406 0.5 460.167969 C -0.859375 463.230469 -3.78125 466.773438 -8.273438 471.933594 C -3.113281 467.441406 0.433594 464.519531 3.492188 463.164062 C 6.46875 467.714844 6.859375 475.558594 7.28125 489.320312 C 7.703125 475.558594 8.089844 467.714844 11.066406 463.164062 C 14.128906 464.519531 17.675781 467.441406 22.832031 471.933594 C 18.339844 466.773438 15.417969 463.230469 14.0625 460.167969 Z M 14.0625 460.167969 " fill-opacity="1" fill-rule="nonzero"/></g><g clip-path="url(#297fcc1fa5)"><path fill="#fcfdfd" d="M 123.273438 33.382812 C 127.824219 30.40625 135.667969 30.015625 149.433594 29.59375 C 135.667969 29.171875 127.824219 28.785156 123.273438 25.804688 C 124.632812 22.746094 127.554688 19.199219 132.046875 14.042969 C 126.886719 18.535156 123.339844 21.457031 120.28125 22.8125 C 117.304688 18.261719 116.914062 10.417969 116.492188 -3.34375 C 116.070312 10.417969 115.683594 18.261719 112.707031 22.8125 C 109.644531 21.457031 106.097656 18.535156 100.941406 14.042969 C 105.433594 19.199219 108.355469 22.746094 109.710938 25.804688 C 105.160156 28.785156 97.316406 29.171875 83.554688 29.59375 C 97.316406 30.015625 105.160156 30.40625 109.710938 33.382812 C 108.355469 36.441406 105.433594 39.988281 100.941406 45.148438 C 106.097656 40.65625 109.644531 37.734375 112.707031 36.375 C 115.683594 40.925781 116.070312 48.769531 116.492188 62.535156 C 116.914062 48.769531 117.304688 40.925781 120.28125 36.375 C 123.339844 37.734375 126.886719 40.65625 132.046875 45.148438 C 127.554688 39.988281 124.632812 36.441406 123.273438 33.382812 Z M 123.273438 33.382812 " fill-opacity="1" fill-rule="nonzero"/></g><g clip-path="url(#f2d637fff4)"><path fill="#fcfdfd" d="M 123.273438 159.964844 C 127.824219 156.988281 135.667969 156.601562 149.433594 156.179688 C 135.667969 155.757812 127.824219 155.367188 123.273438 152.390625 C 124.632812 149.332031 127.554688 145.785156 132.046875 140.625 C 126.886719 145.117188 123.339844 148.039062 120.28125 149.398438 C 117.304688 144.847656 116.914062 137.003906 116.492188 123.238281 C 116.070312 137.003906 115.683594 144.847656 112.707031 149.398438 C 109.644531 148.039062 106.097656 145.117188 100.941406 140.625 C 105.433594 145.785156 108.355469 149.332031 109.710938 152.390625 C 105.160156 155.367188 97.316406 155.757812 83.554688 156.179688 C 97.316406 156.601562 105.160156 156.988281 109.710938 159.964844 C 108.355469 163.027344 105.433594 166.574219 100.941406 171.730469 C 106.097656 167.238281 109.644531 164.316406 112.707031 162.960938 C 115.683594 167.511719 116.070312 175.355469 116.492188 189.117188 C 116.914062 175.355469 117.304688 167.511719 120.28125 162.960938 C 123.339844 164.316406 126.886719 167.238281 132.046875 171.730469 C 127.554688 166.574219 124.632812 163.027344 123.273438 159.964844 Z M 123.273438 159.964844 " fill-opacity="1" fill-rule="nonzero"/></g><g clip-path="url(#0d8d505796)"><path fill="#fcfdfd" d="M 126.828125 287.378906 C 133.707031 282.878906 145.558594 282.292969 166.363281 281.65625 C 145.558594 281.015625 133.707031 280.433594 126.828125 275.929688 C 128.878906 271.304688 133.292969 265.945312 140.085938 258.148438 C 132.289062 264.941406 126.929688 269.355469 122.304688 271.40625 C 117.800781 264.527344 117.21875 252.675781 116.578125 231.871094 C 115.941406 252.675781 115.355469 264.527344 110.855469 271.40625 C 106.230469 269.355469 100.871094 264.941406 93.074219 258.148438 C 99.863281 265.945312 104.277344 271.304688 106.328125 275.929688 C 99.449219 280.433594 87.597656 281.015625 66.796875 281.65625 C 87.597656 282.292969 99.449219 282.878906 106.328125 287.378906 C 104.277344 292.003906 99.863281 297.363281 93.074219 305.160156 C 100.871094 298.371094 106.230469 293.953125 110.855469 291.90625 C 115.355469 298.785156 115.941406 310.636719 116.578125 331.4375 C 117.21875 310.636719 117.800781 298.785156 122.304688 291.90625 C 126.929688 293.953125 132.289062 298.371094 140.085938 305.160156 C 133.292969 297.363281 128.878906 292.003906 126.828125 287.378906 Z M 126.828125 287.378906 " fill-opacity="1" fill-rule="nonzero"/></g><g clip-path="url(#a47818486d)"><path fill="#fcfdfd" d="M 123.570312 397.972656 C 128.277344 394.894531 136.386719 394.492188 150.621094 394.054688 C 136.386719 393.621094 128.277344 393.21875 123.570312 390.140625 C 124.972656 386.972656 127.996094 383.308594 132.640625 377.972656 C 127.304688 382.617188 123.640625 385.640625 120.476562 387.042969 C 117.394531 382.335938 116.996094 374.226562 116.558594 359.992188 C 116.121094 374.226562 115.722656 382.335938 112.640625 387.042969 C 109.476562 385.640625 105.808594 382.617188 100.476562 377.972656 C 105.121094 383.308594 108.144531 386.976562 109.546875 390.140625 C 104.839844 393.21875 96.730469 393.621094 82.496094 394.054688 C 96.730469 394.492188 104.839844 394.894531 109.546875 397.972656 C 108.144531 401.136719 105.121094 404.804688 100.476562 410.140625 C 105.808594 405.492188 109.476562 402.472656 112.640625 401.070312 C 115.722656 405.773438 116.121094 413.886719 116.558594 428.117188 C 116.996094 413.886719 117.394531 405.773438 120.476562 401.070312 C 123.640625 402.472656 127.304688 405.492188 132.640625 410.140625 C 127.996094 404.804688 124.972656 401.136719 123.570312 397.972656 Z M 123.570312 397.972656 " fill-opacity="1" fill-rule="nonzero"/></g><g clip-path="url(#f3d916ca27)"><path fill="#fcfdfd" d="M 123.570312 508.789062 C 128.277344 505.710938 136.386719 505.308594 150.621094 504.871094 C 136.386719 504.4375 128.277344 504.035156 123.570312 500.957031 C 124.972656 497.789062 127.996094 494.125 132.640625 488.789062 C 127.304688 493.433594 123.640625 496.457031 120.476562 497.859375 C 117.394531 493.152344 116.996094 485.042969 116.558594 470.808594 C 116.121094 485.042969 115.722656 493.152344 112.640625 497.859375 C 109.476562 496.457031 105.808594 493.433594 100.476562 488.789062 C 105.121094 494.125 108.144531 497.792969 109.546875 500.957031 C 104.839844 504.035156 96.730469 504.4375 82.496094 504.871094 C 96.730469 505.308594 104.839844 505.710938 109.546875 508.789062 C 108.144531 511.953125 105.121094 515.621094 100.476562 520.957031 C 105.808594 516.308594 109.476562 513.289062 112.640625 511.886719 C 115.722656 516.589844 116.121094 524.703125 116.558594 538.933594 C 116.996094 524.703125 117.394531 516.589844 120.476562 511.886719 C 123.640625 513.289062 127.304688 516.308594 132.640625 520.957031 C 127.996094 515.621094 124.972656 511.953125 123.570312 508.789062 Z M 123.570312 508.789062 " fill-opacity="1" fill-rule="nonzero"/></g><g clip-path="url(#c0d255c90f)"><path fill="#fcfdfd" d="M 252.933594 105.320312 C 259.8125 100.820312 271.664062 100.234375 292.464844 99.597656 C 271.664062 98.957031 259.8125 98.371094 252.933594 93.871094 C 254.984375 89.246094 259.398438 83.886719 266.1875 76.089844 C 258.390625 82.878906 253.03125 87.296875 248.410156 89.347656 C 243.90625 82.46875 243.320312 70.613281 242.683594 49.8125 C 242.046875 70.613281 241.460938 82.46875 236.957031 89.347656 C 232.332031 87.296875 226.972656 82.878906 219.175781 76.089844 C 225.96875 83.886719 230.382812 89.246094 232.433594 93.871094 C 225.554688 98.371094 213.703125 98.957031 192.902344 99.597656 C 213.703125 100.234375 225.554688 100.820312 232.433594 105.320312 C 230.382812 109.945312 225.96875 115.304688 219.175781 123.101562 C 226.972656 116.3125 232.332031 111.894531 236.957031 109.847656 C 241.460938 116.722656 242.046875 128.578125 242.683594 149.378906 C 243.320312 128.578125 243.90625 116.722656 248.410156 109.847656 C 253.03125 111.894531 258.390625 116.3125 266.1875 123.101562 C 259.398438 115.304688 254.984375 109.945312 252.933594 105.320312 Z M 252.933594 105.320312 " fill-opacity="1" fill-rule="nonzero"/></g><g clip-path="url(#6a21b20025)"><path fill="#fcfdfd" d="M 249.378906 215.730469 C 253.929688 212.753906 261.773438 212.367188 275.539062 211.945312 C 261.773438 211.519531 253.929688 211.132812 249.378906 208.15625 C 250.734375 205.09375 253.660156 201.550781 258.152344 196.390625 C 252.992188 200.882812 249.445312 203.804688 246.386719 205.160156 C 243.40625 200.609375 243.019531 192.769531 242.597656 179.003906 C 242.175781 192.769531 241.789062 200.609375 238.808594 205.160156 C 235.75 203.804688 232.203125 200.882812 227.046875 196.390625 C 231.539062 201.550781 234.460938 205.09375 235.816406 208.15625 C 231.265625 211.132812 223.421875 211.519531 209.660156 211.945312 C 223.421875 212.367188 231.265625 212.753906 235.816406 215.730469 C 234.460938 218.792969 231.539062 222.335938 227.046875 227.496094 C 232.203125 223.003906 235.75 220.082031 238.808594 218.726562 C 241.789062 223.277344 242.175781 231.121094 242.597656 244.882812 C 243.019531 231.121094 243.40625 223.277344 246.386719 218.726562 C 249.445312 220.082031 252.992188 223.003906 258.152344 227.496094 C 253.660156 222.335938 250.734375 218.792969 249.378906 215.730469 Z M 249.378906 215.730469 " fill-opacity="1" fill-rule="nonzero"/></g><g clip-path="url(#9f7412094b)"><path fill="#fcfdfd" d="M 248.089844 330.644531 C 252.640625 327.667969 260.480469 327.28125 274.246094 326.859375 C 260.480469 326.4375 252.640625 326.046875 248.089844 323.070312 C 249.445312 320.011719 252.367188 316.464844 256.859375 311.304688 C 251.699219 315.796875 248.15625 318.71875 245.09375 320.078125 C 242.117188 315.523438 241.730469 307.683594 241.304688 293.917969 C 240.882812 307.683594 240.496094 315.523438 237.519531 320.078125 C 234.457031 318.71875 230.914062 315.796875 225.753906 311.304688 C 230.246094 316.464844 233.167969 320.011719 234.523438 323.070312 C 229.972656 326.046875 222.128906 326.4375 208.367188 326.859375 C 222.128906 327.28125 229.972656 327.667969 234.523438 330.644531 C 233.167969 333.707031 230.246094 337.253906 225.753906 342.410156 C 230.914062 337.917969 234.457031 334.996094 237.519531 333.640625 C 240.496094 338.191406 240.882812 346.035156 241.304688 359.796875 C 241.730469 346.035156 242.117188 338.191406 245.09375 333.640625 C 248.15625 334.996094 251.699219 337.917969 256.859375 342.410156 C 252.367188 337.253906 249.445312 333.707031 248.089844 330.644531 Z M 248.089844 330.644531 " fill-opacity="1" fill-rule="nonzero"/></g><g clip-path="url(#3038cde789)"><path fill="#fcfdfd" d="M 252.699219 453.183594 C 259.578125 448.679688 271.429688 448.09375 292.234375 447.457031 C 271.429688 446.820312 259.578125 446.234375 252.699219 441.730469 C 254.75 437.105469 259.164062 431.746094 265.957031 423.949219 C 258.160156 430.742188 252.800781 435.15625 248.175781 437.207031 C 243.671875 430.328125 243.089844 418.476562 242.449219 397.675781 C 241.8125 418.476562 241.226562 430.328125 236.726562 437.207031 C 232.101562 435.15625 226.742188 430.742188 218.945312 423.949219 C 225.734375 431.746094 230.152344 437.105469 232.199219 441.730469 C 225.320312 446.234375 213.46875 446.820312 192.667969 447.457031 C 213.46875 448.09375 225.320312 448.679688 232.199219 453.183594 C 230.152344 457.804688 225.734375 463.164062 218.945312 470.960938 C 226.742188 464.171875 232.101562 459.757812 236.726562 457.707031 C 241.226562 464.585938 241.8125 476.4375 242.449219 497.238281 C 243.089844 476.4375 243.671875 464.585938 248.175781 457.707031 C 252.800781 459.757812 258.160156 464.171875 265.957031 470.960938 C 259.164062 463.164062 254.75 457.804688 252.699219 453.183594 Z M 252.699219 453.183594 " fill-opacity="1" fill-rule="nonzero"/></g><g clip-path="url(#6d9ca24955)"><path fill="#fcfdfd" d="M 787.277344 70.511719 C 792.953125 66.796875 802.734375 66.3125 819.898438 65.785156 C 802.734375 65.261719 792.953125 64.777344 787.277344 61.0625 C 788.96875 57.246094 792.613281 52.824219 798.214844 46.390625 C 791.78125 51.992188 787.359375 55.636719 783.542969 57.328125 C 779.832031 51.652344 779.347656 41.875 778.820312 24.710938 C 778.292969 41.875 777.808594 51.652344 774.097656 57.328125 C 770.28125 55.636719 765.859375 51.992188 759.425781 46.390625 C 765.027344 52.824219 768.671875 57.246094 770.363281 61.0625 C 764.6875 64.777344 754.90625 65.261719 737.742188 65.785156 C 754.90625 66.3125 764.6875 66.796875 770.363281 70.511719 C 768.671875 74.328125 765.027344 78.75 759.425781 85.183594 C 765.859375 79.578125 770.28125 75.933594 774.097656 74.246094 C 777.808594 79.917969 778.292969 89.699219 778.820312 106.863281 C 779.347656 89.699219 779.832031 79.917969 783.542969 74.246094 C 787.359375 75.933594 791.78125 79.578125 798.214844 85.183594 C 792.613281 78.75 788.96875 74.328125 787.277344 70.511719 Z M 787.277344 70.511719 " fill-opacity="1" fill-rule="nonzero"/></g><g clip-path="url(#f72d8568ef)"><path fill="#fcfdfd" d="M 776.847656 217.027344 C 781.328125 214.097656 789.050781 213.714844 802.601562 213.296875 C 789.050781 212.882812 781.328125 212.5 776.847656 209.570312 C 778.183594 206.554688 781.0625 203.066406 785.484375 197.984375 C 780.40625 202.410156 776.914062 205.285156 773.902344 206.621094 C 770.96875 202.140625 770.589844 194.417969 770.171875 180.867188 C 769.757812 194.417969 769.375 202.140625 766.441406 206.621094 C 763.429688 205.285156 759.9375 202.410156 754.859375 197.984375 C 759.285156 203.066406 762.160156 206.554688 763.496094 209.570312 C 759.015625 212.5 751.292969 212.882812 737.742188 213.296875 C 751.292969 213.714844 759.015625 214.097656 763.496094 217.027344 C 762.160156 220.039062 759.285156 223.53125 754.859375 228.609375 C 759.9375 224.1875 763.429688 221.308594 766.441406 219.976562 C 769.375 224.457031 769.757812 232.175781 770.171875 245.726562 C 770.589844 232.175781 770.96875 224.457031 773.902344 219.976562 C 776.914062 221.308594 780.40625 224.1875 785.484375 228.609375 C 781.0625 223.53125 778.183594 220.039062 776.847656 217.027344 Z M 776.847656 217.027344 " fill-opacity="1" fill-rule="nonzero"/></g><g clip-path="url(#2652486fec)"><path fill="#fcfdfd" d="M 776.847656 373.1875 C 781.328125 370.253906 789.050781 369.875 802.601562 369.457031 C 789.050781 369.042969 781.328125 368.660156 776.847656 365.730469 C 778.183594 362.714844 781.0625 359.226562 785.484375 354.144531 C 780.40625 358.570312 776.914062 361.445312 773.902344 362.78125 C 770.96875 358.300781 770.589844 350.578125 770.171875 337.027344 C 769.757812 350.578125 769.375 358.300781 766.441406 362.78125 C 763.429688 361.445312 759.9375 358.570312 754.859375 354.144531 C 759.285156 359.226562 762.160156 362.714844 763.496094 365.730469 C 759.015625 368.660156 751.292969 369.042969 737.742188 369.457031 C 751.292969 369.875 759.015625 370.253906 763.496094 373.1875 C 762.160156 376.199219 759.285156 379.691406 754.859375 384.769531 C 759.9375 380.347656 763.429688 377.46875 766.441406 376.136719 C 769.375 380.617188 769.757812 388.335938 770.171875 401.886719 C 770.589844 388.335938 770.96875 380.617188 773.902344 376.136719 C 776.914062 377.46875 780.40625 380.347656 785.484375 384.769531 C 781.0625 379.691406 778.183594 376.199219 776.847656 373.1875 Z M 776.847656 373.1875 " fill-opacity="1" fill-rule="nonzero"/></g><g clip-path="url(#13e0f07f3e)"><path fill="#fcfdfd" d="M 790.636719 468.191406 C 795.714844 464.867188 804.464844 464.433594 819.824219 463.964844 C 804.464844 463.492188 795.714844 463.058594 790.636719 459.738281 C 792.148438 456.324219 795.410156 452.367188 800.421875 446.609375 C 794.667969 451.621094 790.710938 454.882812 787.296875 456.398438 C 783.972656 451.320312 783.539062 442.566406 783.070312 427.210938 C 782.597656 442.566406 782.167969 451.320312 778.84375 456.398438 C 775.429688 454.882812 771.472656 451.621094 765.714844 446.609375 C 770.730469 452.367188 773.988281 456.324219 775.503906 459.738281 C 770.425781 463.058594 761.671875 463.492188 746.316406 463.964844 C 761.671875 464.433594 770.425781 464.867188 775.503906 468.191406 C 773.988281 471.605469 770.730469 475.5625 765.714844 481.316406 C 771.472656 476.304688 775.429688 473.042969 778.84375 471.53125 C 782.167969 476.609375 782.597656 485.359375 783.070312 500.71875 C 783.539062 485.359375 783.972656 476.609375 787.296875 471.53125 C 790.710938 473.042969 794.667969 476.304688 800.421875 481.316406 C 795.410156 475.5625 792.148438 471.605469 790.636719 468.191406 Z M 790.636719 468.191406 " fill-opacity="1" fill-rule="nonzero"/></g><g clip-path="url(#0c09cd8284)"><path fill="#fcfdfd" d="M 912.503906 -8.039062 C 917.582031 -11.363281 926.332031 -11.796875 941.6875 -12.265625 C 926.332031 -12.738281 917.582031 -13.171875 912.503906 -16.492188 C 914.015625 -19.910156 917.277344 -23.863281 922.289062 -29.621094 C 916.535156 -24.609375 912.578125 -21.347656 909.164062 -19.835938 C 905.839844 -24.914062 905.40625 -33.664062 904.9375 -49.019531 C 904.464844 -33.664062 904.03125 -24.914062 900.710938 -19.835938 C 897.292969 -21.347656 893.339844 -24.609375 887.582031 -29.621094 C 892.59375 -23.863281 895.855469 -19.90625 897.367188 -16.492188 C 892.289062 -13.171875 883.539062 -12.738281 868.183594 -12.265625 C 883.539062 -11.796875 892.289062 -11.363281 897.367188 -8.039062 C 895.855469 -4.625 892.59375 -0.667969 887.582031 5.085938 C 893.339844 0.0742188 897.296875 -3.1875 900.710938 -4.699219 C 904.03125 0.378906 904.464844 9.128906 904.9375 24.484375 C 905.40625 9.128906 905.839844 0.378906 909.164062 -4.699219 C 912.578125 -3.1875 916.535156 0.0742188 922.289062 5.085938 C 917.277344 -0.667969 914.015625 -4.625 912.503906 -8.039062 Z M 912.503906 -8.039062 " fill-opacity="1" fill-rule="nonzero"/></g><g clip-path="url(#5d37f76499)"><path fill="#fcfdfd" d="M 912.503906 133.207031 C 917.582031 129.886719 926.332031 129.453125 941.6875 128.980469 C 926.332031 128.511719 917.582031 128.078125 912.503906 124.753906 C 914.015625 121.339844 917.277344 117.382812 922.289062 111.628906 C 916.535156 116.640625 912.578125 119.902344 909.164062 121.414062 C 905.839844 116.335938 905.40625 107.585938 904.9375 92.230469 C 904.464844 107.585938 904.03125 116.335938 900.710938 121.414062 C 897.292969 119.902344 893.339844 116.640625 887.582031 111.628906 C 892.59375 117.382812 895.855469 121.339844 897.367188 124.753906 C 892.289062 128.078125 883.539062 128.511719 868.183594 128.980469 C 883.539062 129.453125 892.289062 129.886719 897.367188 133.207031 C 895.855469 136.625 892.59375 140.578125 887.582031 146.335938 C 893.339844 141.324219 897.296875 138.0625 900.710938 136.550781 C 904.03125 141.628906 904.464844 150.378906 904.9375 165.734375 C 905.40625 150.378906 905.839844 141.628906 909.164062 136.550781 C 912.578125 138.0625 916.535156 141.324219 922.289062 146.335938 C 917.277344 140.578125 914.015625 136.621094 912.503906 133.207031 Z M 912.503906 133.207031 " fill-opacity="1" fill-rule="nonzero"/></g><g clip-path="url(#9761cadd33)"><path fill="#fcfdfd" d="M 916.398438 275.320312 C 924.066406 270.300781 937.277344 269.648438 960.464844 268.9375 C 937.277344 268.226562 924.066406 267.574219 916.398438 262.554688 C 918.683594 257.402344 923.605469 251.425781 931.175781 242.738281 C 922.484375 250.304688 916.507812 255.226562 911.355469 257.511719 C 906.335938 249.847656 905.683594 236.632812 904.972656 213.449219 C 904.261719 236.632812 903.609375 249.847656 898.589844 257.511719 C 893.4375 255.226562 887.460938 250.304688 878.773438 242.738281 C 886.339844 251.425781 891.261719 257.402344 893.546875 262.554688 C 885.882812 267.574219 872.667969 268.226562 849.480469 268.9375 C 872.667969 269.648438 885.882812 270.300781 893.546875 275.320312 C 891.261719 280.472656 886.339844 286.449219 878.773438 295.140625 C 887.460938 287.570312 893.4375 282.648438 898.589844 280.363281 C 903.609375 288.03125 904.261719 301.242188 904.972656 324.429688 C 905.683594 301.242188 906.335938 288.03125 911.355469 280.363281 C 916.507812 282.648438 922.484375 287.570312 931.175781 295.140625 C 923.605469 286.449219 918.683594 280.472656 916.398438 275.320312 Z M 916.398438 275.320312 " fill-opacity="1" fill-rule="nonzero"/></g><g clip-path="url(#1e6091ac04)"><path fill="#fcfdfd" d="M 913.058594 399 C 918.335938 395.546875 927.433594 395.097656 943.390625 394.605469 C 927.433594 394.117188 918.335938 393.667969 913.058594 390.214844 C 914.632812 386.664062 918.023438 382.554688 923.230469 376.570312 C 917.25 381.78125 913.136719 385.171875 909.589844 386.742188 C 906.136719 381.464844 905.6875 372.371094 905.195312 356.410156 C 904.707031 372.371094 904.257812 381.464844 900.804688 386.742188 C 897.253906 385.171875 893.144531 381.78125 887.160156 376.570312 C 892.371094 382.554688 895.761719 386.667969 897.332031 390.214844 C 892.054688 393.667969 882.960938 394.117188 867 394.605469 C 882.960938 395.097656 892.054688 395.546875 897.332031 399 C 895.761719 402.546875 892.371094 406.660156 887.160156 412.640625 C 893.144531 407.433594 897.257812 404.042969 900.804688 402.46875 C 904.257812 407.746094 904.707031 416.84375 905.195312 432.800781 C 905.6875 416.84375 906.136719 407.746094 909.589844 402.46875 C 913.136719 404.042969 917.25 407.433594 923.230469 412.640625 C 918.023438 406.660156 914.632812 402.546875 913.058594 399 Z M 913.058594 399 " fill-opacity="1" fill-rule="nonzero"/></g><g clip-path="url(#616d44978d)"><path fill="#fcfdfd" d="M 913.058594 522.652344 C 918.335938 519.199219 927.433594 518.75 943.390625 518.261719 C 927.433594 517.773438 918.335938 517.324219 913.058594 513.867188 C 914.632812 510.320312 918.023438 506.210938 923.230469 500.226562 C 917.25 505.4375 913.136719 508.824219 909.589844 510.398438 C 906.136719 505.121094 905.6875 496.027344 905.195312 480.066406 C 904.707031 496.027344 904.257812 505.121094 900.804688 510.398438 C 897.253906 508.824219 893.144531 505.4375 887.160156 500.226562 C 892.371094 506.210938 895.761719 510.320312 897.332031 513.867188 C 892.054688 517.324219 882.960938 517.773438 867 518.261719 C 882.960938 518.75 892.054688 519.199219 897.332031 522.652344 C 895.761719 526.203125 892.371094 530.3125 887.160156 536.296875 C 893.144531 531.085938 897.257812 527.699219 900.804688 526.125 C 904.257812 531.402344 904.707031 540.496094 905.195312 556.457031 C 905.6875 540.496094 906.136719 531.402344 909.589844 526.125 C 913.136719 527.699219 917.25 531.085938 923.230469 536.296875 C 918.023438 530.3125 914.632812 526.203125 913.058594 522.652344 Z M 913.058594 522.652344 " fill-opacity="1" fill-rule="nonzero"/></g><g clip-path="url(#ac651b3784)"><path fill="#fcfdfd" d="M 397.066406 107.394531 C 402.1875 104.042969 411.011719 103.605469 426.496094 103.132812 C 411.011719 102.65625 402.1875 102.21875 397.066406 98.871094 C 398.59375 95.425781 401.882812 91.4375 406.933594 85.632812 C 401.132812 90.6875 397.140625 93.976562 393.699219 95.503906 C 390.347656 90.382812 389.914062 81.558594 389.4375 66.074219 C 388.964844 81.558594 388.527344 90.382812 385.175781 95.503906 C 381.734375 93.976562 377.746094 90.6875 371.941406 85.632812 C 376.996094 91.4375 380.28125 95.425781 381.808594 98.871094 C 376.6875 102.21875 367.867188 102.65625 352.382812 103.132812 C 367.867188 103.605469 376.6875 104.042969 381.808594 107.394531 C 380.28125 110.835938 376.996094 114.824219 371.941406 120.628906 C 377.746094 115.574219 381.734375 112.285156 385.175781 110.761719 C 388.527344 115.878906 388.964844 124.703125 389.4375 140.1875 C 389.914062 124.703125 390.347656 115.878906 393.699219 110.761719 C 397.140625 112.285156 401.132812 115.574219 406.933594 120.628906 C 401.882812 114.824219 398.59375 110.835938 397.066406 107.394531 Z M 397.066406 107.394531 " fill-opacity="1" fill-rule="nonzero"/></g><g clip-path="url(#5f7342b32a)"><path fill="#fcfdfd" d="M 387.589844 238.574219 C 391.621094 235.933594 398.574219 235.589844 410.773438 235.21875 C 398.574219 234.84375 391.621094 234.5 387.589844 231.859375 C 388.792969 229.148438 391.382812 226.003906 395.363281 221.433594 C 390.789062 225.414062 387.648438 228.003906 384.933594 229.207031 C 382.296875 225.171875 381.953125 218.21875 381.578125 206.019531 C 381.203125 218.21875 380.859375 225.171875 378.21875 229.207031 C 375.507812 228.003906 372.363281 225.414062 367.792969 221.433594 C 371.773438 226.003906 374.363281 229.148438 375.566406 231.859375 C 371.53125 234.5 364.582031 234.84375 352.382812 235.21875 C 364.582031 235.589844 371.53125 235.933594 375.566406 238.574219 C 374.363281 241.289062 371.773438 244.429688 367.792969 249.003906 C 372.363281 245.019531 375.507812 242.429688 378.21875 241.226562 C 380.859375 245.261719 381.203125 252.214844 381.578125 264.414062 C 381.953125 252.214844 382.296875 245.261719 384.933594 241.226562 C 387.648438 242.429688 390.789062 245.019531 395.363281 249.003906 C 391.382812 244.429688 388.792969 241.285156 387.589844 238.574219 Z M 387.589844 238.574219 " fill-opacity="1" fill-rule="nonzero"/></g><g clip-path="url(#e28f75fa54)"><path fill="#fcfdfd" d="M 387.589844 378.519531 C 391.621094 375.882812 398.574219 375.539062 410.773438 375.164062 C 398.574219 374.789062 391.621094 374.445312 387.589844 371.804688 C 388.792969 369.09375 391.382812 365.949219 395.363281 361.378906 C 390.789062 365.359375 387.648438 367.949219 384.933594 369.152344 C 382.296875 365.117188 381.953125 358.167969 381.578125 345.96875 C 381.203125 358.167969 380.859375 365.117188 378.21875 369.152344 C 375.507812 367.949219 372.363281 365.359375 367.792969 361.378906 C 371.773438 365.949219 374.363281 369.09375 375.566406 371.804688 C 371.53125 374.445312 364.582031 374.789062 352.382812 375.164062 C 364.582031 375.539062 371.53125 375.882812 375.566406 378.519531 C 374.363281 381.234375 371.773438 384.375 367.792969 388.949219 C 372.363281 384.96875 375.507812 382.375 378.21875 381.175781 C 380.859375 385.207031 381.203125 392.160156 381.578125 404.359375 C 381.953125 392.160156 382.296875 385.207031 384.933594 381.175781 C 387.648438 382.375 390.789062 384.96875 395.363281 388.949219 C 391.382812 384.375 388.792969 381.234375 387.589844 378.519531 Z M 387.589844 378.519531 " fill-opacity="1" fill-rule="nonzero"/></g><g clip-path="url(#64888bb59e)"><path fill="#fcfdfd" d="M 399.785156 463.511719 C 404.335938 460.535156 412.179688 460.148438 425.941406 459.726562 C 412.179688 459.304688 404.335938 458.914062 399.785156 455.9375 C 401.140625 452.878906 404.066406 449.332031 408.558594 444.171875 C 403.398438 448.664062 399.851562 451.585938 396.792969 452.945312 C 393.8125 448.394531 393.425781 440.550781 393.003906 426.785156 C 392.582031 440.550781 392.195312 448.394531 389.214844 452.945312 C 386.15625 451.585938 382.609375 448.664062 377.453125 444.171875 C 381.945312 449.332031 384.867188 452.878906 386.222656 455.9375 C 381.671875 458.914062 373.828125 459.304688 360.066406 459.726562 C 373.828125 460.148438 381.671875 460.535156 386.222656 463.511719 C 384.867188 466.574219 381.945312 470.121094 377.453125 475.277344 C 382.609375 470.785156 386.15625 467.863281 389.214844 466.507812 C 392.195312 471.058594 392.582031 478.902344 393.003906 492.664062 C 393.425781 478.902344 393.8125 471.058594 396.792969 466.507812 C 399.851562 467.863281 403.398438 470.785156 408.558594 475.277344 C 404.066406 470.121094 401.140625 466.574219 399.785156 463.511719 Z M 399.785156 463.511719 " fill-opacity="1" fill-rule="nonzero"/></g><g clip-path="url(#b86b1ac867)"><path fill="#fcfdfd" d="M 509 36.726562 C 513.550781 33.75 521.394531 33.359375 535.15625 32.9375 C 521.394531 32.515625 513.550781 32.128906 509 29.152344 C 510.355469 26.089844 513.277344 22.546875 517.769531 17.386719 C 512.613281 21.878906 509.066406 24.800781 506.003906 26.15625 C 503.027344 21.605469 502.640625 13.761719 502.21875 0 C 501.796875 13.761719 501.40625 21.605469 498.429688 26.15625 C 495.371094 24.800781 491.824219 21.878906 486.664062 17.386719 C 491.15625 22.546875 494.078125 26.089844 495.4375 29.152344 C 490.886719 32.128906 483.042969 32.515625 469.277344 32.9375 C 483.042969 33.359375 490.886719 33.75 495.4375 36.726562 C 494.078125 39.785156 491.15625 43.332031 486.664062 48.492188 C 491.824219 44 495.371094 41.078125 498.429688 39.722656 C 501.40625 44.273438 501.796875 52.113281 502.21875 65.878906 C 502.640625 52.113281 503.027344 44.273438 506.003906 39.722656 C 509.066406 41.078125 512.613281 44 517.769531 48.492188 C 513.277344 43.332031 510.355469 39.785156 509 36.726562 Z M 509 36.726562 " fill-opacity="1" fill-rule="nonzero"/></g><g clip-path="url(#7e6fa3a5e5)"><path fill="#fcfdfd" d="M 509 163.3125 C 513.550781 160.332031 521.394531 159.945312 535.15625 159.523438 C 521.394531 159.101562 513.550781 158.714844 509 155.734375 C 510.355469 152.675781 513.277344 149.128906 517.769531 143.96875 C 512.613281 148.464844 509.066406 151.386719 506.003906 152.742188 C 503.027344 148.191406 502.640625 140.347656 502.21875 126.585938 C 501.796875 140.347656 501.40625 148.191406 498.429688 152.742188 C 495.371094 151.386719 491.824219 148.464844 486.664062 143.96875 C 491.15625 149.128906 494.078125 152.675781 495.4375 155.734375 C 490.886719 158.714844 483.042969 159.101562 469.277344 159.523438 C 483.042969 159.945312 490.886719 160.332031 495.4375 163.3125 C 494.078125 166.371094 491.15625 169.917969 486.664062 175.074219 C 491.824219 170.582031 495.371094 167.660156 498.429688 166.304688 C 501.40625 170.855469 501.796875 178.699219 502.21875 192.460938 C 502.640625 178.699219 503.027344 170.855469 506.003906 166.304688 C 509.066406 167.660156 512.613281 170.582031 517.769531 175.074219 C 513.277344 169.917969 510.355469 166.371094 509 163.3125 Z M 509 163.3125 " fill-opacity="1" fill-rule="nonzero"/></g><g clip-path="url(#bfa4e92083)"><path fill="#fcfdfd" d="M 512.550781 290.726562 C 519.429688 286.222656 531.285156 285.636719 552.085938 285 C 531.285156 284.363281 519.429688 283.777344 512.550781 279.273438 C 514.601562 274.648438 519.019531 269.292969 525.808594 261.496094 C 518.011719 268.285156 512.652344 272.699219 508.027344 274.75 C 503.527344 267.871094 502.941406 256.019531 502.300781 235.21875 C 501.664062 256.019531 501.078125 267.871094 496.578125 274.75 C 491.953125 272.699219 486.59375 268.285156 478.796875 261.496094 C 485.585938 269.292969 490.003906 274.652344 492.054688 279.273438 C 485.175781 283.777344 473.320312 284.363281 452.519531 285 C 473.320312 285.636719 485.175781 286.222656 492.054688 290.726562 C 490.003906 295.351562 485.585938 300.710938 478.796875 308.507812 C 486.59375 301.714844 491.953125 297.300781 496.578125 295.25 C 501.078125 302.128906 501.664062 313.980469 502.300781 334.78125 C 502.941406 313.980469 503.527344 302.128906 508.027344 295.25 C 512.652344 297.300781 518.011719 301.714844 525.808594 308.507812 C 519.019531 300.710938 514.601562 295.351562 512.550781 290.726562 Z M 512.550781 290.726562 " fill-opacity="1" fill-rule="nonzero"/></g><g clip-path="url(#a0f7fc5325)"><path fill="#fcfdfd" d="M 509.296875 401.316406 C 514 398.238281 522.113281 397.835938 536.34375 397.402344 C 522.113281 396.964844 514 396.5625 509.296875 393.484375 C 510.699219 390.320312 513.71875 386.652344 518.367188 381.316406 C 513.03125 385.964844 509.363281 388.984375 506.199219 390.386719 C 503.121094 385.679688 502.71875 377.570312 502.28125 363.339844 C 501.847656 377.570312 501.445312 385.679688 498.367188 390.386719 C 495.199219 388.984375 491.535156 385.964844 486.199219 381.316406 C 490.84375 386.652344 493.867188 390.320312 495.269531 393.484375 C 490.5625 396.5625 482.453125 396.964844 468.21875 397.402344 C 482.453125 397.835938 490.5625 398.238281 495.269531 401.316406 C 493.867188 404.480469 490.84375 408.148438 486.199219 413.484375 C 491.535156 408.835938 495.199219 405.816406 498.367188 404.414062 C 501.445312 409.121094 501.847656 417.230469 502.28125 431.460938 C 502.71875 417.230469 503.121094 409.121094 506.199219 404.414062 C 509.363281 405.816406 513.03125 408.835938 518.367188 413.484375 C 513.71875 408.148438 510.699219 404.480469 509.296875 401.316406 Z M 509.296875 401.316406 " fill-opacity="1" fill-rule="nonzero"/></g><g clip-path="url(#2a7369f244)"><path fill="#fcfdfd" d="M 509.296875 512.132812 C 514 509.054688 522.113281 508.652344 536.34375 508.21875 C 522.113281 507.78125 514 507.378906 509.296875 504.300781 C 510.699219 501.136719 513.71875 497.46875 518.367188 492.132812 C 513.03125 496.78125 509.363281 499.800781 506.199219 501.203125 C 503.121094 496.496094 502.71875 488.386719 502.28125 474.15625 C 501.847656 488.386719 501.445312 496.496094 498.367188 501.203125 C 495.199219 499.800781 491.535156 496.78125 486.199219 492.132812 C 490.84375 497.46875 493.867188 501.136719 495.269531 504.300781 C 490.5625 507.378906 482.453125 507.78125 468.21875 508.21875 C 482.453125 508.652344 490.5625 509.054688 495.269531 512.132812 C 493.867188 515.296875 490.84375 518.964844 486.199219 524.300781 C 491.535156 519.652344 495.199219 516.632812 498.367188 515.230469 C 501.445312 519.9375 501.847656 528.046875 502.28125 542.277344 C 502.71875 528.046875 503.121094 519.9375 506.199219 515.230469 C 509.363281 516.632812 513.03125 519.652344 518.367188 524.300781 C 513.71875 518.964844 510.699219 515.296875 509.296875 512.132812 Z M 509.296875 512.132812 " fill-opacity="1" fill-rule="nonzero"/></g><g clip-path="url(#4b9b64e04c)"><path fill="#fcfdfd" d="M 638.65625 108.664062 C 645.535156 104.164062 657.390625 103.578125 678.191406 102.941406 C 657.390625 102.300781 645.535156 101.71875 638.65625 97.214844 C 640.707031 92.589844 645.125 87.230469 651.914062 79.433594 C 644.117188 86.226562 638.757812 90.640625 634.132812 92.691406 C 629.632812 85.8125 629.046875 73.960938 628.40625 53.15625 C 627.769531 73.960938 627.183594 85.8125 622.683594 92.691406 C 618.058594 90.640625 612.699219 86.226562 604.902344 79.433594 C 611.691406 87.230469 616.109375 92.589844 618.15625 97.214844 C 611.28125 101.71875 599.425781 102.300781 578.625 102.941406 C 599.425781 103.578125 611.28125 104.164062 618.15625 108.664062 C 616.109375 113.289062 611.691406 118.648438 604.902344 126.445312 C 612.699219 119.65625 618.058594 115.242188 622.683594 113.191406 C 627.183594 120.070312 627.769531 131.921875 628.40625 152.722656 C 629.046875 131.921875 629.632812 120.070312 634.132812 113.191406 C 638.757812 115.242188 644.117188 119.65625 651.914062 126.445312 C 645.125 118.648438 640.707031 113.289062 638.65625 108.664062 Z M 638.65625 108.664062 " fill-opacity="1" fill-rule="nonzero"/></g><g clip-path="url(#ad5e993a8e)"><path fill="#fcfdfd" d="M 635.105469 219.074219 C 639.65625 216.097656 647.5 215.710938 661.261719 215.289062 C 647.5 214.867188 639.65625 214.476562 635.105469 211.5 C 636.460938 208.441406 639.382812 204.894531 643.875 199.734375 C 638.714844 204.226562 635.171875 207.148438 632.109375 208.507812 C 629.132812 203.957031 628.746094 196.113281 628.324219 182.347656 C 627.898438 196.113281 627.511719 203.957031 624.535156 208.507812 C 621.472656 207.148438 617.929688 204.226562 612.769531 199.734375 C 617.261719 204.894531 620.183594 208.441406 621.539062 211.5 C 616.988281 214.476562 609.148438 214.867188 595.382812 215.289062 C 609.148438 215.710938 616.988281 216.097656 621.539062 219.074219 C 620.183594 222.136719 617.261719 225.683594 612.769531 230.839844 C 617.929688 226.347656 621.472656 223.425781 624.535156 222.070312 C 627.511719 226.621094 627.898438 234.464844 628.324219 248.226562 C 628.746094 234.464844 629.132812 226.621094 632.109375 222.070312 C 635.171875 223.425781 638.714844 226.347656 643.875 230.839844 C 639.382812 225.683594 636.460938 222.136719 635.105469 219.074219 Z M 635.105469 219.074219 " fill-opacity="1" fill-rule="nonzero"/></g><g clip-path="url(#f5aaf2b305)"><path fill="#fcfdfd" d="M 633.8125 333.992188 C 638.363281 331.011719 646.207031 330.625 659.96875 330.203125 C 646.207031 329.78125 638.363281 329.390625 633.8125 326.414062 C 635.167969 323.355469 638.089844 319.808594 642.582031 314.648438 C 637.425781 319.140625 633.878906 322.066406 630.820312 323.421875 C 627.839844 318.871094 627.453125 311.027344 627.03125 297.261719 C 626.609375 311.027344 626.222656 318.871094 623.242188 323.421875 C 620.183594 322.066406 616.636719 319.140625 611.476562 314.648438 C 615.96875 319.808594 618.894531 323.355469 620.25 326.414062 C 615.699219 329.390625 607.855469 329.78125 594.089844 330.203125 C 607.855469 330.625 615.699219 331.011719 620.25 333.992188 C 618.894531 337.050781 615.96875 340.597656 611.476562 345.753906 C 616.636719 341.261719 620.183594 338.339844 623.242188 336.984375 C 626.222656 341.535156 626.609375 349.378906 627.03125 363.140625 C 627.453125 349.378906 627.839844 341.535156 630.820312 336.984375 C 633.878906 338.339844 637.425781 341.261719 642.582031 345.753906 C 638.089844 340.597656 635.167969 337.050781 633.8125 333.992188 Z M 633.8125 333.992188 " fill-opacity="1" fill-rule="nonzero"/></g><g clip-path="url(#e767ac9eba)"><path fill="#fcfdfd" d="M 638.421875 456.527344 C 645.300781 452.023438 657.15625 451.441406 677.957031 450.800781 C 657.15625 450.164062 645.300781 449.578125 638.421875 445.078125 C 640.472656 440.453125 644.890625 435.09375 651.679688 427.296875 C 643.882812 434.085938 638.523438 438.5 633.898438 440.550781 C 629.398438 433.671875 628.8125 421.820312 628.175781 401.019531 C 627.535156 421.820312 626.949219 433.671875 622.449219 440.550781 C 617.824219 438.5 612.464844 434.085938 604.667969 427.296875 C 611.457031 435.09375 615.875 440.453125 617.925781 445.078125 C 611.046875 449.578125 599.191406 450.164062 578.390625 450.800781 C 599.191406 451.441406 611.046875 452.023438 617.925781 456.527344 C 615.875 461.152344 611.457031 466.511719 604.667969 474.308594 C 612.464844 467.515625 617.824219 463.101562 622.449219 461.050781 C 626.949219 467.929688 627.535156 479.78125 628.175781 500.585938 C 628.8125 479.78125 629.398438 467.929688 633.898438 461.050781 C 638.523438 463.101562 643.882812 467.515625 651.679688 474.308594 C 644.890625 466.511719 640.472656 461.152344 638.421875 456.527344 Z M 638.421875 456.527344 " fill-opacity="1" fill-rule="nonzero"/></g></svg>