<svg xmlns="http://www.w3.org/2000/svg" xmlns:xlink="http://www.w3.org/1999/xlink" width="1280" zoomAndPan="magnify" viewBox="0 0 960 540.000001" height="720" preserveAspectRatio="xMidYMid meet" version="1.0"><defs><filter x="0%" y="0%" width="100%" height="100%" id="685c225cfc"><feColorMatrix values="0 0 0 0 1 0 0 0 0 1 0 0 0 0 1 0 0 0 1 0" color-interpolation-filters="sRGB"/></filter><clipPath id="0b6aa124da"><path d="M 0.886719 62 L 41 62 L 41 138 L 0.886719 138 Z M 0.886719 62 " clip-rule="nonzero"/></clipPath><mask id="7a44e185b0"><g filter="url(#685c225cfc)"><rect x="-96" width="1152" fill="#000000" y="-54" height="648.000001" fill-opacity="0.4784"/></g></mask><clipPath id="e020aa02a3"><path d="M 0.886719 0.730469 L 40.769531 0.730469 L 40.769531 74.84375 L 0.886719 74.84375 Z M 0.886719 0.730469 " clip-rule="nonzero"/></clipPath><clipPath id="7cc4562cfe"><rect x="0" width="41" y="0" height="76"/></clipPath><clipPath id="f354b48d52"><path d="M 0.886719 202 L 26 202 L 26 262 L 0.886719 262 Z M 0.886719 202 " clip-rule="nonzero"/></clipPath><mask id="478ca2e150"><g filter="url(#685c225cfc)"><rect x="-96" width="1152" fill="#000000" y="-54" height="648.000001" fill-opacity="0.4784"/></g></mask><clipPath id="e49057fff2"><path d="M 0.886719 0.675781 L 25.050781 0.675781 L 25.050781 59.070312 L 0.886719 59.070312 Z M 0.886719 0.675781 " clip-rule="nonzero"/></clipPath><clipPath id="9da0d82ee1"><rect x="0" width="26" y="0" height="60"/></clipPath><clipPath id="c1ab6416d0"><path d="M 0.886719 342 L 26 342 L 26 402 L 0.886719 402 Z M 0.886719 342 " clip-rule="nonzero"/></clipPath><mask id="6fb09f9f6b"><g filter="url(#685c225cfc)"><rect x="-96" width="1152" fill="#000000" y="-54" height="648.000001" fill-opacity="0.4784"/></g></mask><clipPath id="31ec87ad40"><path d="M 0.886719 0.625 L 25.050781 0.625 L 25.050781 59.015625 L 0.886719 59.015625 Z M 0.886719 0.625 " clip-rule="nonzero"/></clipPath><clipPath id="a632856fb9"><rect x="0" width="26" y="0" height="60"/></clipPath><clipPath id="066e4a958f"><path d="M 0.886719 423 L 41 423 L 41 490 L 0.886719 490 Z M 0.886719 423 " clip-rule="nonzero"/></clipPath><mask id="890b934d69"><g filter="url(#685c225cfc)"><rect x="-96" width="1152" fill="#000000" y="-54" height="648.000001" fill-opacity="0.4784"/></g></mask><clipPath id="e457b07a1e"><path d="M 0.886719 0.441406 L 40.21875 0.441406 L 40.21875 66.320312 L 0.886719 66.320312 Z M 0.886719 0.441406 " clip-rule="nonzero"/></clipPath><clipPath id="8f5447e3ca"><rect x="0" width="41" y="0" height="67"/></clipPath><mask id="5b451b3131"><g filter="url(#685c225cfc)"><rect x="-96" width="1152" fill="#000000" y="-54" height="648.000001" fill-opacity="0.4784"/></g></mask><clipPath id="a7a289e082"><path d="M 0.554688 0 L 66.433594 0 L 66.433594 62.535156 L 0.554688 62.535156 Z M 0.554688 0 " clip-rule="nonzero"/></clipPath><clipPath id="8a832a76de"><rect x="0" width="67" y="0" height="63"/></clipPath><mask id="c53731f1d9"><g filter="url(#685c225cfc)"><rect x="-96" width="1152" fill="#000000" y="-54" height="648.000001" fill-opacity="0.4784"/></g></mask><clipPath id="60b2deb6cf"><path d="M 0.554688 0.238281 L 66.433594 0.238281 L 66.433594 66.117188 L 0.554688 66.117188 Z M 0.554688 0.238281 " clip-rule="nonzero"/></clipPath><clipPath id="7c94cd3ee1"><rect x="0" width="67" y="0" height="67"/></clipPath><mask id="834abe49f4"><g filter="url(#685c225cfc)"><rect x="-96" width="1152" fill="#000000" y="-54" height="648.000001" fill-opacity="0.4784"/></g></mask><clipPath id="6ff6f9d50c"><path d="M 0.796875 0.871094 L 100.363281 0.871094 L 100.363281 100.4375 L 0.796875 100.4375 Z M 0.796875 0.871094 " clip-rule="nonzero"/></clipPath><clipPath id="6788e17deb"><rect x="0" width="101" y="0" height="101"/></clipPath><mask id="98c00d2a07"><g filter="url(#685c225cfc)"><rect x="-96" width="1152" fill="#000000" y="-54" height="648.000001" fill-opacity="0.4784"/></g></mask><clipPath id="ab258c136e"><path d="M 0.496094 0.992188 L 68.621094 0.992188 L 68.621094 69.117188 L 0.496094 69.117188 Z M 0.496094 0.992188 " clip-rule="nonzero"/></clipPath><clipPath id="22ffce8f0f"><rect x="0" width="69" y="0" height="70"/></clipPath><mask id="9587cf1628"><g filter="url(#685c225cfc)"><rect x="-96" width="1152" fill="#000000" y="-54" height="648.000001" fill-opacity="0.4784"/></g></mask><clipPath id="0335ee677a"><path d="M 0.496094 0.808594 L 68.621094 0.808594 L 68.621094 68.933594 L 0.496094 68.933594 Z M 0.496094 0.808594 " clip-rule="nonzero"/></clipPath><clipPath id="f1ce375a0f"><rect x="0" width="69" y="0" height="69"/></clipPath><mask id="7f7fc6f12f"><g filter="url(#685c225cfc)"><rect x="-96" width="1152" fill="#000000" y="-54" height="648.000001" fill-opacity="0.4784"/></g></mask><clipPath id="a0136b128c"><path d="M 15.089844 0.8125 L 100.433594 0.8125 L 100.433594 95.140625 L 15.089844 95.140625 Z M 15.089844 0.8125 " clip-rule="nonzero"/></clipPath><clipPath id="0a407adc60"><rect x="0" width="101" y="0" height="101"/></clipPath><mask id="35ae485034"><g filter="url(#685c225cfc)"><rect x="-96" width="1152" fill="#000000" y="-54" height="648.000001" fill-opacity="0.4784"/></g></mask><clipPath id="c110319684"><path d="M 0.660156 1.003906 L 66.539062 1.003906 L 66.539062 66.882812 L 0.660156 66.882812 Z M 0.660156 1.003906 " clip-rule="nonzero"/></clipPath><clipPath id="3f0c2917ec"><rect x="0" width="67" y="0" height="68"/></clipPath><mask id="a17e7cd335"><g filter="url(#685c225cfc)"><rect x="-96" width="1152" fill="#000000" y="-54" height="648.000001" fill-opacity="0.4784"/></g></mask><clipPath id="65c033d333"><path d="M 0.367188 0.917969 L 66.246094 0.917969 L 66.246094 66.796875 L 0.367188 66.796875 Z M 0.367188 0.917969 " clip-rule="nonzero"/></clipPath><clipPath id="a4c2412e58"><rect x="0" width="67" y="0" height="67"/></clipPath><mask id="209828cbc6"><g filter="url(#685c225cfc)"><rect x="-96" width="1152" fill="#000000" y="-54" height="648.000001" fill-opacity="0.4784"/></g></mask><clipPath id="c25b182e55"><path d="M 0.667969 0.675781 L 100.234375 0.675781 L 100.234375 100.238281 L 0.667969 100.238281 Z M 0.667969 0.675781 " clip-rule="nonzero"/></clipPath><clipPath id="8ea78676ba"><rect x="0" width="101" y="0" height="101"/></clipPath><clipPath id="016ecc3d5f"><path d="M 737 0 L 959.113281 0 L 959.113281 539 L 737 539 Z M 737 0 " clip-rule="nonzero"/></clipPath><mask id="cefd346e82"><g filter="url(#685c225cfc)"><rect x="-96" width="1152" fill="#000000" y="-54" height="648.000001" fill-opacity="0.4784"/></g></mask><clipPath id="3476e1b48c"><path d="M 0.742188 24.710938 L 82.898438 24.710938 L 82.898438 106.863281 L 0.742188 106.863281 Z M 0.742188 24.710938 " clip-rule="nonzero"/></clipPath><clipPath id="417a3f8833"><path d="M 0.742188 180.867188 L 65.601562 180.867188 L 65.601562 245.726562 L 0.742188 245.726562 Z M 0.742188 180.867188 " clip-rule="nonzero"/></clipPath><clipPath id="55637f8b91"><path d="M 0.742188 337.027344 L 65.601562 337.027344 L 65.601562 401.886719 L 0.742188 401.886719 Z M 0.742188 337.027344 " clip-rule="nonzero"/></clipPath><clipPath id="d7e1fca278"><path d="M 9.316406 427.210938 L 82.824219 427.210938 L 82.824219 500.71875 L 9.316406 500.71875 Z M 9.316406 427.210938 " clip-rule="nonzero"/></clipPath><clipPath id="c0eda3a03b"><path d="M 131.183594 0 L 204.6875 0 L 204.6875 24.484375 L 131.183594 24.484375 Z M 131.183594 0 " clip-rule="nonzero"/></clipPath><clipPath id="2360d051b4"><path d="M 131.183594 92.230469 L 204.6875 92.230469 L 204.6875 165.734375 L 131.183594 165.734375 Z M 131.183594 92.230469 " clip-rule="nonzero"/></clipPath><clipPath id="80a37be524"><path d="M 112.480469 213.449219 L 222.113281 213.449219 L 222.113281 324.429688 L 112.480469 324.429688 Z M 112.480469 213.449219 " clip-rule="nonzero"/></clipPath><clipPath id="5455c4c9a3"><path d="M 130 356.410156 L 206.390625 356.410156 L 206.390625 432.800781 L 130 432.800781 Z M 130 356.410156 " clip-rule="nonzero"/></clipPath><clipPath id="3efe68622e"><path d="M 130 480.066406 L 206.390625 480.066406 L 206.390625 539 L 130 539 Z M 130 480.066406 " clip-rule="nonzero"/></clipPath><clipPath id="4f827bcc00"><rect x="0" width="223" y="0" height="539"/></clipPath><mask id="da07912e3c"><g filter="url(#685c225cfc)"><rect x="-96" width="1152" fill="#000000" y="-54" height="648.000001" fill-opacity="0.4784"/></g></mask><clipPath id="851072ea85"><path d="M 0.382812 1.074219 L 74.496094 1.074219 L 74.496094 75.1875 L 0.382812 75.1875 Z M 0.382812 1.074219 " clip-rule="nonzero"/></clipPath><clipPath id="267595d994"><rect x="0" width="75" y="0" height="76"/></clipPath><mask id="8ae9652257"><g filter="url(#685c225cfc)"><rect x="-96" width="1152" fill="#000000" y="-54" height="648.000001" fill-opacity="0.4784"/></g></mask><clipPath id="1f45b9d098"><path d="M 0.382812 0.0195312 L 58.773438 0.0195312 L 58.773438 58.414062 L 0.382812 58.414062 Z M 0.382812 0.0195312 " clip-rule="nonzero"/></clipPath><clipPath id="d8e6354b99"><rect x="0" width="60" y="0" height="59"/></clipPath><mask id="13600ef271"><g filter="url(#685c225cfc)"><rect x="-96" width="1152" fill="#000000" y="-54" height="648.000001" fill-opacity="0.4784"/></g></mask><clipPath id="69d08b0284"><path d="M 0.382812 0.96875 L 58.773438 0.96875 L 58.773438 59.359375 L 0.382812 59.359375 Z M 0.382812 0.96875 " clip-rule="nonzero"/></clipPath><clipPath id="3850b15025"><rect x="0" width="60" y="0" height="60"/></clipPath><mask id="4620a12327"><g filter="url(#685c225cfc)"><rect x="-96" width="1152" fill="#000000" y="-54" height="648.000001" fill-opacity="0.4784"/></g></mask><clipPath id="999fed6e2d"><path d="M 1.066406 0.785156 L 66.941406 0.785156 L 66.941406 66.664062 L 1.066406 66.664062 Z M 1.066406 0.785156 " clip-rule="nonzero"/></clipPath><clipPath id="ba8ad27d3c"><rect x="0" width="68" y="0" height="67"/></clipPath><mask id="ba728dc9bf"><g filter="url(#685c225cfc)"><rect x="-96" width="1152" fill="#000000" y="-54" height="648.000001" fill-opacity="0.4784"/></g></mask><clipPath id="2c046df1c0"><path d="M 0.277344 0 L 66.15625 0 L 66.15625 65.878906 L 0.277344 65.878906 Z M 0.277344 0 " clip-rule="nonzero"/></clipPath><clipPath id="657dde0cd4"><rect x="0" width="67" y="0" height="66"/></clipPath><mask id="81245a2ec8"><g filter="url(#685c225cfc)"><rect x="-96" width="1152" fill="#000000" y="-54" height="648.000001" fill-opacity="0.4784"/></g></mask><clipPath id="6c52893cd8"><path d="M 0.277344 0.585938 L 66.15625 0.585938 L 66.15625 66.460938 L 0.277344 66.460938 Z M 0.277344 0.585938 " clip-rule="nonzero"/></clipPath><clipPath id="c78c23f54e"><rect x="0" width="67" y="0" height="67"/></clipPath><mask id="4113261c0a"><g filter="url(#685c225cfc)"><rect x="-96" width="1152" fill="#000000" y="-54" height="648.000001" fill-opacity="0.4784"/></g></mask><clipPath id="38ac1edeac"><path d="M 0.519531 0.21875 L 100.085938 0.21875 L 100.085938 99.78125 L 0.519531 99.78125 Z M 0.519531 0.21875 " clip-rule="nonzero"/></clipPath><clipPath id="30463fa7ca"><rect x="0" width="101" y="0" height="100"/></clipPath><mask id="180e59db6e"><g filter="url(#685c225cfc)"><rect x="-96" width="1152" fill="#000000" y="-54" height="648.000001" fill-opacity="0.4784"/></g></mask><clipPath id="c09c80c57c"><path d="M 0.21875 0.339844 L 68.34375 0.339844 L 68.34375 68.460938 L 0.21875 68.460938 Z M 0.21875 0.339844 " clip-rule="nonzero"/></clipPath><clipPath id="6791476fd5"><rect x="0" width="69" y="0" height="69"/></clipPath><mask id="dcbab7f068"><g filter="url(#685c225cfc)"><rect x="-96" width="1152" fill="#000000" y="-54" height="648.000001" fill-opacity="0.4784"/></g></mask><clipPath id="58b37a19ae"><path d="M 0.21875 0.15625 L 68.34375 0.15625 L 68.34375 65 L 0.21875 65 Z M 0.21875 0.15625 " clip-rule="nonzero"/></clipPath><clipPath id="f7f398cd81"><rect x="0" width="69" y="0" height="65"/></clipPath><mask id="843c9b3b1a"><g filter="url(#685c225cfc)"><rect x="-96" width="1152" fill="#000000" y="-54" height="648.000001" fill-opacity="0.4784"/></g></mask><clipPath id="e1a2ab79a3"><path d="M 14.816406 1.15625 L 100.15625 1.15625 L 100.15625 95.484375 L 14.816406 95.484375 Z M 14.816406 1.15625 " clip-rule="nonzero"/></clipPath><clipPath id="058567120f"><rect x="0" width="101" y="0" height="101"/></clipPath><mask id="0773997745"><g filter="url(#685c225cfc)"><rect x="-96" width="1152" fill="#000000" y="-54" height="648.000001" fill-opacity="0.4784"/></g></mask><clipPath id="a915f5a13c"><path d="M 0.382812 0.347656 L 66.261719 0.347656 L 66.261719 66.226562 L 0.382812 66.226562 Z M 0.382812 0.347656 " clip-rule="nonzero"/></clipPath><clipPath id="c202d53c4a"><rect x="0" width="67" y="0" height="67"/></clipPath><mask id="6937050ef0"><g filter="url(#685c225cfc)"><rect x="-96" width="1152" fill="#000000" y="-54" height="648.000001" fill-opacity="0.4784"/></g></mask><clipPath id="d90849e401"><path d="M 0.0898438 0.261719 L 65.96875 0.261719 L 65.96875 66.140625 L 0.0898438 66.140625 Z M 0.0898438 0.261719 " clip-rule="nonzero"/></clipPath><clipPath id="9afbb895ef"><rect x="0" width="67" y="0" height="67"/></clipPath><mask id="81dc6d9773"><g filter="url(#685c225cfc)"><rect x="-96" width="1152" fill="#000000" y="-54" height="648.000001" fill-opacity="0.4784"/></g></mask><clipPath id="c13b437a5b"><path d="M 0.390625 0.0195312 L 99.957031 0.0195312 L 99.957031 99.585938 L 0.390625 99.585938 Z M 0.390625 0.0195312 " clip-rule="nonzero"/></clipPath><clipPath id="6c4f178039"><rect x="0" width="101" y="0" height="100"/></clipPath></defs><g clip-path="url(#0b6aa124da)"><g mask="url(#7a44e185b0)"><g transform="matrix(1, 0, 0, 1, 0.000000000000000222, 62)"><g clip-path="url(#7cc4562cfe)"><g clip-path="url(#e020aa02a3)"><path fill="#fcfdfd" d="M 11.34375 42.046875 C 16.464844 38.699219 25.285156 38.261719 40.769531 37.785156 C 25.285156 37.3125 16.464844 36.875 11.34375 33.527344 C 12.871094 30.082031 16.15625 26.09375 21.210938 20.289062 C 15.40625 25.34375 11.417969 28.632812 7.976562 30.15625 C 4.625 25.039062 4.1875 16.214844 3.714844 0.730469 C 3.238281 16.214844 2.804688 25.039062 -0.546875 30.15625 C -3.988281 28.632812 -7.980469 25.34375 -13.78125 20.289062 C -8.730469 26.09375 -5.441406 30.082031 -3.914062 33.527344 C -9.035156 36.875 -17.859375 37.3125 -33.34375 37.785156 C -17.859375 38.261719 -9.035156 38.699219 -3.914062 42.046875 C -5.441406 45.492188 -8.730469 49.480469 -13.78125 55.285156 C -7.980469 50.230469 -3.988281 46.941406 -0.546875 45.417969 C 2.804688 50.535156 3.238281 59.359375 3.714844 74.84375 C 4.1875 59.359375 4.625 50.535156 7.976562 45.417969 C 11.417969 46.941406 15.40625 50.230469 21.210938 55.285156 C 16.15625 49.480469 12.871094 45.492188 11.34375 42.046875 Z M 11.34375 42.046875 " fill-opacity="1" fill-rule="nonzero"/></g></g></g></g></g><g clip-path="url(#f354b48d52)"><g mask="url(#478ca2e150)"><g transform="matrix(1, 0, 0, 1, 0.000000000000000222, 202)"><g clip-path="url(#9da0d82ee1)"><g clip-path="url(#e49057fff2)"><path fill="#fcfdfd" d="M 1.863281 33.230469 C 5.898438 30.589844 12.851562 30.246094 25.050781 29.871094 C 12.851562 29.5 5.898438 29.15625 1.863281 26.515625 C 3.066406 23.804688 5.65625 20.660156 9.640625 16.085938 C 5.066406 20.070312 1.921875 22.660156 -0.789062 23.863281 C -3.429688 19.828125 -3.773438 12.875 -4.144531 0.675781 C -4.519531 12.875 -4.863281 19.828125 -7.503906 23.863281 C -10.214844 22.660156 -13.359375 20.070312 -17.933594 16.085938 C -13.949219 20.660156 -11.359375 23.804688 -10.15625 26.515625 C -14.191406 29.15625 -21.144531 29.5 -33.34375 29.871094 C -21.144531 30.246094 -14.191406 30.589844 -10.15625 33.230469 C -11.359375 35.941406 -13.949219 39.085938 -17.933594 43.660156 C -13.359375 39.675781 -10.214844 37.085938 -7.503906 35.882812 C -4.863281 39.917969 -4.519531 46.871094 -4.144531 59.070312 C -3.773438 46.871094 -3.429688 39.917969 -0.789062 35.882812 C 1.921875 37.085938 5.066406 39.675781 9.640625 43.660156 C 5.65625 39.085938 3.066406 35.941406 1.863281 33.230469 Z M 1.863281 33.230469 " fill-opacity="1" fill-rule="nonzero"/></g></g></g></g></g><g clip-path="url(#c1ab6416d0)"><g mask="url(#6fb09f9f6b)"><g transform="matrix(1, 0, 0, 1, 0.000000000000000222, 342)"><g clip-path="url(#a632856fb9)"><g clip-path="url(#31ec87ad40)"><path fill="#fcfdfd" d="M 1.863281 33.175781 C 5.898438 30.535156 12.851562 30.195312 25.050781 29.820312 C 12.851562 29.445312 5.898438 29.101562 1.863281 26.460938 C 3.066406 23.75 5.65625 20.605469 9.640625 16.035156 C 5.066406 20.015625 1.921875 22.605469 -0.789062 23.808594 C -3.429688 19.773438 -3.773438 12.824219 -4.144531 0.625 C -4.519531 12.824219 -4.863281 19.773438 -7.503906 23.808594 C -10.214844 22.605469 -13.359375 20.015625 -17.933594 16.035156 C -13.949219 20.605469 -11.359375 23.75 -10.15625 26.460938 C -14.191406 29.101562 -21.144531 29.445312 -33.34375 29.820312 C -21.144531 30.195312 -14.191406 30.535156 -10.15625 33.175781 C -11.359375 35.890625 -13.949219 39.03125 -17.933594 43.605469 C -13.359375 39.621094 -10.214844 37.03125 -7.503906 35.832031 C -4.863281 39.863281 -4.519531 46.816406 -4.144531 59.015625 C -3.773438 46.816406 -3.429688 39.863281 -0.789062 35.832031 C 1.921875 37.03125 5.066406 39.621094 9.640625 43.605469 C 5.65625 39.03125 3.066406 35.890625 1.863281 33.175781 Z M 1.863281 33.175781 " fill-opacity="1" fill-rule="nonzero"/></g></g></g></g></g><g clip-path="url(#066e4a958f)"><g mask="url(#890b934d69)"><g transform="matrix(1, 0, 0, 1, 0.000000000000000222, 423)"><g clip-path="url(#8f5447e3ca)"><g clip-path="url(#e457b07a1e)"><path fill="#fcfdfd" d="M 14.0625 37.167969 C 18.613281 34.191406 26.457031 33.804688 40.21875 33.382812 C 26.457031 32.957031 18.613281 32.570312 14.0625 29.59375 C 15.417969 26.53125 18.339844 22.988281 22.832031 17.828125 C 17.675781 22.320312 14.128906 25.242188 11.066406 26.597656 C 8.089844 22.046875 7.703125 14.207031 7.28125 0.441406 C 6.859375 14.207031 6.46875 22.046875 3.492188 26.597656 C 0.433594 25.242188 -3.113281 22.320312 -8.273438 17.828125 C -3.78125 22.988281 -0.859375 26.53125 0.5 29.59375 C -4.050781 32.570312 -11.894531 32.957031 -25.660156 33.382812 C -11.894531 33.804688 -4.050781 34.191406 0.5 37.167969 C -0.859375 40.230469 -3.78125 43.773438 -8.273438 48.933594 C -3.113281 44.441406 0.433594 41.519531 3.492188 40.164062 C 6.46875 44.714844 6.859375 52.558594 7.28125 66.320312 C 7.703125 52.558594 8.089844 44.714844 11.066406 40.164062 C 14.128906 41.519531 17.675781 44.441406 22.832031 48.933594 C 18.339844 43.773438 15.417969 40.230469 14.0625 37.167969 Z M 14.0625 37.167969 " fill-opacity="1" fill-rule="nonzero"/></g></g></g></g></g><g mask="url(#5b451b3131)"><g transform="matrix(1, 0, 0, 1, 83, 0.000000000000017795)"><g clip-path="url(#8a832a76de)"><g clip-path="url(#a7a289e082)"><path fill="#fcfdfd" d="M 40.273438 33.382812 C 44.824219 30.40625 52.667969 30.015625 66.433594 29.59375 C 52.667969 29.171875 44.824219 28.785156 40.273438 25.804688 C 41.632812 22.746094 44.554688 19.199219 49.046875 14.042969 C 43.886719 18.535156 40.339844 21.457031 37.28125 22.8125 C 34.304688 18.261719 33.914062 10.417969 33.492188 -3.34375 C 33.070312 10.417969 32.683594 18.261719 29.707031 22.8125 C 26.644531 21.457031 23.097656 18.535156 17.941406 14.042969 C 22.433594 19.199219 25.355469 22.746094 26.710938 25.804688 C 22.160156 28.785156 14.316406 29.171875 0.554688 29.59375 C 14.316406 30.015625 22.160156 30.40625 26.710938 33.382812 C 25.355469 36.441406 22.433594 39.988281 17.941406 45.148438 C 23.097656 40.65625 26.644531 37.734375 29.707031 36.375 C 32.683594 40.925781 33.070312 48.769531 33.492188 62.535156 C 33.914062 48.769531 34.304688 40.925781 37.28125 36.375 C 40.339844 37.734375 43.886719 40.65625 49.046875 45.148438 C 44.554688 39.988281 41.632812 36.441406 40.273438 33.382812 Z M 40.273438 33.382812 " fill-opacity="1" fill-rule="nonzero"/></g></g></g></g><g mask="url(#c53731f1d9)"><g transform="matrix(1, 0, 0, 1, 83, 123)"><g clip-path="url(#7c94cd3ee1)"><g clip-path="url(#60b2deb6cf)"><path fill="#fcfdfd" d="M 40.273438 36.964844 C 44.824219 33.988281 52.667969 33.601562 66.433594 33.179688 C 52.667969 32.757812 44.824219 32.367188 40.273438 29.390625 C 41.632812 26.332031 44.554688 22.785156 49.046875 17.625 C 43.886719 22.117188 40.339844 25.039062 37.28125 26.398438 C 34.304688 21.847656 33.914062 14.003906 33.492188 0.238281 C 33.070312 14.003906 32.683594 21.847656 29.707031 26.398438 C 26.644531 25.039062 23.097656 22.117188 17.941406 17.625 C 22.433594 22.785156 25.355469 26.332031 26.710938 29.390625 C 22.160156 32.367188 14.316406 32.757812 0.554688 33.179688 C 14.316406 33.601562 22.160156 33.988281 26.710938 36.964844 C 25.355469 40.027344 22.433594 43.574219 17.941406 48.730469 C 23.097656 44.238281 26.644531 41.316406 29.707031 39.960938 C 32.683594 44.511719 33.070312 52.355469 33.492188 66.117188 C 33.914062 52.355469 34.304688 44.511719 37.28125 39.960938 C 40.339844 41.316406 43.886719 44.238281 49.046875 48.730469 C 44.554688 43.574219 41.632812 40.027344 40.273438 36.964844 Z M 40.273438 36.964844 " fill-opacity="1" fill-rule="nonzero"/></g></g></g></g><g mask="url(#834abe49f4)"><g transform="matrix(1, 0, 0, 1, 66, 231)"><g clip-path="url(#6788e17deb)"><g clip-path="url(#6ff6f9d50c)"><path fill="#fcfdfd" d="M 60.828125 56.378906 C 67.707031 51.878906 79.558594 51.292969 100.363281 50.65625 C 79.558594 50.015625 67.707031 49.429688 60.828125 44.929688 C 62.878906 40.304688 67.292969 34.945312 74.085938 27.148438 C 66.289062 33.941406 60.929688 38.355469 56.304688 40.40625 C 51.800781 33.527344 51.21875 21.675781 50.578125 0.871094 C 49.941406 21.675781 49.355469 33.527344 44.855469 40.40625 C 40.230469 38.355469 34.871094 33.941406 27.074219 27.148438 C 33.863281 34.945312 38.277344 40.304688 40.328125 44.929688 C 33.449219 49.429688 21.597656 50.015625 0.796875 50.65625 C 21.597656 51.292969 33.449219 51.878906 40.328125 56.378906 C 38.277344 61.003906 33.863281 66.363281 27.074219 74.160156 C 34.871094 67.371094 40.230469 62.953125 44.855469 60.90625 C 49.355469 67.785156 49.941406 79.636719 50.578125 100.4375 C 51.21875 79.636719 51.800781 67.785156 56.304688 60.90625 C 60.929688 62.953125 66.289062 67.371094 74.085938 74.160156 C 67.292969 66.363281 62.878906 61.003906 60.828125 56.378906 Z M 60.828125 56.378906 " fill-opacity="1" fill-rule="nonzero"/></g></g></g></g><g mask="url(#98c00d2a07)"><g transform="matrix(1, 0, 0, 1, 82, 359)"><g clip-path="url(#22ffce8f0f)"><g clip-path="url(#ab258c136e)"><path fill="#fcfdfd" d="M 41.570312 38.972656 C 46.277344 35.894531 54.386719 35.492188 68.621094 35.054688 C 54.386719 34.621094 46.277344 34.21875 41.570312 31.140625 C 42.972656 27.972656 45.996094 24.308594 50.640625 18.972656 C 45.304688 23.617188 41.640625 26.640625 38.476562 28.042969 C 35.394531 23.335938 34.996094 15.226562 34.558594 0.992188 C 34.121094 15.226562 33.722656 23.335938 30.640625 28.042969 C 27.476562 26.640625 23.808594 23.617188 18.476562 18.972656 C 23.121094 24.308594 26.144531 27.976562 27.546875 31.140625 C 22.839844 34.21875 14.730469 34.621094 0.496094 35.054688 C 14.730469 35.492188 22.839844 35.894531 27.546875 38.972656 C 26.144531 42.136719 23.121094 45.804688 18.476562 51.140625 C 23.808594 46.492188 27.476562 43.472656 30.640625 42.070312 C 33.722656 46.773438 34.121094 54.886719 34.558594 69.117188 C 34.996094 54.886719 35.394531 46.773438 38.476562 42.070312 C 41.640625 43.472656 45.304688 46.492188 50.640625 51.140625 C 45.996094 45.804688 42.972656 42.136719 41.570312 38.972656 Z M 41.570312 38.972656 " fill-opacity="1" fill-rule="nonzero"/></g></g></g></g><g mask="url(#9587cf1628)"><g transform="matrix(1, 0, 0, 1, 82, 470)"><g clip-path="url(#f1ce375a0f)"><g clip-path="url(#0335ee677a)"><path fill="#fcfdfd" d="M 41.570312 38.789062 C 46.277344 35.710938 54.386719 35.308594 68.621094 34.871094 C 54.386719 34.4375 46.277344 34.035156 41.570312 30.957031 C 42.972656 27.789062 45.996094 24.125 50.640625 18.789062 C 45.304688 23.433594 41.640625 26.457031 38.476562 27.859375 C 35.394531 23.152344 34.996094 15.042969 34.558594 0.808594 C 34.121094 15.042969 33.722656 23.152344 30.640625 27.859375 C 27.476562 26.457031 23.808594 23.433594 18.476562 18.789062 C 23.121094 24.125 26.144531 27.792969 27.546875 30.957031 C 22.839844 34.035156 14.730469 34.4375 0.496094 34.871094 C 14.730469 35.308594 22.839844 35.710938 27.546875 38.789062 C 26.144531 41.953125 23.121094 45.621094 18.476562 50.957031 C 23.808594 46.308594 27.476562 43.289062 30.640625 41.886719 C 33.722656 46.589844 34.121094 54.703125 34.558594 68.933594 C 34.996094 54.703125 35.394531 46.589844 38.476562 41.886719 C 41.640625 43.289062 45.304688 46.308594 50.640625 50.957031 C 45.996094 45.621094 42.972656 41.953125 41.570312 38.789062 Z M 41.570312 38.789062 " fill-opacity="1" fill-rule="nonzero"/></g></g></g></g><g mask="url(#7f7fc6f12f)"><g transform="matrix(1, 0, 0, 1, 192, 49)"><g clip-path="url(#0a407adc60)"><g clip-path="url(#a0136b128c)"><path fill="#fcfdfd" d="M 60.933594 56.320312 C 67.8125 51.820312 79.664062 51.234375 100.464844 50.597656 C 79.664062 49.957031 67.8125 49.371094 60.933594 44.871094 C 62.984375 40.246094 67.398438 34.886719 74.1875 27.089844 C 66.390625 33.878906 61.03125 38.296875 56.410156 40.347656 C 51.90625 33.46875 51.320312 21.613281 50.683594 0.8125 C 50.046875 21.613281 49.460938 33.46875 44.957031 40.347656 C 40.332031 38.296875 34.972656 33.878906 27.175781 27.089844 C 33.96875 34.886719 38.382812 40.246094 40.433594 44.871094 C 33.554688 49.371094 21.703125 49.957031 0.902344 50.597656 C 21.703125 51.234375 33.554688 51.820312 40.433594 56.320312 C 38.382812 60.945312 33.96875 66.304688 27.175781 74.101562 C 34.972656 67.3125 40.332031 62.894531 44.957031 60.847656 C 49.460938 67.722656 50.046875 79.578125 50.683594 100.378906 C 51.320312 79.578125 51.90625 67.722656 56.410156 60.847656 C 61.03125 62.894531 66.390625 67.3125 74.1875 74.101562 C 67.398438 66.304688 62.984375 60.945312 60.933594 56.320312 Z M 60.933594 56.320312 " fill-opacity="1" fill-rule="nonzero"/></g></g></g></g><g mask="url(#35ae485034)"><g transform="matrix(1, 0, 0, 1, 209, 178)"><g clip-path="url(#3f0c2917ec)"><g clip-path="url(#c110319684)"><path fill="#fcfdfd" d="M 40.378906 37.730469 C 44.929688 34.753906 52.773438 34.367188 66.539062 33.945312 C 52.773438 33.519531 44.929688 33.132812 40.378906 30.15625 C 41.734375 27.09375 44.660156 23.550781 49.152344 18.390625 C 43.992188 22.882812 40.445312 25.804688 37.386719 27.160156 C 34.40625 22.609375 34.019531 14.769531 33.597656 1.003906 C 33.175781 14.769531 32.789062 22.609375 29.808594 27.160156 C 26.75 25.804688 23.203125 22.882812 18.046875 18.390625 C 22.539062 23.550781 25.460938 27.09375 26.816406 30.15625 C 22.265625 33.132812 14.421875 33.519531 0.660156 33.945312 C 14.421875 34.367188 22.265625 34.753906 26.816406 37.730469 C 25.460938 40.792969 22.539062 44.335938 18.046875 49.496094 C 23.203125 45.003906 26.75 42.082031 29.808594 40.726562 C 32.789062 45.277344 33.175781 53.121094 33.597656 66.882812 C 34.019531 53.121094 34.40625 45.277344 37.386719 40.726562 C 40.445312 42.082031 43.992188 45.003906 49.152344 49.496094 C 44.660156 44.335938 41.734375 40.792969 40.378906 37.730469 Z M 40.378906 37.730469 " fill-opacity="1" fill-rule="nonzero"/></g></g></g></g><g mask="url(#a17e7cd335)"><g transform="matrix(1, 0, 0, 1, 208, 293)"><g clip-path="url(#a4c2412e58)"><g clip-path="url(#65c033d333)"><path fill="#fcfdfd" d="M 40.089844 37.644531 C 44.640625 34.667969 52.480469 34.28125 66.246094 33.859375 C 52.480469 33.4375 44.640625 33.046875 40.089844 30.070312 C 41.445312 27.011719 44.367188 23.464844 48.859375 18.304688 C 43.699219 22.796875 40.15625 25.71875 37.09375 27.078125 C 34.117188 22.523438 33.730469 14.683594 33.304688 0.917969 C 32.882812 14.683594 32.496094 22.523438 29.519531 27.078125 C 26.457031 25.71875 22.914062 22.796875 17.753906 18.304688 C 22.246094 23.464844 25.167969 27.011719 26.523438 30.070312 C 21.972656 33.046875 14.128906 33.4375 0.367188 33.859375 C 14.128906 34.28125 21.972656 34.667969 26.523438 37.644531 C 25.167969 40.707031 22.246094 44.253906 17.753906 49.410156 C 22.914062 44.917969 26.457031 41.996094 29.519531 40.640625 C 32.496094 45.191406 32.882812 53.035156 33.304688 66.796875 C 33.730469 53.035156 34.117188 45.191406 37.09375 40.640625 C 40.15625 41.996094 43.699219 44.917969 48.859375 49.410156 C 44.367188 44.253906 41.445312 40.707031 40.089844 37.644531 Z M 40.089844 37.644531 " fill-opacity="1" fill-rule="nonzero"/></g></g></g></g><g mask="url(#209828cbc6)"><g transform="matrix(1, 0, 0, 1, 192, 397)"><g clip-path="url(#8ea78676ba)"><g clip-path="url(#c25b182e55)"><path fill="#fcfdfd" d="M 60.699219 56.183594 C 67.578125 51.679688 79.429688 51.09375 100.234375 50.457031 C 79.429688 49.820312 67.578125 49.234375 60.699219 44.730469 C 62.75 40.105469 67.164062 34.746094 73.957031 26.949219 C 66.160156 33.742188 60.800781 38.15625 56.175781 40.207031 C 51.671875 33.328125 51.089844 21.476562 50.449219 0.675781 C 49.8125 21.476562 49.226562 33.328125 44.726562 40.207031 C 40.101562 38.15625 34.742188 33.742188 26.945312 26.949219 C 33.734375 34.746094 38.152344 40.105469 40.199219 44.730469 C 33.320312 49.234375 21.46875 49.820312 0.667969 50.457031 C 21.46875 51.09375 33.320312 51.679688 40.199219 56.183594 C 38.152344 60.804688 33.734375 66.164062 26.945312 73.960938 C 34.742188 67.171875 40.101562 62.757812 44.726562 60.707031 C 49.226562 67.585938 49.8125 79.4375 50.449219 100.238281 C 51.089844 79.4375 51.671875 67.585938 56.175781 60.707031 C 60.800781 62.757812 66.160156 67.171875 73.957031 73.960938 C 67.164062 66.164062 62.75 60.804688 60.699219 56.183594 Z M 60.699219 56.183594 " fill-opacity="1" fill-rule="nonzero"/></g></g></g></g><g clip-path="url(#016ecc3d5f)"><g mask="url(#cefd346e82)"><g transform="matrix(1, 0, 0, 1, 737, 0.000000000000017795)"><g clip-path="url(#4f827bcc00)"><g clip-path="url(#3476e1b48c)"><path fill="#fcfdfd" d="M 50.277344 70.511719 C 55.953125 66.796875 65.734375 66.3125 82.898438 65.785156 C 65.734375 65.261719 55.953125 64.777344 50.277344 61.0625 C 51.96875 57.246094 55.613281 52.824219 61.214844 46.390625 C 54.78125 51.992188 50.359375 55.636719 46.542969 57.328125 C 42.832031 51.652344 42.347656 41.875 41.820312 24.710938 C 41.292969 41.875 40.808594 51.652344 37.097656 57.328125 C 33.28125 55.636719 28.859375 51.992188 22.425781 46.390625 C 28.027344 52.824219 31.671875 57.246094 33.363281 61.0625 C 27.6875 64.777344 17.90625 65.261719 0.742188 65.785156 C 17.90625 66.3125 27.6875 66.796875 33.363281 70.511719 C 31.671875 74.328125 28.027344 78.75 22.425781 85.183594 C 28.859375 79.578125 33.28125 75.933594 37.097656 74.246094 C 40.808594 79.917969 41.292969 89.699219 41.820312 106.863281 C 42.347656 89.699219 42.832031 79.917969 46.542969 74.246094 C 50.359375 75.933594 54.78125 79.578125 61.214844 85.183594 C 55.613281 78.75 51.96875 74.328125 50.277344 70.511719 Z M 50.277344 70.511719 " fill-opacity="1" fill-rule="nonzero"/></g><g clip-path="url(#417a3f8833)"><path fill="#fcfdfd" d="M 39.847656 217.027344 C 44.328125 214.097656 52.050781 213.714844 65.601562 213.296875 C 52.050781 212.882812 44.328125 212.5 39.847656 209.570312 C 41.183594 206.554688 44.0625 203.066406 48.484375 197.984375 C 43.40625 202.410156 39.914062 205.285156 36.902344 206.621094 C 33.96875 202.140625 33.589844 194.417969 33.171875 180.867188 C 32.757812 194.417969 32.375 202.140625 29.441406 206.621094 C 26.429688 205.285156 22.9375 202.410156 17.859375 197.984375 C 22.285156 203.066406 25.160156 206.554688 26.496094 209.570312 C 22.015625 212.5 14.292969 212.882812 0.742188 213.296875 C 14.292969 213.714844 22.015625 214.097656 26.496094 217.027344 C 25.160156 220.039062 22.285156 223.53125 17.859375 228.609375 C 22.9375 224.1875 26.429688 221.308594 29.441406 219.976562 C 32.375 224.457031 32.757812 232.175781 33.171875 245.726562 C 33.589844 232.175781 33.96875 224.457031 36.902344 219.976562 C 39.914062 221.308594 43.40625 224.1875 48.484375 228.609375 C 44.0625 223.53125 41.183594 220.039062 39.847656 217.027344 Z M 39.847656 217.027344 " fill-opacity="1" fill-rule="nonzero"/></g><g clip-path="url(#55637f8b91)"><path fill="#fcfdfd" d="M 39.847656 373.1875 C 44.328125 370.253906 52.050781 369.875 65.601562 369.457031 C 52.050781 369.042969 44.328125 368.660156 39.847656 365.730469 C 41.183594 362.714844 44.0625 359.226562 48.484375 354.144531 C 43.40625 358.570312 39.914062 361.445312 36.902344 362.78125 C 33.96875 358.300781 33.589844 350.578125 33.171875 337.027344 C 32.757812 350.578125 32.375 358.300781 29.441406 362.78125 C 26.429688 361.445312 22.9375 358.570312 17.859375 354.144531 C 22.285156 359.226562 25.160156 362.714844 26.496094 365.730469 C 22.015625 368.660156 14.292969 369.042969 0.742188 369.457031 C 14.292969 369.875 22.015625 370.253906 26.496094 373.1875 C 25.160156 376.199219 22.285156 379.691406 17.859375 384.769531 C 22.9375 380.347656 26.429688 377.46875 29.441406 376.136719 C 32.375 380.617188 32.757812 388.335938 33.171875 401.886719 C 33.589844 388.335938 33.96875 380.617188 36.902344 376.136719 C 39.914062 377.46875 43.40625 380.347656 48.484375 384.769531 C 44.0625 379.691406 41.183594 376.199219 39.847656 373.1875 Z M 39.847656 373.1875 " fill-opacity="1" fill-rule="nonzero"/></g><g clip-path="url(#d7e1fca278)"><path fill="#fcfdfd" d="M 53.636719 468.191406 C 58.714844 464.867188 67.464844 464.433594 82.824219 463.964844 C 67.464844 463.492188 58.714844 463.058594 53.636719 459.738281 C 55.148438 456.324219 58.410156 452.367188 63.421875 446.609375 C 57.667969 451.621094 53.710938 454.882812 50.296875 456.398438 C 46.972656 451.320312 46.539062 442.566406 46.070312 427.210938 C 45.597656 442.566406 45.167969 451.320312 41.84375 456.398438 C 38.429688 454.882812 34.472656 451.621094 28.714844 446.609375 C 33.730469 452.367188 36.988281 456.324219 38.503906 459.738281 C 33.425781 463.058594 24.671875 463.492188 9.316406 463.964844 C 24.671875 464.433594 33.425781 464.867188 38.503906 468.191406 C 36.988281 471.605469 33.730469 475.5625 28.714844 481.316406 C 34.472656 476.304688 38.429688 473.042969 41.84375 471.53125 C 45.167969 476.609375 45.597656 485.359375 46.070312 500.71875 C 46.539062 485.359375 46.972656 476.609375 50.296875 471.53125 C 53.710938 473.042969 57.667969 476.304688 63.421875 481.316406 C 58.410156 475.5625 55.148438 471.605469 53.636719 468.191406 Z M 53.636719 468.191406 " fill-opacity="1" fill-rule="nonzero"/></g><g clip-path="url(#c0eda3a03b)"><path fill="#fcfdfd" d="M 175.503906 -8.039062 C 180.582031 -11.363281 189.332031 -11.796875 204.6875 -12.265625 C 189.332031 -12.738281 180.582031 -13.171875 175.503906 -16.492188 C 177.015625 -19.910156 180.277344 -23.863281 185.289062 -29.621094 C 179.535156 -24.609375 175.578125 -21.347656 172.164062 -19.835938 C 168.839844 -24.914062 168.40625 -33.664062 167.9375 -49.019531 C 167.464844 -33.664062 167.03125 -24.914062 163.710938 -19.835938 C 160.292969 -21.347656 156.339844 -24.609375 150.582031 -29.621094 C 155.59375 -23.863281 158.855469 -19.90625 160.367188 -16.492188 C 155.289062 -13.171875 146.539062 -12.738281 131.183594 -12.265625 C 146.539062 -11.796875 155.289062 -11.363281 160.367188 -8.039062 C 158.855469 -4.625 155.59375 -0.667969 150.582031 5.085938 C 156.339844 0.0742188 160.296875 -3.1875 163.710938 -4.699219 C 167.03125 0.378906 167.464844 9.128906 167.9375 24.484375 C 168.40625 9.128906 168.839844 0.378906 172.164062 -4.699219 C 175.578125 -3.1875 179.535156 0.0742188 185.289062 5.085938 C 180.277344 -0.667969 177.015625 -4.625 175.503906 -8.039062 Z M 175.503906 -8.039062 " fill-opacity="1" fill-rule="nonzero"/></g><g clip-path="url(#2360d051b4)"><path fill="#fcfdfd" d="M 175.503906 133.207031 C 180.582031 129.886719 189.332031 129.453125 204.6875 128.980469 C 189.332031 128.511719 180.582031 128.078125 175.503906 124.753906 C 177.015625 121.339844 180.277344 117.382812 185.289062 111.628906 C 179.535156 116.640625 175.578125 119.902344 172.164062 121.414062 C 168.839844 116.335938 168.40625 107.585938 167.9375 92.230469 C 167.464844 107.585938 167.03125 116.335938 163.710938 121.414062 C 160.292969 119.902344 156.339844 116.640625 150.582031 111.628906 C 155.59375 117.382812 158.855469 121.339844 160.367188 124.753906 C 155.289062 128.078125 146.539062 128.511719 131.183594 128.980469 C 146.539062 129.453125 155.289062 129.886719 160.367188 133.207031 C 158.855469 136.625 155.59375 140.578125 150.582031 146.335938 C 156.339844 141.324219 160.296875 138.0625 163.710938 136.550781 C 167.03125 141.628906 167.464844 150.378906 167.9375 165.734375 C 168.40625 150.378906 168.839844 141.628906 172.164062 136.550781 C 175.578125 138.0625 179.535156 141.324219 185.289062 146.335938 C 180.277344 140.578125 177.015625 136.621094 175.503906 133.207031 Z M 175.503906 133.207031 " fill-opacity="1" fill-rule="nonzero"/></g><g clip-path="url(#80a37be524)"><path fill="#fcfdfd" d="M 179.398438 275.320312 C 187.066406 270.300781 200.277344 269.648438 223.464844 268.9375 C 200.277344 268.226562 187.066406 267.574219 179.398438 262.554688 C 181.683594 257.402344 186.605469 251.429688 194.175781 242.738281 C 185.484375 250.304688 179.507812 255.226562 174.355469 257.511719 C 169.335938 249.847656 168.683594 236.632812 167.972656 213.449219 C 167.261719 236.632812 166.609375 249.847656 161.589844 257.511719 C 156.4375 255.226562 150.460938 250.304688 141.773438 242.738281 C 149.339844 251.429688 154.261719 257.402344 156.546875 262.554688 C 148.882812 267.574219 135.667969 268.226562 112.480469 268.9375 C 135.667969 269.648438 148.882812 270.300781 156.546875 275.320312 C 154.261719 280.472656 149.339844 286.449219 141.773438 295.140625 C 150.460938 287.570312 156.4375 282.648438 161.589844 280.363281 C 166.609375 288.03125 167.261719 301.242188 167.972656 324.429688 C 168.683594 301.242188 169.335938 288.03125 174.355469 280.363281 C 179.507812 282.648438 185.484375 287.570312 194.175781 295.140625 C 186.605469 286.449219 181.683594 280.472656 179.398438 275.320312 Z M 179.398438 275.320312 " fill-opacity="1" fill-rule="nonzero"/></g><g clip-path="url(#5455c4c9a3)"><path fill="#fcfdfd" d="M 176.058594 399 C 181.335938 395.546875 190.433594 395.097656 206.390625 394.605469 C 190.433594 394.117188 181.335938 393.667969 176.058594 390.214844 C 177.632812 386.664062 181.023438 382.554688 186.230469 376.570312 C 180.25 381.78125 176.136719 385.171875 172.589844 386.742188 C 169.136719 381.464844 168.6875 372.371094 168.195312 356.410156 C 167.707031 372.371094 167.257812 381.464844 163.804688 386.742188 C 160.253906 385.171875 156.144531 381.78125 150.160156 376.570312 C 155.371094 382.554688 158.761719 386.667969 160.332031 390.214844 C 155.054688 393.667969 145.960938 394.117188 130 394.605469 C 145.960938 395.097656 155.054688 395.546875 160.332031 399 C 158.761719 402.546875 155.371094 406.660156 150.160156 412.640625 C 156.144531 407.433594 160.257812 404.042969 163.804688 402.46875 C 167.257812 407.746094 167.707031 416.84375 168.195312 432.800781 C 168.6875 416.84375 169.136719 407.746094 172.589844 402.46875 C 176.136719 404.042969 180.25 407.433594 186.230469 412.640625 C 181.023438 406.660156 177.632812 402.546875 176.058594 399 Z M 176.058594 399 " fill-opacity="1" fill-rule="nonzero"/></g><g clip-path="url(#3efe68622e)"><path fill="#fcfdfd" d="M 176.058594 522.652344 C 181.335938 519.199219 190.433594 518.75 206.390625 518.261719 C 190.433594 517.773438 181.335938 517.324219 176.058594 513.867188 C 177.632812 510.320312 181.023438 506.210938 186.230469 500.226562 C 180.25 505.4375 176.136719 508.824219 172.589844 510.398438 C 169.136719 505.121094 168.6875 496.027344 168.195312 480.066406 C 167.707031 496.027344 167.257812 505.121094 163.804688 510.398438 C 160.253906 508.824219 156.144531 505.4375 150.160156 500.226562 C 155.371094 506.210938 158.761719 510.320312 160.332031 513.867188 C 155.054688 517.324219 145.960938 517.773438 130 518.261719 C 145.960938 518.75 155.054688 519.199219 160.332031 522.652344 C 158.761719 526.203125 155.371094 530.3125 150.160156 536.296875 C 156.144531 531.085938 160.257812 527.699219 163.804688 526.125 C 167.257812 531.402344 167.707031 540.496094 168.195312 556.457031 C 168.6875 540.496094 169.136719 531.402344 172.589844 526.125 C 176.136719 527.699219 180.25 531.085938 186.230469 536.296875 C 181.023438 530.3125 177.632812 526.203125 176.058594 522.652344 Z M 176.058594 522.652344 " fill-opacity="1" fill-rule="nonzero"/></g></g></g></g></g><g mask="url(#da07912e3c)"><g transform="matrix(1, 0, 0, 1, 352, 65)"><g clip-path="url(#267595d994)"><g clip-path="url(#851072ea85)"><path fill="#fcfdfd" d="M 45.066406 42.394531 C 50.1875 39.042969 59.011719 38.605469 74.496094 38.132812 C 59.011719 37.65625 50.1875 37.21875 45.066406 33.871094 C 46.59375 30.425781 49.882812 26.4375 54.933594 20.632812 C 49.132812 25.6875 45.140625 28.976562 41.699219 30.503906 C 38.347656 25.382812 37.914062 16.558594 37.4375 1.074219 C 36.964844 16.558594 36.527344 25.382812 33.175781 30.503906 C 29.734375 28.976562 25.746094 25.6875 19.941406 20.632812 C 24.996094 26.4375 28.28125 30.425781 29.808594 33.871094 C 24.6875 37.21875 15.867188 37.65625 0.382812 38.132812 C 15.867188 38.605469 24.6875 39.042969 29.808594 42.394531 C 28.28125 45.835938 24.996094 49.824219 19.941406 55.628906 C 25.746094 50.574219 29.734375 47.285156 33.175781 45.761719 C 36.527344 50.878906 36.964844 59.703125 37.4375 75.1875 C 37.914062 59.703125 38.347656 50.878906 41.699219 45.761719 C 45.140625 47.285156 49.132812 50.574219 54.933594 55.628906 C 49.882812 49.824219 46.59375 45.835938 45.066406 42.394531 Z M 45.066406 42.394531 " fill-opacity="1" fill-rule="nonzero"/></g></g></g></g><g mask="url(#8ae9652257)"><g transform="matrix(1, 0, 0, 1, 352, 206)"><g clip-path="url(#d8e6354b99)"><g clip-path="url(#1f45b9d098)"><path fill="#fcfdfd" d="M 35.589844 32.574219 C 39.621094 29.933594 46.574219 29.589844 58.773438 29.21875 C 46.574219 28.84375 39.621094 28.5 35.589844 25.859375 C 36.792969 23.148438 39.382812 20.003906 43.363281 15.433594 C 38.789062 19.414062 35.648438 22.003906 32.933594 23.207031 C 30.296875 19.171875 29.953125 12.21875 29.578125 0.0195312 C 29.203125 12.21875 28.859375 19.171875 26.21875 23.207031 C 23.507812 22.003906 20.363281 19.414062 15.792969 15.433594 C 19.773438 20.003906 22.363281 23.148438 23.566406 25.859375 C 19.53125 28.5 12.582031 28.84375 0.382812 29.21875 C 12.582031 29.589844 19.53125 29.933594 23.566406 32.574219 C 22.363281 35.289062 19.773438 38.429688 15.792969 43.003906 C 20.363281 39.019531 23.507812 36.429688 26.21875 35.226562 C 28.859375 39.261719 29.203125 46.214844 29.578125 58.414062 C 29.953125 46.214844 30.296875 39.261719 32.933594 35.226562 C 35.648438 36.429688 38.789062 39.019531 43.363281 43.003906 C 39.382812 38.429688 36.792969 35.285156 35.589844 32.574219 Z M 35.589844 32.574219 " fill-opacity="1" fill-rule="nonzero"/></g></g></g></g><g mask="url(#13600ef271)"><g transform="matrix(1, 0, 0, 1, 352, 345)"><g clip-path="url(#3850b15025)"><g clip-path="url(#69d08b0284)"><path fill="#fcfdfd" d="M 35.589844 33.519531 C 39.621094 30.882812 46.574219 30.539062 58.773438 30.164062 C 46.574219 29.789062 39.621094 29.445312 35.589844 26.804688 C 36.792969 24.09375 39.382812 20.949219 43.363281 16.378906 C 38.789062 20.359375 35.648438 22.949219 32.933594 24.152344 C 30.296875 20.117188 29.953125 13.167969 29.578125 0.96875 C 29.203125 13.167969 28.859375 20.117188 26.21875 24.152344 C 23.507812 22.949219 20.363281 20.359375 15.792969 16.378906 C 19.773438 20.949219 22.363281 24.09375 23.566406 26.804688 C 19.53125 29.445312 12.582031 29.789062 0.382812 30.164062 C 12.582031 30.539062 19.53125 30.882812 23.566406 33.519531 C 22.363281 36.234375 19.773438 39.375 15.792969 43.949219 C 20.363281 39.96875 23.507812 37.375 26.21875 36.175781 C 28.859375 40.207031 29.203125 47.160156 29.578125 59.359375 C 29.953125 47.160156 30.296875 40.207031 32.933594 36.175781 C 35.648438 37.375 38.789062 39.96875 43.363281 43.949219 C 39.382812 39.375 36.792969 36.234375 35.589844 33.519531 Z M 35.589844 33.519531 " fill-opacity="1" fill-rule="nonzero"/></g></g></g></g><g mask="url(#4620a12327)"><g transform="matrix(1, 0, 0, 1, 359, 426)"><g clip-path="url(#ba8ad27d3c)"><g clip-path="url(#999fed6e2d)"><path fill="#fcfdfd" d="M 40.785156 37.511719 C 45.335938 34.535156 53.179688 34.148438 66.941406 33.726562 C 53.179688 33.304688 45.335938 32.914062 40.785156 29.9375 C 42.140625 26.878906 45.066406 23.332031 49.558594 18.171875 C 44.398438 22.664062 40.851562 25.585938 37.792969 26.945312 C 34.8125 22.394531 34.425781 14.550781 34.003906 0.785156 C 33.582031 14.550781 33.195312 22.394531 30.214844 26.945312 C 27.15625 25.585938 23.609375 22.664062 18.453125 18.171875 C 22.945312 23.332031 25.867188 26.878906 27.222656 29.9375 C 22.671875 32.914062 14.828125 33.304688 1.066406 33.726562 C 14.828125 34.148438 22.671875 34.535156 27.222656 37.511719 C 25.867188 40.574219 22.945312 44.121094 18.453125 49.277344 C 23.609375 44.785156 27.15625 41.863281 30.214844 40.507812 C 33.195312 45.058594 33.582031 52.902344 34.003906 66.664062 C 34.425781 52.902344 34.8125 45.058594 37.792969 40.507812 C 40.851562 41.863281 44.398438 44.785156 49.558594 49.277344 C 45.066406 44.121094 42.140625 40.574219 40.785156 37.511719 Z M 40.785156 37.511719 " fill-opacity="1" fill-rule="nonzero"/></g></g></g></g><g mask="url(#ba728dc9bf)"><g transform="matrix(1, 0, 0, 1, 469, 0.000000000000017795)"><g clip-path="url(#657dde0cd4)"><g clip-path="url(#2c046df1c0)"><path fill="#fcfdfd" d="M 40 36.726562 C 44.550781 33.75 52.394531 33.359375 66.15625 32.9375 C 52.394531 32.515625 44.550781 32.128906 40 29.152344 C 41.355469 26.089844 44.277344 22.546875 48.769531 17.386719 C 43.613281 21.878906 40.066406 24.800781 37.003906 26.15625 C 34.027344 21.605469 33.640625 13.761719 33.21875 0 C 32.796875 13.761719 32.40625 21.605469 29.429688 26.15625 C 26.371094 24.800781 22.824219 21.878906 17.664062 17.386719 C 22.15625 22.546875 25.078125 26.089844 26.4375 29.152344 C 21.886719 32.128906 14.042969 32.515625 0.277344 32.9375 C 14.042969 33.359375 21.886719 33.75 26.4375 36.726562 C 25.078125 39.785156 22.15625 43.332031 17.664062 48.492188 C 22.824219 44 26.371094 41.078125 29.429688 39.722656 C 32.40625 44.273438 32.796875 52.113281 33.21875 65.878906 C 33.640625 52.113281 34.027344 44.273438 37.003906 39.722656 C 40.066406 41.078125 43.613281 44 48.769531 48.492188 C 44.277344 43.332031 41.355469 39.785156 40 36.726562 Z M 40 36.726562 " fill-opacity="1" fill-rule="nonzero"/></g></g></g></g><g mask="url(#81245a2ec8)"><g transform="matrix(1, 0, 0, 1, 469, 126)"><g clip-path="url(#c78c23f54e)"><g clip-path="url(#6c52893cd8)"><path fill="#fcfdfd" d="M 40 37.3125 C 44.550781 34.332031 52.394531 33.945312 66.15625 33.523438 C 52.394531 33.101562 44.550781 32.714844 40 29.734375 C 41.355469 26.675781 44.277344 23.128906 48.769531 17.96875 C 43.613281 22.464844 40.066406 25.386719 37.003906 26.742188 C 34.027344 22.191406 33.640625 14.347656 33.21875 0.585938 C 32.796875 14.347656 32.40625 22.191406 29.429688 26.742188 C 26.371094 25.386719 22.824219 22.464844 17.664062 17.96875 C 22.15625 23.128906 25.078125 26.675781 26.4375 29.734375 C 21.886719 32.714844 14.042969 33.101562 0.277344 33.523438 C 14.042969 33.945312 21.886719 34.332031 26.4375 37.3125 C 25.078125 40.371094 22.15625 43.917969 17.664062 49.074219 C 22.824219 44.582031 26.371094 41.660156 29.429688 40.304688 C 32.40625 44.855469 32.796875 52.699219 33.21875 66.460938 C 33.640625 52.699219 34.027344 44.855469 37.003906 40.304688 C 40.066406 41.660156 43.613281 44.582031 48.769531 49.074219 C 44.277344 43.917969 41.355469 40.371094 40 37.3125 Z M 40 37.3125 " fill-opacity="1" fill-rule="nonzero"/></g></g></g></g><g mask="url(#4113261c0a)"><g transform="matrix(1, 0, 0, 1, 452, 235)"><g clip-path="url(#30463fa7ca)"><g clip-path="url(#38ac1edeac)"><path fill="#fcfdfd" d="M 60.550781 55.726562 C 67.429688 51.222656 79.285156 50.636719 100.085938 50 C 79.285156 49.363281 67.429688 48.777344 60.550781 44.273438 C 62.601562 39.648438 67.019531 34.292969 73.808594 26.496094 C 66.011719 33.285156 60.652344 37.699219 56.027344 39.75 C 51.527344 32.871094 50.941406 21.019531 50.300781 0.21875 C 49.664062 21.019531 49.078125 32.871094 44.578125 39.75 C 39.953125 37.699219 34.59375 33.285156 26.796875 26.496094 C 33.585938 34.292969 38.003906 39.652344 40.054688 44.273438 C 33.175781 48.777344 21.320312 49.363281 0.519531 50 C 21.320312 50.636719 33.175781 51.222656 40.054688 55.726562 C 38.003906 60.351562 33.585938 65.710938 26.796875 73.507812 C 34.59375 66.714844 39.953125 62.300781 44.578125 60.25 C 49.078125 67.128906 49.664062 78.980469 50.300781 99.78125 C 50.941406 78.980469 51.527344 67.128906 56.027344 60.25 C 60.652344 62.300781 66.011719 66.714844 73.808594 73.507812 C 67.019531 65.710938 62.601562 60.351562 60.550781 55.726562 Z M 60.550781 55.726562 " fill-opacity="1" fill-rule="nonzero"/></g></g></g></g><g mask="url(#180e59db6e)"><g transform="matrix(1, 0, 0, 1, 468, 363)"><g clip-path="url(#6791476fd5)"><g clip-path="url(#c09c80c57c)"><path fill="#fcfdfd" d="M 41.296875 38.316406 C 46 35.238281 54.113281 34.835938 68.34375 34.402344 C 54.113281 33.964844 46 33.5625 41.296875 30.484375 C 42.699219 27.320312 45.71875 23.652344 50.367188 18.316406 C 45.03125 22.964844 41.363281 25.984375 38.199219 27.386719 C 35.121094 22.679688 34.71875 14.570312 34.28125 0.339844 C 33.84375 14.570312 33.445312 22.679688 30.367188 27.386719 C 27.199219 25.984375 23.535156 22.964844 18.199219 18.316406 C 22.84375 23.652344 25.867188 27.320312 27.269531 30.484375 C 22.5625 33.5625 14.453125 33.964844 0.21875 34.402344 C 14.453125 34.835938 22.5625 35.238281 27.269531 38.316406 C 25.867188 41.480469 22.84375 45.148438 18.199219 50.484375 C 23.535156 45.835938 27.199219 42.816406 30.367188 41.414062 C 33.445312 46.121094 33.84375 54.230469 34.28125 68.460938 C 34.71875 54.230469 35.121094 46.121094 38.199219 41.414062 C 41.363281 42.816406 45.03125 45.835938 50.367188 50.484375 C 45.71875 45.148438 42.699219 41.480469 41.296875 38.316406 Z M 41.296875 38.316406 " fill-opacity="1" fill-rule="nonzero"/></g></g></g></g><g mask="url(#dcbab7f068)"><g transform="matrix(1, 0, 0, 1, 468, 474)"><g clip-path="url(#f7f398cd81)"><g clip-path="url(#58b37a19ae)"><path fill="#fcfdfd" d="M 41.296875 38.132812 C 46 35.054688 54.113281 34.652344 68.34375 34.21875 C 54.113281 33.78125 46 33.378906 41.296875 30.300781 C 42.699219 27.136719 45.71875 23.46875 50.367188 18.132812 C 45.03125 22.78125 41.363281 25.800781 38.199219 27.203125 C 35.121094 22.496094 34.71875 14.386719 34.28125 0.15625 C 33.84375 14.386719 33.445312 22.496094 30.367188 27.203125 C 27.199219 25.800781 23.535156 22.78125 18.199219 18.132812 C 22.84375 23.46875 25.867188 27.136719 27.269531 30.300781 C 22.5625 33.378906 14.453125 33.78125 0.21875 34.21875 C 14.453125 34.652344 22.5625 35.054688 27.269531 38.132812 C 25.867188 41.296875 22.84375 44.964844 18.199219 50.300781 C 23.535156 45.652344 27.199219 42.632812 30.367188 41.230469 C 33.445312 45.9375 33.84375 54.046875 34.28125 68.277344 C 34.71875 54.046875 35.121094 45.9375 38.199219 41.230469 C 41.363281 42.632812 45.03125 45.652344 50.367188 50.300781 C 45.71875 44.964844 42.699219 41.296875 41.296875 38.132812 Z M 41.296875 38.132812 " fill-opacity="1" fill-rule="nonzero"/></g></g></g></g><g mask="url(#843c9b3b1a)"><g transform="matrix(1, 0, 0, 1, 578, 52)"><g clip-path="url(#058567120f)"><g clip-path="url(#e1a2ab79a3)"><path fill="#fcfdfd" d="M 60.65625 56.664062 C 67.535156 52.164062 79.390625 51.578125 100.191406 50.941406 C 79.390625 50.300781 67.535156 49.71875 60.65625 45.214844 C 62.707031 40.589844 67.125 35.230469 73.914062 27.433594 C 66.117188 34.226562 60.757812 38.640625 56.132812 40.691406 C 51.632812 33.8125 51.046875 21.960938 50.40625 1.15625 C 49.769531 21.960938 49.183594 33.8125 44.683594 40.691406 C 40.058594 38.640625 34.699219 34.226562 26.902344 27.433594 C 33.691406 35.230469 38.109375 40.589844 40.15625 45.214844 C 33.28125 49.71875 21.425781 50.300781 0.625 50.941406 C 21.425781 51.578125 33.28125 52.164062 40.15625 56.664062 C 38.109375 61.289062 33.691406 66.648438 26.902344 74.445312 C 34.699219 67.65625 40.058594 63.242188 44.683594 61.191406 C 49.183594 68.070312 49.769531 79.921875 50.40625 100.722656 C 51.046875 79.921875 51.632812 68.070312 56.132812 61.191406 C 60.757812 63.242188 66.117188 67.65625 73.914062 74.445312 C 67.125 66.648438 62.707031 61.289062 60.65625 56.664062 Z M 60.65625 56.664062 " fill-opacity="1" fill-rule="nonzero"/></g></g></g></g><g mask="url(#0773997745)"><g transform="matrix(1, 0, 0, 1, 595, 182)"><g clip-path="url(#c202d53c4a)"><g clip-path="url(#a915f5a13c)"><path fill="#fcfdfd" d="M 40.105469 37.074219 C 44.65625 34.097656 52.496094 33.710938 66.261719 33.289062 C 52.496094 32.867188 44.65625 32.476562 40.105469 29.5 C 41.460938 26.441406 44.382812 22.894531 48.875 17.734375 C 43.714844 22.226562 40.171875 25.148438 37.109375 26.507812 C 34.132812 21.957031 33.746094 14.113281 33.324219 0.347656 C 32.898438 14.113281 32.511719 21.957031 29.535156 26.507812 C 26.472656 25.148438 22.929688 22.226562 17.769531 17.734375 C 22.261719 22.894531 25.183594 26.441406 26.539062 29.5 C 21.988281 32.476562 14.148438 32.867188 0.382812 33.289062 C 14.148438 33.710938 21.988281 34.097656 26.539062 37.074219 C 25.183594 40.136719 22.261719 43.683594 17.769531 48.839844 C 22.929688 44.347656 26.472656 41.425781 29.535156 40.070312 C 32.511719 44.621094 32.898438 52.464844 33.324219 66.226562 C 33.746094 52.464844 34.132812 44.621094 37.109375 40.070312 C 40.171875 41.425781 43.714844 44.347656 48.875 48.839844 C 44.382812 43.683594 41.460938 40.136719 40.105469 37.074219 Z M 40.105469 37.074219 " fill-opacity="1" fill-rule="nonzero"/></g></g></g></g><g mask="url(#6937050ef0)"><g transform="matrix(1, 0, 0, 1, 594, 297)"><g clip-path="url(#9afbb895ef)"><g clip-path="url(#d90849e401)"><path fill="#fcfdfd" d="M 39.8125 36.992188 C 44.363281 34.011719 52.207031 33.625 65.96875 33.203125 C 52.207031 32.78125 44.363281 32.390625 39.8125 29.414062 C 41.167969 26.355469 44.089844 22.808594 48.582031 17.648438 C 43.425781 22.140625 39.878906 25.066406 36.820312 26.421875 C 33.839844 21.871094 33.453125 14.027344 33.03125 0.261719 C 32.609375 14.027344 32.222656 21.871094 29.242188 26.421875 C 26.183594 25.066406 22.636719 22.140625 17.476562 17.648438 C 21.96875 22.808594 24.894531 26.355469 26.25 29.414062 C 21.699219 32.390625 13.855469 32.78125 0.0898438 33.203125 C 13.855469 33.625 21.699219 34.011719 26.25 36.992188 C 24.894531 40.050781 21.96875 43.597656 17.476562 48.753906 C 22.636719 44.261719 26.183594 41.339844 29.242188 39.984375 C 32.222656 44.535156 32.609375 52.378906 33.03125 66.140625 C 33.453125 52.378906 33.839844 44.535156 36.820312 39.984375 C 39.878906 41.339844 43.425781 44.261719 48.582031 48.753906 C 44.089844 43.597656 41.167969 40.050781 39.8125 36.992188 Z M 39.8125 36.992188 " fill-opacity="1" fill-rule="nonzero"/></g></g></g></g><g mask="url(#81dc6d9773)"><g transform="matrix(1, 0, 0, 1, 578, 401)"><g clip-path="url(#6c4f178039)"><g clip-path="url(#c13b437a5b)"><path fill="#fcfdfd" d="M 60.421875 55.527344 C 67.300781 51.023438 79.15625 50.441406 99.957031 49.800781 C 79.15625 49.164062 67.300781 48.578125 60.421875 44.078125 C 62.472656 39.453125 66.890625 34.09375 73.679688 26.296875 C 65.882812 33.085938 60.523438 37.5 55.898438 39.550781 C 51.398438 32.671875 50.8125 20.820312 50.175781 0.0195312 C 49.535156 20.820312 48.949219 32.671875 44.449219 39.550781 C 39.824219 37.5 34.464844 33.085938 26.667969 26.296875 C 33.457031 34.09375 37.875 39.453125 39.925781 44.078125 C 33.046875 48.578125 21.191406 49.164062 0.390625 49.800781 C 21.191406 50.441406 33.046875 51.023438 39.925781 55.527344 C 37.875 60.152344 33.457031 65.511719 26.667969 73.308594 C 34.464844 66.515625 39.824219 62.101562 44.449219 60.050781 C 48.949219 66.929688 49.535156 78.78125 50.175781 99.585938 C 50.8125 78.78125 51.398438 66.929688 55.898438 60.050781 C 60.523438 62.101562 65.882812 66.515625 73.679688 73.308594 C 66.890625 65.511719 62.472656 60.152344 60.421875 55.527344 Z M 60.421875 55.527344 " fill-opacity="1" fill-rule="nonzero"/></g></g></g></g></svg>